**ABCDEFGHIJKLMNOPQRSTUVWXYZabcdefghijklmnopqrstuvwxyz**************************
**PARASOLID !"#$%&'()*+,-./:;<=>?@[\]^_`{|}~0123456789**************************
**PART1;
MC=unknown;
MC_MODEL=unknown;
MC_ID=unknown;
OS=unknown;
OS_RELEASE=unknown;
FRU=Parasolid 37.1.212;
APPL=Onshape;
SITE=unknown;
USER=unknown;
FORMAT=text;
GUISE=transmit;
KEY=BTGapi::writeModels_.xmt;
FILE=BTGapi::writeModels_.xmt;
DATE=2026-05-24T03:01:41 (UTC);
**PART2;
SCH=SCH_3701212_37102;
USFLD_SIZE=0;
**PART3;
**END_OF_HEADER*****************************************************************
T51 : TRANSMIT FILE created by modeller version 370121223 SCH_3701212_37102_1300
6239 0 12 36 CCCI7 lattice222 0 CCCI4 mesh1006 0 I8 polyline1008 0 CCCCCCCDI5 ow
ner1040 0 CCCI16 boundary_lattice222 0 CCCI13 boundary_mesh1006 0 I17 boundary_p
olyline1008 0 CCCA16 index_map_offset0 0 1 dA9 index_map82 0 A17 node_id_index_m
ap82 0 A20 schema_embedding_map82 0 A5 child12 0 A14 lowest_node_id0 0 1 dA16 me
sh_offset_data206 0 Z1 20782 2 3 0 0 0 0 0 0 0 1e3 1e-8 0 4 5 1 0 1 2 6 0 7 8 9
 0 0 10 11 12 0 0 0 0 0 0 0 81 255 1 2 20756 13 1 14 0 0 0 15 70 11 CI9 list_typ
e0 0 1 uI10 notransmit0 0 1 lCCCDCCDI12 finger_index0 0 1 dI12 finger_block1012
 0 CZ3 0 4 T1 0 0 6 20 1 16 16 13 255 6 17174 0 1 0 17 0 0 18 0 50 255 7 794 0 1
9 20 0 21 +-.00819961353567601 .0180647628875396 .003 0 -1 0 1 0 0 137 255 8 207
36 0 1 22 0 23 +24 25 0 ?29 255 9 20109 0 12 27 0 .06187519345 .022065 .03916672
08045489 19 9 CCCCCCI5 frame230 0 CA5 owner12 0 Z10 17176 0 1 18 0 30 0 V0 16 25
5 11 14468 29 ?26 0 28 34 0 0 1 18 255 12 20105 35 32 0 33 9 ?1 81 1 35 20391 31
 12 0 0 38 40 36 17 255 32 0 39 37 41 12 45 43 0 42 +18 33 19449 44 46 12 50 27
 ?1 81 1 44 19898 31 33 0 0 48 47 49 17 46 0 51 55 52 33 53 54 0 57 -18 50 14477
 60 59 33 56 58 ?1 29 27 19453 0 33 58 9 .01492519345 .0180647628875396 .0391667
20804549 29 58 14479 0 50 61 27 -.00597480353567601 .0180647628875396 .004 29 61
 14455 0 56 62 58 -.00597480353567601 .022065 .0261667208045489 18 56 14453 64 6
3 50 65 61 ?1 29 62 14221 0 66 70 61 -.012224803535676 .0180647628875396 5562888
88109262e-33 18 66 14096 68 67 69 75 62 1100000000003708e-22 1 29 70 14222 0 75
 71 62 -.012224803535676 .022065 0 18 75 14082 73 72 66 74 70 ?1 29 71 14227 0 6
5 77 70 .00612519345 .0180647628875396 0 18 65 13985 80 79 56 69 71 ?1 29 77 142
28 0 69 76 71 .00612519345 .022065 0 18 69 13981 78 81 65 66 77 ?1 29 76 14660 0
 74 85 77 -.01047480353567602 .022065 .0261667208045489 18 74 14580 82 83 75 84
 76 ?1 29 85 14661 0 84 87 76 -.010474803535676 .022065 .004 18 84 14583 89 90 7
4 86 85 ?1 29 87 14663 0 86 88 85 -.00597480353567601 .022065 .004 18 86 14586 9
4 95 84 92 87 ?1 29 88 14665 0 92 93 87 -.010474803535676 .0180647628875396 .004
 18 92 14584 91 98 86 100 88 ?1 29 93 14666 0 100 96 88 -.00597480353567601 .018
0647628875396 .0261667208045489 18 100 14589 99 97 92 101 93 ?1 29 96 14667 0 10
1 105 93 -.01047480353567602 .0180647628875396 .0261667208045489 18 101 14581 10
3 102 100 104 96 ?1 29 105 17928 0 104 106 96 -.012224803535676 .018064762887539
6 .0301667208045489 18 104 17613 110 108 101 107 105 1100000000104082e-22 1 29 1
06 17929 0 107 109 105 .00612519345 .0180647628875396 .0301667208045489 18 107 1
7571 111 115 104 112 106 ?1 29 109 17930 0 112 113 106 .00612519345 .022065 .030
1667208045489 18 112 17573 114 117 107 120 109 ?1 29 113 17931 0 119 116 109 .01
492519345 .0180647628875396 .0301667208045489 18 119 17579 118 121 120 122 113 ?
1 29 116 17932 0 120 124 113 -.00342480353567601 .0180647628875396 .030166720804
5489 18 120 17605 123 125 112 119 116 11e-8 1 29 124 17938 0 126 130 116 -.01347
4803535676 -.0143349999999784 .037266720804549 18 126 17645 128 127 129 135 124
 ?1 29 130 17939 0 131 133 124 -.00517480353567601 -.0143349999999784 .037266720
804549 18 131 17657 132 134 122 137 130 ?1 29 133 17940 0 129 140 130 -.00517480
353567601 -.0143349999999784 .031166720804549 18 129 17647 139 136 138 126 133 ?
1 29 140 17941 0 135 141 133 -.013474803535676 -.0143349999999784 .0311667208045
49 18 135 17643 145 142 126 143 140 ?1 29 141 17944 0 144 147 140 -.003424803535
67601 -.0143349999999784 .0301667208045489 18 144 17609 149 150 146 148 141 11e-
8 1 29 147 17945 0 146 154 141 -.015224803410676 -.0143349999999784 .03016672080
45489 18 146 17617 155 152 153 144 147 11e-8 1 29 154 17946 0 143 151 147 .01492
519345 -.0143349999999784 .0301667208045489 18 143 17641 158 160 135 153 154 ?1
 29 151 17948 0 153 156 154 .01667519345 -.0143349999999784 .037266720804549 18
 153 17637 159 157 143 146 151 ?1 29 156 17949 0 161 165 151 .02497519345 -.0143
349999999784 .031166720804549 18 161 17653 163 162 137 164 156 ?1 29 165 17950 0
 137 166 156 .02497519345 -.0143349999999784 .037266720804549 18 137 17655 170 1
68 131 161 165 ?1 29 166 17952 0 122 167 165 .01667519345 -.0143349999999784 .03
1166720804549 18 122 17659 169 171 119 131 166 11e-8 1 29 167 17956 0 175 172 16
6 -.01347480353567602 .022065 .037266720804549 18 175 17583 173 174 177 180 167
 ?1 29 172 17957 0 177 179 167 -.013474803535676 .022065 .031166720804549 18 177
 17585 176 178 181 175 172 ?1 29 179 17959 0 181 182 172 -.00517480353567601 .02
2065 .031166720804549 18 181 17587 184 183 185 177 179 ?1 29 182 17960 0 185 186
 179 .01667519345 .022065 .037266720804549 18 185 17589 190 188 187 181 182 ?1 2
9 186 17961 0 187 189 182 .01667519345 .022065 .031166720804549 18 187 17591 195
 191 193 185 186 11e-8 1 29 189 17962 0 193 192 186 .02497519345 .022065 .031166
720804549 18 193 17593 194 197 200 187 189 ?1 29 192 17964 0 148 199 189 -.00342
480353567601 -.004334999999978405 .0301667208045489 18 148 17607 196 198 144 200
 192 1100000000038646e-22 1 29 199 17966 0 164 201 192 .01667519345 -.0043349999
9997841 .031166720804549 18 164 17651 205 202 161 138 199 11e-8 1 29 201 17967 0
 138 203 199 .01667519345 .020065 .031166720804549 18 138 17649 204 207 164 129
 201 11e-8 1 29 203 17969 0 180 209 201 -.00517480353567601 .022065 .03726672080
4549 18 180 17581 210 206 175 208 203 ?1 29 209 17970 0 200 214 203 .02497519345
 .022065 .0372667208045489 18 200 17595 215 212 148 193 209 ?1 29 214 17972 0 20
8 213 209 -.012224803535676 .022065 .0301667208045489 18 208 17611 211 218 180 2
20 214 110000000006939e-21 1 29 213 17973 0 220 216 214 -.012224803535676 .02206
5 .0291667208045489 18 220 17665 219 217 208 221 213 1100000000008674e-22 1 29 2
16 17974 0 221 225 213 -.012224803535676 .0180647628875396 .0291667208045489 18
 221 17577 223 222 220 224 216 1100000000004336e-22 1 29 225 18715 0 224 226 216
 .02672519341875 -.0143349999999784 .0301667208045489 18 224 18622 230 228 221 2
27 225 11e-8 1 29 226 18717 0 227 229 225 .02672519345 .022065 .0301667208045489
 18 227 18630 231 235 224 232 226 1100625000017018e-22 1 29 229 19791 0 232 233
 226 .01492519345 -.0143349999999784 .039166720804549 18 232 19697 234 55 227 23
7 229 ?1 29 233 19793 0 237 240 229 -.00342480353567601 .0180647628875396 .03916
6720804549 18 237 19689 48 52 232 239 233 ?1 29 240 19794 0 239 236 233 -.003424
80353567601 -.0143349999999784 .039166720804549 18 239 19685 47 238 237 241 240
 ?1 29 236 20327 0 241 242 240 .06187519345 .022065 .0301667208045489 18 241 202
59 244 41 239 243 236 110000000006939e-21 1 29 242 20328 0 243 245 236 .06187519
345 -.0143349999999784 .0301667208045489 18 243 20255 38 246 241 250 242 1100000
00006939e-21 1 29 245 20330 0 250 248 242 .06187519345 -.0143349999999784 .03916
672080454895 18 250 20251 40 37 243 247 245 ?1 29 248 20704 0 249 255 245 -.0503
74803535676 -.0143349999999784 .0301667208045489 18 249 20641 251 253 252 0 248
 11e-8 1 29 255 20708 0 247 254 248 -.073374803535676 -.0143349999999784 .030166
7208045489 18 247 20647 257 260 250 259 255 11e-8 1 29 254 20709 0 259 256 255 -
.073374803535676 .022065 .0301667208045489 18 259 20645 258 261 247 265 254 ?1 2
9 256 20710 0 265 262 254 -.073374803535676 .022065 .03916672080454895 18 265 20
643 263 264 259 252 256 ?1 29 262 20711 0 252 0 256 -.073374803535676 -.01433499
99999784 .039166720804549 18 252 20637 267 269 265 249 262 ?1 81 1 267 20638 31
 252 0 0 270 263 266 17 269 0 268 274 275 252 238 272 0 273 -15 255 268 19445 0
 269 271 278 17 274 0 268 280 269 247 276 279 0 0 -17 275 0 268 269 277 239 281
 285 0 0 +17 238 0 51 52 273 239 269 272 0 283 +16 272 19573 282 ?238 284 286 29
0 0 0 1 17 273 0 51 238 264 252 288 287 0 276 -15 51 19740 0 289 291 0 17 264 0
 51 273 42 265 295 286 0 288 -17 288 0 292 293 276 265 273 287 0 294 +16 287 206
26 297 ?288 300 279 299 0 0 1 17 276 0 292 288 260 252 274 279 0 0 +15 292 20670
 0 276 296 0 17 260 0 292 276 293 247 298 301 0 302 +16 279 20623 304 ?276 287 0
 303 0 0 1 81 1 304 20625 31 279 0 0 305 297 306 133 255 303 20703 0 279 0 310 0
 +310 -.073374803535676 -.0143349999999784 .0301667208045489 -.073374803535676 -
.0143349999999784 .039166720804549 .002825 .01182500000000012 30 255 310 20702 0
 1 303 299 308 +-.073374803535676 -.0143349999999784 .0273417208045489 0 6648042
06362369e-31 1 30 299 20701 0 287 310 307 0 +-.073374803535676 .0109150000000216
 .039166720804549 0 1 -728015098114856e-30 141 255 308 303 308 308 310 30 307 20
700 0 300 299 309 0 +-.073374803535676 .022065 .0136482828629428 0 0 -1 16 300 2
0629 315 ?293 301 287 307 0 0 1 133 309 20699 0 301 307 311 0 +311 -.07337480353
5676 .022065 .0301667208045489 -.073374803535676 -.0143349999999784 .03016672080
45489 -.0057999999999784 .0306 16 301 20632 270 ?260 313 300 309 0 0 1 30 311 20
698 0 1 309 312 314 +-.073374803535676 .0162650000000216 .0301667208045489 0 -1
 0 30 312 20687 0 1 311 317 320 +-.073374803535676 -.0143349999999784 .030166720
8045489 1 0 0 141 314 309 314 314 311 30 317 20322 0 319 312 316 0 +.06187519345
 .0200650000000216 .0391667208045489 0 1 -728015098114856e-30 141 320 318 320 32
0 312 133 318 20715 0 313 321 325 0 +312 -.073374803535676 -.0143349999999784 .0
301667208045489 -.050374803535676 -.0143349999999784 .0301667208045489 0 .023 16
 313 20596 305 11e-8 280 319 301 318 0 0 1 133 321 20714 0 322 323 318 0 +324 -.
050374803535676 -.0143349999999784 .0301667208045489 -.015224803410676 -.0143349
999999784 .0301667208045489 199993750000377e-20 .0351520000625 133 325 20727 0 3
02 318 327 0 +327 -.050374803535676 -.0143349999999784 .0301667208045489 -.07337
4803535676 -.0143349999999784 .0301667208045489 0 1 17 302 0 329 298 253 247 280
 313 325 274 -137 327 20728 0 1 325 22 330 +326 328 0 ?133 22 20735 0 280 327 8
 0 +8 -.073374803535676 -.0143349999999784 .0301667208045489 -.050374803535676 -
.0143349999999784 .0301667208045489 0 1 141 330 325 330 330 327 50 326 17794 0 3
34 335 332 333 +.01172519345 .0185650000000216 .0301667208045489 0 0 -1 0 -1 0 1
34 255 328 0 0 0 0 0 0 +331 338 136 255 331 1 2 2 2 5 FFF1 340 336 339 135 255 3
38 1 0 45 255 4 340 .0329 .062099996985676 .0329 .085099996985676 127 255 2 336
 2 2 128 255 2 339 0 1 14 255 334 17687 337 ?341 345 329 6 326 +345 345 341 345
 30 50 335 19756 0 291 343 326 0 +.01172519345 .00786500000002159 .0391667208045
49 0 0 1 0 1 0 50 332 17793 0 342 326 344 346 +.02222519345 .00786500000002159 .
031166720804549 0 0 -1 -1 0 0 141 333 350 348 347 326 137 350 18765 0 1 349 351
 355 +326 352 0 ?141 348 327 353 333 326 141 347 354 333 357 326 137 354 17905 0
 1 360 359 356 +326 358 0 ?141 357 349 347 353 326 137 349 18761 0 1 361 350 362
 +326 364 0 ?141 353 363 357 348 326 137 363 19200 0 1 365 366 370 +326 368 0 ?1
33 365 19199 0 253 367 363 0 +363 -.015224803473176 -.0143349999999784 .03016672
08045489 -.050374803535676 -.0143349999999784 .0301667208045489 0 .9999431060110
38 133 366 19464 0 369 363 375 0 +371 -.00342480353567601 .0180647628875396 .039
166720804549 -.00342480353567601 .0180647628875396 .0301667208045489 -.00815 .00
0850000000000049 141 370 365 370 370 363 134 368 0 0 0 0 0 0 +373 372 136 373 1
 2 2 2 5 FFF1 374 377 380 135 372 1 0 45 4 374 .0329 .026949996923176 .0329 .062
101996923176 127 2 377 2 2 128 2 380 0 1 16 369 17354 379 ?125 376 378 366 0 0 1
 133 375 20124 0 228 366 381 0 +350 .06187519345 -.0143349999999784 .03016672080
45489 .02672519341875 -.0143349999999784 .0301667208045489 .3955495939544485 1 3
0 371 17868 0 1 385 382 383 +-.00342480353567601 .0180647628875396 .031016720804
54895 0 0 -1 30 385 17869 0 1 384 371 387 +-.00342480353567601 .0128650000000216
 .0301667208045489 0 1 0 30 382 17867 0 389 371 390 0 +.01492519345 .01806476288
75396 .03101672080454895 1960139520877735e-31 0 -1 141 383 366 383 383 371 16 38
9 17463 386 ?121 388 394 382 0 0 1 30 390 17862 0 395 382 392 0 +-.0051748035356
7601 .1089688474635766 .037266720804549 0 -1 664804206362369e-31 16 395 17502 39
3 ?134 391 398 390 0 0 1 30 392 17861 0 400 390 396 0 +-.013474803535676 .108968
8474635766 .037266720804549 0 -1 664804206362369e-31 16 400 17481 399 ?127 397 4
01 392 0 0 1 30 396 17860 0 398 392 405 0 +.01667519345 .00786500000002159 .0372
66720804549 0 1 0 16 398 17499 403 ?402 395 404 396 0 0 1 30 405 17859 0 404 396
 406 0 +.02497519345 .00786500000002159 .0372667208045489 0 1 0 16 404 17496 410
 ?408 398 407 405 0 0 1 30 406 17858 0 1 405 409 411 +.005750194957162 .022065 .
0301667208045489 1 0 0 30 409 17856 0 1 406 415 412 +.01667519345 .022065 .01583
33604022745 0 0 -1 141 411 413 414 414 406 133 413 17843 0 417 420 419 0 +406 -.
073374803535676 .022065 .0301667208045489 -.012224803535676 .022065 .03016672080
45489 -.079124998492838 -.017974998492838 141 414 416 411 411 406 133 416 17806
 0 418 421 422 0 +406 .00612519345 .022065 .0301667208045489 .026725193434375 .0
22065 .0301667208045489 .0003749984928380035 .020974998477213 16 418 17348 424 ?
423 417 425 416 0 0 1 30 421 17807 0 1 426 416 430 +.00575019495716199 .01806476
28875396 .0301667208045489 1 0 0 133 422 17805 0 376 416 428 0 +421 .00612519345
 .0180647628875396 .0301667208045489 .01492519345 .0180647628875396 .03016672080
45489 .0003749984928380045 .009174998492838 16 376 17370 427 ?429 435 369 422 0
 0 1 133 428 17804 0 431 422 433 0 +432 -.00342480353567601 .0180647628875396 .0
301667208045489 -.012224803535676 .0180647628875396 .0301667208045489 .000374998
4928380045 .00917499849283801 16 431 17357 434 ?437 440 439 428 0 0 1 31 255 433
 14655 0 440 428 436 0 +-.00822480353567601 .0180647628875396 .0261667208045489
 0 -1 0 0 0 -1 .00225 30 432 17910 0 1 438 360 441 +-.003049805042838005 .018064
7628875396 .0301667208045489 -1 0 0 30 438 17911 0 378 445 432 0 +.00612519345 .
1322671707200184 .0301667208045489 0 1 0 30 360 17909 0 1 432 354 442 +-.0122248
03535676 .1322671707200184 .0301667208045489 0 1 0 141 441 428 441 441 432 141 4
42 445 442 442 360 133 445 17912 0 443 444 438 0 +360 -.012224803535676 .0180647
628875396 .0301667208045489 -.012224803535676 .022065 .0301667208045489 -.114202
407832479 -.1102021707200184 16 443 17545 447 ?449 378 450 445 0 0 1 30 444 1791
6 0 1 446 445 448 +-.012224803535676 .0180647628875396 .0301687208045489 0 0 -1
 30 446 17918 0 1 454 444 455 +-.012224803535676 .022065 .0301687208045489 0 0 -
1 141 448 452 448 448 444 133 452 17986 0 450 453 451 0 +444 -.012224803535676 .
0180647628875396 .0301667208045489 -.012224803535676 .0180647628875396 .02916672
08045489 199999999999853e-20 .001002 16 450 17362 458 11e-8 222 443 460 452 0 0
 1 133 453 17982 0 460 456 452 0 +446 -.012224803535676 .022065 .030166720804548
9 -.012224803535676 .022065 .0291667208045489 199999999999853e-20 .001002 133 45
1 17987 0 459 452 457 0 +461 -.012224803535676 .0180647628875396 556500646346075
e-33 -.012224803535676 .0180647628875396 .0291667208045489 1999999999999085e-21
 .0291687208045489 16 459 14074 465 11e-8 463 462 464 451 0 0 1 133 457 17993 0
 466 451 470 0 +470 -.012224803535676 .022065 .0291667208045489 -.01222480353567
6 .022065 .0301667208045489 0 .99800399201597 30 461 14179 0 1 468 467 469 +-.01
2224803535676 .0180647628875396 -199999999999853e-20 0 0 1 30 468 14180 0 1 471
 461 475 +-.012224803535676 .022065 -199999999999853e-20 0 0 1 137 467 14178 0 1
 461 472 473 +474 477 0 ?141 469 451 469 469 461 133 472 14170 0 463 467 480 0 +
467 -.012224803535676 .0180647628875396 3710004308973835e-34 -.012224803535676 .
0180647628875396 .0291667208045489 662938283978331e-19 .966853085801065 141 473
 472 473 473 467 50 474 14132 0 479 476 478 481 +-.012224803535676 .020064881443
7698 -199999999999853e-20 1 0 0 0 0 -1 134 477 0 0 0 0 0 0 +482 484 136 482 1 2
 2 2 5 FFF1 483 485 486 135 484 1 0 45 4 483 0 -.0020001185562302 -.030168720804
5489 -.0020001185562302 127 2 485 2 2 128 2 486 0 1 14 479 14120 490 ?345 488 48
7 6 474 -0 0 345 488 30 50 476 14137 0 488 489 474 0 +.00612519345 .020064881443
7698 -199999999999853e-20 1 0 0 0 0 -1 50 478 8704 0 495 474 20 0 +-.0028 .006 0
 0 0 1 1 0 0 141 481 467 491 493 474 141 491 492 493 481 474 141 493 494 481 491
 474 137 494 18008 0 1 497 500 499 +474 496 0 ?133 497 18007 0 498 501 494 0 +49
4 -.012224803535676 .0180647628875396 .0291667208045489 -.012224803535676 .01806
47628875396 .0301667208045489 0 .99800399201597 133 500 18009 0 217 494 492 0 +4
92 -.012224803535676 .022065 .0301667208045489 -.012224803535676 .022065 .029166
7208045489 .00199600798403048 1 141 499 497 499 499 494 134 496 0 0 0 0 0 0 +505
 502 136 505 1 2 2 2 5 FFF1 503 504 507 135 502 1 0 45 4 503 -.0291687208045489
 -.00200011855623018 -.0301707208045489 -.00200011855623018 127 2 504 2 2 128 2
 507 0 1 17 217 0 487 509 449 220 466 460 500 510 +137 492 18010 0 1 500 361 506
 +474 508 0 ?137 361 18754 0 1 492 349 514 +515 512 0 ?141 506 500 506 506 492 1
34 508 0 0 0 0 0 0 +513 511 136 513 1 2 2 2 5 FFF1 518 520 516 135 511 1 0 45 4
 518 -.0301707208045489 .002000118556230215 -.0291687208045489 .0020001185562302
15 127 2 520 2 2 128 2 516 0 1 141 514 381 514 514 361 50 515 17780 0 519 517 24
 521 +.01172519345 -.0143349999999784 .0231667208045489 0 -1 664804206362369e-31
 0 664804206362369e-31 1 134 512 0 0 0 0 0 0 +525 523 136 525 1 2 2 2 5 FFF1 522
 524 526 135 523 1 0 45 4 522 .007 -.01499999996875 .007 -.073152 127 2 524 2 2
 128 2 526 0 1 14 519 17748 530 ?528 271 527 6 515 +0 0 528 271 30 50 517 17781
 0 529 531 515 0 +.01302519345 .00786500000002159 .037266720804549 0 0 1 1 0 0 5
0 24 17779 0 271 515 535 532 +.01172519345 -.0143349999999784 .0231667208045489
 0 -1 664804206362369e-31 0 664804206362369e-31 1 141 521 361 521 521 515 14 271
 17743 533 ?519 534 268 6 24 +0 0 519 534 30 50 535 14645 0 537 24 540 0 +-.0059
7480353567601 .0872100003380393 .01508336040227445 -1 0 0 0 0 1 141 532 367 539
 539 24 137 367 19194 0 1 536 365 538 +24 541 0 ?141 539 8 532 532 24 133 536 19
193 0 542 351 367 0 +367 -.050374803535676 -.0143349999999784 .0301667208045489
 -.015224803473176 -.0143349999999784 .0301667208045489 568939889623284e-19 1 14
1 538 536 538 538 367 134 541 0 0 0 0 0 0 +544 543 136 544 1 2 2 2 5 FFF1 545 54
6 550 135 543 1 0 45 4 545 .007 .062101996923176 .007 .026949996923176 127 2 546
 2 2 128 2 550 0 1 17 542 0 268 277 280 146 253 322 536 0 +137 351 18771 0 1 350
 536 548 +20 547 0 ?141 548 549 548 548 351 50 20 4977 0 17 478 7 555 +-.0088 .0
22065 5e-4 0 -1 0 0 0 -1 134 547 0 0 0 0 0 0 +551 553 136 551 1 2 2 2 5 FFF1 552
 554 557 135 553 1 0 45 4 552 -.0296667208045489 .09367719348125 -.0296667208045
489 .03552519345 127 2 554 2 2 128 2 557 0 1 14 17 4958 560 ?291 0 559 6 20 -0 0
 291 0 30 141 555 470 556 556 20 137 470 17994 0 1 457 558 561 +20 565 0 ?141 55
6 351 555 555 20 133 558 18001 0 222 470 501 0 +501 -.012224803535676 .018064762
8875396 .0301667208045489 -.012224803535676 .0180647628875396 .0291667208045489
 .00199600798403048 1 141 561 457 561 561 470 134 565 0 0 0 0 0 0 +562 563 136 5
62 1 2 2 2 5 FFF1 564 567 569 135 563 1 0 45 4 564 -.0286667208045489 -.00342480
3535676015 -.0296687208045489 -.003424803535676015 127 2 567 2 2 128 2 569 0 1 1
7 222 0 570 566 437 221 498 450 558 463 +137 501 18002 0 1 558 497 568 +7 574 0
 ?141 568 558 568 568 501 134 574 0 0 0 0 0 0 +575 572 136 575 1 2 2 2 5 FFF1 57
3 571 578 135 572 1 0 45 4 573 -.00402519 .0271687208045489 -.00402519 .02616672
08045489 127 2 571 2 2 128 2 578 0 1 15 570 16931 0 580 19 0 17 566 0 570 79 222
 66 463 459 576 0 -17 437 0 570 222 125 104 579 431 0 498 +17 498 0 487 449 463
 104 222 450 497 0 -17 463 0 487 498 577 221 566 459 472 0 +15 487 16910 0 463 4
79 0 17 577 0 487 463 509 66 581 462 0 566 +17 509 0 487 577 217 75 510 464 0 0
 -17 581 0 585 81 67 75 577 462 0 509 -16 462 14071 583 ?577 582 459 480 0 0 1 8
1 1 583 17236 31 462 0 0 584 586 590 16 582 13946 588 ?115 587 462 589 0 0 1 133
 480 14168 0 462 472 591 0 +591 -.012224803535676 .022065 0 -.012224803535676 .0
180647628875396 0 -.0020001185562302 .0020001185562302 30 591 14167 0 1 480 595
 592 +-.012224803535676 .0200648814437698 0 0 -1 0 133 595 8760 0 593 591 594 0
 +594 -.012224803535676 .022065 0 .00612519345 .022065 0 -.00942480353567601 .00
892519345 141 592 480 592 592 591 16 593 8620 597 ?81 600 599 595 0 0 1 30 594 8
759 0 1 595 596 598 +-.0028 .022065 0 1 0 0 133 596 14253 0 599 594 601 0 +601 .
00612519345 .0180647628875396 0 -.012224803535676 .0180647628875396 0 -.01432480
6985676 .00402519 141 598 595 598 598 594 16 599 8617 586 ?67 593 602 596 0 0 1
 30 601 14254 0 1 596 576 604 +-.00819961353567601 .0180647628875396 0 -1 0 0 13
3 576 14325 0 566 601 603 0 +603 -.012224803535676 .0180647628875396 .0291667208
045489 -.012224803535676 .0180647628875396 867361737988404e-33 .0331469141989346
5 .999933706171602 141 604 596 604 604 601 137 603 14326 0 1 576 605 606 +7 610
 0 ?30 605 14459 0 600 603 608 0 +-.00597480353567601 .022065 5e-4 0 0 -1 141 60
6 576 606 606 603 134 610 0 0 0 0 0 0 +607 609 136 607 1 2 2 2 5 FFF1 615 611 61
3 135 609 1 0 45 4 615 -.00402519 .0271667208045489 -.00402519 -.003002 127 2 61
1 2 2 128 2 613 0 1 16 600 14457 612 ?95 614 593 605 0 0 1 31 608 14463 0 614 60
5 617 0 +-.00822480353567601 .022065 .004 0 -1 0 0 0 -1 .00225 16 614 14461 620
 ?619 28 600 608 0 0 1 30 617 14467 0 28 608 34 0 +-.010474803535676 .022065 5e-
4 117387016190109e-30 0 -1 16 28 14465 616 ?618 11 614 617 0 0 1 31 34 14470 0 1
1 617 456 0 +-.00822480353567601 .022065 .0261667208045489 0 -1 0 0 0 -1 .00225
 133 456 16896 0 464 34 453 0 +468 -.012224803535676 .022065 0 -.012224803535676
 .022065 .0291667208045489 199999999999853e-20 .0291687208045489 16 464 14068 62
1 ?510 459 625 456 0 0 1 81 1 621 17258 31 464 0 0 465 622 623 17 510 0 624 466
 72 220 509 464 0 0 +16 625 14541 627 ?102 464 629 630 0 0 1 81 1 627 17249 31 6
25 0 0 626 628 634 17 102 0 635 632 83 101 633 625 0 631 +16 629 14547 628 ?98 6
25 638 640 0 0 1 30 630 14648 0 625 636 639 0 +-.01047480353567602 .087210000338
0393 .0261667208045489 0 -1 0 30 636 14649 0 637 640 630 0 +-.00597480353567601
 .0872100003380393 .0261667208045489 0 -1 0 30 639 14207 0 587 630 589 0 +.00612
519345 .022065 -199999999999853e-20 0 0 1 16 587 13928 641 ?117 602 582 639 0 0
 1 30 589 14206 0 582 639 471 0 +.00612519345 .0180647628875396 -199999999999853
e-20 0 0 1 30 471 14192 0 602 589 468 0 +.00612519345 .0200648814437698 0 0 -1 0
 16 602 13922 584 ?645 599 587 471 0 0 1 81 1 584 17235 31 602 0 0 91 583 643 17
 645 0 585 67 81 65 642 602 0 644 +15 585 8690 0 67 495 0 17 67 0 585 581 645 66
 79 599 0 577 +17 81 0 585 645 581 69 72 593 0 642 +17 642 0 646 117 644 69 645
 602 0 650 -17 644 0 646 642 648 65 115 582 0 0 -15 646 14004 0 117 488 0 17 648
 0 646 644 117 107 647 378 0 0 -17 115 0 570 429 79 107 644 582 0 649 +17 429 0
 570 580 115 119 649 376 0 651 +17 79 0 570 115 566 65 67 599 0 645 -17 649 0 65
5 647 651 107 429 376 0 648 -15 655 20151 0 652 345 0 17 647 0 655 423 649 112 6
48 378 0 653 +17 651 0 655 649 654 119 160 657 0 0 +17 654 0 655 651 228 143 660
 439 0 659 -17 160 0 656 658 121 143 651 657 0 654 -16 657 17351 661 ?651 662 66
4 384 0 0 1 81 1 661 17353 31 657 0 0 663 458 665 16 662 17448 666 11e-8 670 668
 657 667 0 0 1 16 664 17403 669 ?152 657 417 675 0 0 1 30 384 17870 0 657 671 38
5 0 +.01492519345 .0128650000000216 .0301667208045489 0 1 0 133 671 17871 0 394
 673 384 0 +385 -.00342480353567601 -.004334999999978405 .0301667208045489 -.003
42480353567601 .0180647628875396 .0301667208045489 -.0172 .00519976288751801 16
 394 17460 672 ?674 389 677 671 0 0 1 30 673 17872 0 680 679 671 0 +-.0051748035
3567601 .1089688474635766 .031166720804549 0 -1 664804206362369e-31 16 680 17487
 676 ?136 678 397 673 0 0 1 30 679 17873 0 681 685 673 0 +-.013474803535676 .108
9688474635766 .031166720804549 0 -1 664804206362369e-31 16 681 17472 682 ?142 68
3 684 679 0 0 1 30 685 17874 0 1 687 679 689 +.01667519345 .025065 .031166720804
549 0 -1 0 30 687 17875 0 678 690 685 0 +.02497519345 .00786500000002159 .031166
720804549 0 1 0 141 689 686 689 689 685 133 686 17887 0 407 688 694 0 +685 .0166
7519345 .022065 .031166720804549 .01667519345 .020065 .031166720804549 .003 .005
 16 407 17493 695 11e-8 207 404 678 686 0 0 1 133 688 17888 0 677 667 686 0 +692
 -.00342480353567601 -.0143349999999784 .0301667208045489 -.00342480353567601 -.
004334999999978405 .0301667208045489 0 .01 133 694 17884 0 693 686 691 0 +698 .0
1667519345 .020065 .031166720804549 .01667519345 .022065 .031166720804549 0 .4 1
7 693 0 700 696 699 187 207 407 694 0 -133 691 17883 0 207 694 698 0 +697 .01667
519345 .022065 .031166720804549 .01667519345 .020065 .031166720804549 .6 1 137 6
98 17880 0 1 691 697 701 +705 703 0 ?137 697 17879 0 1 698 702 704 +332 706 0 ?1
41 701 694 701 701 698 50 705 17789 0 341 344 710 708 +.01667519345 .00786500000
002159 .031166720804549 -1 0 0 0 0 1 134 703 0 0 0 0 0 0 +707 709 136 707 1 2 2
 2 5 FFF1 711 715 712 135 709 1 0 45 4 711 0 .0121999999999784 0 .01719999999997
84 127 2 715 2 2 128 2 712 0 1 14 341 17703 713 ?714 334 700 6 705 -0 0 714 334
 30 50 344 17790 0 717 332 705 0 +.02497519345 .00786500000002159 .0383667208045
489 1 0 0 0 0 -1 50 710 17788 0 720 705 719 0 +.01492519345 .0128650000000216 .0
3101672080454895 1 1303108998536638e-47 1960139520877735e-31 196013952087774e-30
 0 -1 141 708 698 716 716 705 141 716 718 708 708 705 137 718 17895 0 1 721 722
 724 +705 723 0 ?133 721 17896 0 725 726 718 0 +726 .01667519345 -.0043349999999
7841 .031166720804549 .01667519345 -.0143349999999784 .031166720804549 0 1 133 7
22 17894 0 670 718 730 0 +718 .01667519345 -.0143349999999784 .031166720804549 .
01667519345 -.00433499999997841 .031166720804549 0 1 141 724 722 724 724 718 134
 723 0 0 0 0 0 0 +728 727 136 728 1 2 2 2 5 FFF1 729 735 731 135 727 1 0 45 4 72
9 0 -.0222 0 -.0122 127 2 735 2 2 128 2 731 0 1 17 670 0 700 699 733 164 725 662
 722 0 +137 730 17893 0 1 722 732 734 +719 737 0 ?133 732 17892 0 740 730 667 0
 +730 -.00342480353567601 -.0143349999999784 .0301667208045489 -.003424803535676
01 -.0043349999999784 .0301667208045489 0 1 141 734 732 734 734 730 50 719 17787
 0 739 710 736 738 +-.00342480353567601 .0128650000000216 .03101672080454895 1 0
 0 0 0 -1 134 737 0 0 0 0 0 0 +741 745 136 741 1 2 2 2 5 FFF1 742 743 744 135 74
5 1 0 45 4 742 .000850000000000049 -.0272 .000850000000000049 -.0172 127 2 743 2
 2 128 2 744 0 1 14 739 17707 747 ?720 19 749 6 719 +0 0 720 19 30 50 736 17786
 0 750 719 746 0 +-.013474803535676 .1089688474635766 .034766720804549 -1 0 0 0
 0 1 141 738 730 738 738 719 14 750 17719 748 ?754 714 755 6 736 -0 0 754 714 30
 50 746 17785 0 714 736 752 0 +-.00932480353567601 .1089688474635766 .0311667208
04549 0 -664804206362369e-31 -1 0 1 -664804206362369e-31 14 714 17715 753 ?750 3
41 751 6 746 -0 0 750 341 30 50 752 17784 0 754 746 531 0 +-.00517480353567601 .
1089688474635766 .034766720804549 -1 0 0 0 0 1 14 754 17723 758 ?342 750 760 6 7
52 +0 0 342 750 30 50 531 17782 0 534 752 517 0 +-.00932480353567601 .1089688474
635766 .037266720804549 0 -664804206362369e-31 -1 0 1 -664804206362369e-31 14 53
4 17739 756 ?271 529 759 6 531 +0 0 271 529 30 81 1 756 20778 757 534 761 0 765
 533 763 14 529 17735 765 ?534 717 762 6 517 -0 0 534 717 30 15 759 17742 0 764
 534 0 13 30 17175 0 0 0 0 0 0 10 17 17 764 0 759 134 766 180 174 770 0 768 -17
 134 0 759 767 764 131 768 395 0 769 +17 766 0 759 764 767 175 127 400 0 0 -17 1
74 0 771 178 206 175 764 770 0 775 +16 770 17379 772 ?174 773 435 774 0 0 1 17 7
68 0 760 777 780 180 134 395 0 0 -15 760 17726 0 777 754 0 17 777 0 760 136 768
 181 206 435 0 779 -17 780 0 760 768 136 131 776 778 0 0 -17 136 0 760 780 777 1
29 779 680 0 776 +17 776 0 278 781 769 129 780 778 0 782 +16 778 17508 784 ?776
 285 391 783 0 0 1 81 1 784 17510 31 778 0 0 785 786 790 16 285 17511 788 ?275 7
87 778 789 0 0 1 16 391 17505 785 ?769 778 395 795 0 0 1 30 783 17820 0 778 791
 795 0 +-.00517480353567601 -.0143349999999784 .034766720804549 0 -6648042063623
69e-31 -1 30 791 17821 0 683 675 783 0 +-.00932480353567601 -.0143349999999784 .
031166720804549 1 0 0 30 795 17819 0 391 783 426 0 +-.00932480353567601 -.014334
9999999784 .037266720804549 1 0 0 30 426 17818 0 397 795 421 0 +-.01347480353567
6 -.0143349999999784 .034766720804549 0 -664804206362369e-31 -1 16 397 17484 793
 ?792 680 400 426 0 0 1 81 1 793 17486 31 397 0 0 399 676 794 17 792 0 755 797 1
27 135 800 397 0 781 +15 755 17722 0 797 750 0 17 797 0 755 775 792 177 142 681
 0 0 -17 127 0 755 792 775 126 766 400 0 767 +17 800 0 278 769 781 126 792 397 0
 0 -17 781 0 278 800 776 135 782 683 0 0 -15 278 17746 0 800 271 0 17 782 0 751
 779 142 129 781 683 0 0 +16 683 17475 799 ?782 401 681 791 0 0 1 81 1 799 17477
 31 683 0 0 682 796 798 16 401 17478 796 ?775 400 683 801 0 0 1 81 1 796 17480 3
1 401 0 0 799 399 805 17 775 0 755 127 797 175 178 401 0 766 +30 801 17853 0 401
 415 802 0 +-.01347480353567602 .022065 .01993212290227445 0 0 1 30 415 17855 0
 1 409 801 803 +.011112596725 .022065 .031166720804549 1 0 0 30 802 17852 0 684
 801 804 0 +.00575046995716199 .022065 .031166720804549 -1 0 0 16 684 17469 807
 ?809 681 388 802 0 0 1 30 804 17850 0 435 802 774 0 +-.00517480353567601 .02206
5 .01993212290227445 0 0 1 16 435 17376 810 ?206 770 376 804 0 0 1 30 774 17849
 0 770 804 806 0 +.00575046995716199 .022065 .037266720804549 -1 0 0 30 806 1784
8 0 773 774 808 0 +.006512596725 .022065 .037266720804549 -1 0 144811698864151e-
29 16 773 17382 814 ?188 815 770 806 0 0 1 30 808 17847 0 425 806 812 0 +.024975
19345 .022065 .0194333604022745 -616790569236199e-30 0 1 16 425 17391 813 ?212 4
18 811 808 0 0 1 133 812 17846 0 811 808 420 0 +415 .01667519345 .022065 .031166
720804549 .02497519345 .022065 .031166720804549 .005562596725 .013862596725 16 8
11 17388 818 ?197 425 815 812 0 0 1 133 420 17845 0 815 812 413 0 +409 .01667519
345 .022065 .037266720804549 .01667519345 .022065 .031166720804549 -.02143336040
22745 -.0153333604022745 16 815 17385 820 ?191 811 773 420 0 0 1 81 1 820 17387
 31 815 0 0 814 818 816 17 191 0 559 197 188 187 696 815 0 819 +15 559 17685 0 1
88 17 771 17 197 0 559 212 191 193 819 811 0 817 +17 188 0 559 191 212 185 821 7
73 0 696 +17 696 0 700 157 693 185 191 815 0 402 -17 819 0 825 207 823 187 197 8
11 0 693 -15 825 17730 0 823 342 0 17 207 0 825 202 819 138 693 407 691 699 +17
 823 0 825 819 822 193 162 678 0 0 +17 822 0 825 823 725 161 171 824 0 0 -17 162
 0 826 830 817 161 823 678 0 828 -16 678 17490 827 ?823 407 680 687 0 0 1 81 1 8
27 17492 31 678 0 0 676 695 829 80 7 CCCCCDI12 legal_owners0 17 1 lCZ1 31 831 83
5 9000 0 0 0 0 3 6 0 0 0 FFTFTFTTFFFFFFFFF1 81 1 676 17489 31 680 0 0 793 827 83
2 81 1 695 17495 31 407 0 0 827 410 833 82 255 3 829 117 3 1 81 1 410 17498 31 4
04 0 0 695 403 834 82 3 833 89 13 1 81 1 403 17501 31 398 0 0 410 393 837 82 3 8
34 117 7 1 81 1 393 17504 31 395 0 0 403 785 840 82 3 837 117 8 1 81 1 785 17507
 31 391 0 0 393 784 839 82 3 840 117 10 1 82 3 839 116 30 1 82 3 832 117 5 1 79
 255 9 835 BTI/DetId15 826 17734 0 408 717 0 17 830 0 826 408 162 137 828 836 0
 838 -17 817 0 826 162 408 193 212 425 0 823 -17 828 0 841 171 838 161 830 836 0
 822 +15 841 17751 0 838 519 0 17 171 0 841 842 828 122 822 824 0 725 +17 838 0
 841 828 842 137 844 787 0 0 +16 836 17517 843 ?828 824 787 845 0 0 1 81 1 843 1
7519 31 836 0 0 786 846 850 16 824 17520 846 ?171 848 836 847 0 0 1 16 787 17514
 786 ?838 836 285 849 0 0 1 30 845 17838 0 836 849 847 0 +.02497519345 -.0143349
999999784 .0307667208045489 616790569236199e-30 -664804206362369e-31 -1 30 849 1
7839 0 787 419 845 0 +.01237519345 -.0143349999999784 .037266720804549 1 -962714
265353682e-46 -144811698864151e-29 133 847 17837 0 824 845 855 0 +855 .024975193
45 -.0143349999999784 .031166720804549 .01667519345 -.0143349999999784 .03116672
0804549 -.008 .000300000000000005 30 855 17836 0 1 847 851 853 +.01697519345 -.0
143349999999784 .031166720804549 -1 0 0 133 851 17835 0 848 855 852 0 +852 .0166
7519345 -.0143349999999784 .031166720804549 .01667519345 -.0143349999999784 .037
266720804549 .0040000000000001 .0101 141 853 847 853 853 855 16 848 17523 854 ?8
42 439 824 851 0 0 1 30 852 17834 0 1 851 857 860 +.01667519345 -.01433499999997
84 .0271667208045489 0 664804206362369e-31 1 30 857 17832 0 388 852 859 0 +.0149
2519345 -.0143349999999784 .03101672080454895 -1960139520877735e-31 664804206362
369e-31 1 141 860 851 860 860 852 16 388 17466 856 ?658 684 389 857 0 0 1 133 85
9 17831 0 439 857 858 0 +858 .01492519345 -.0143349999999784 .0301667208045489 .
0267251933875 -.0143349999999784 .0301667208045489 .015175 .02697499993750005 16
 439 17527 861 ?660 431 848 859 0 0 1 30 858 17830 0 1 859 692 865 +-.0002498065
500000505 -.0143349999999784 .0301667208045489 1 0 0 30 692 17828 0 1 858 862 86
3 +-.00342480353567601 -.0143349999999784 .0301667208045489 0 1 -664804206362369
e-31 141 865 859 865 865 858 30 862 17827 0 1 692 789 864 +-.00342480353567601 -
.0143349999999784 .03101672080454895 0 664804206362369e-31 1 141 863 688 863 863
 692 133 789 17826 0 285 862 867 0 +862 -.00342480353567601 -.0143349999999784 .
0301667208045489 -.00342480353567601 -.0143349999999784 .039166720804549 -.00085
0000000000049 .00815 141 864 789 864 864 862 30 867 17825 0 1 789 675 869 +-.000
2498065500000505 -.0143349999999784 .0301667208045489 -1 0 0 133 675 17824 0 664
 867 791 0 +867 -.00342480353567601 -.0143349999999784 .0301667208045489 -.01522
4803410676 -.0143349999999784 .0301667208045489 .00317499698567596 .014974996860
67596 141 869 675 869 869 867 81 1 861 17529 31 439 0 0 854 870 866 17 660 0 527
 868 659 224 654 439 0 0 +15 527 20133 0 874 519 841 17 868 0 527 874 660 243 22
8 875 381 0 -17 659 0 527 660 872 143 658 388 0 0 -17 872 0 527 659 874 232 289
 873 0 658 -17 658 0 656 57 160 232 659 388 0 0 +15 656 19455 0 57 720 0 17 57 0
 656 121 658 33 55 871 0 580 -17 121 0 656 160 57 119 580 389 0 429 +17 55 0 51
 289 46 232 57 871 0 872 +16 871 19603 878 ?55 873 54 880 0 0 1 17 580 0 570 53
 429 33 121 389 0 0 -17 53 0 570 125 580 237 46 54 0 876 +17 125 0 570 437 53 12
0 876 369 0 579 +16 54 19638 879 ?53 871 284 877 0 0 1 17 876 0 749 283 674 237
 125 369 0 0 -15 749 17710 0 876 739 0 17 283 0 749 281 876 239 52 284 0 275 +17
 674 0 749 876 740 120 198 394 0 0 +17 740 0 749 674 281 148 150 677 732 0 +17 1
98 0 329 150 579 148 674 394 0 740 -15 329 17690 0 579 334 0 17 150 0 329 152 19
8 144 740 677 359 281 -17 579 0 329 198 108 120 437 431 0 674 -17 108 0 329 579
 218 104 449 443 0 437 -17 218 0 329 108 298 208 261 417 0 449 +17 449 0 487 217
 498 208 108 443 0 466 +17 466 0 624 261 510 208 217 460 457 0 -15 624 20157 0 4
5 17 0 17 261 0 624 294 466 259 218 417 0 293 -16 460 17550 870 11e-8 217 450 88
1 453 0 0 1 81 1 870 17552 31 460 0 0 861 118 885 16 881 18601 883 11e-8 235 460
 875 323 0 0 1 81 1 883 20397 31 881 0 0 882 884 886 17 235 0 624 653 45 227 890
 881 549 423 +16 875 18585 884 11e-8 228 881 322 888 0 0 1 133 323 20388 0 881 8
88 321 0 +454 .06187519345 .022065 .0301667208045489 .02672519345 .022065 .03016
67208045489 .02300200003125 .05815200003125 133 888 20387 0 875 887 323 0 +889 .
06187519345 -.0143349999999784 .0301667208045489 .02672519341875 -.0143349999999
784 .0301667208045489 .023002 .05815200003125 30 454 18671 0 1 889 446 891 +.084
87719348125 .022065 .0301667208045489 -1 0 0 30 889 18673 0 1 324 454 895 +.0848
7719345 -.0143349999999784 .0301667208045489 -1 0 0 141 891 323 891 891 454 30 3
24 19119 0 1 892 889 893 +-.050376803473176 -.0143349999999784 .0301667208045489
 1 0 0 141 895 888 895 895 889 30 892 19774 0 873 880 324 0 +.01172519345 -.0143
349999999784 .039166720804549 1 0 0 141 893 321 893 893 324 16 873 19613 894 ?28
9 322 871 892 0 0 1 30 880 19775 0 871 877 892 0 +.01492519345 .0128650000000216
 .039166720804549 0 -1 664804206362369e-31 30 877 19776 0 54 897 880 0 +.0117251
9345 .0180647628875396 .039166720804549 -1 0 0 30 897 19777 0 284 290 877 0 +-.0
0342480353567601 .0128650000000216 .039166720804549 0 -1 664804206362369e-31 16
 284 19643 900 ?283 54 272 897 0 0 1 30 290 19778 0 272 899 897 0 +.01172519345
 -.0143349999999784 .039166720804549 1 0 0 30 899 19780 0 286 896 290 0 +.011725
19345 .022065 .0391667208045489 1 0 0 16 286 19633 898 ?295 272 43 899 0 0 1 30
 896 20316 0 1 901 899 902 +.06187519345 .022065 .0120833604022745 0 0 1 133 901
 20317 0 43 904 896 0 +896 .06187519345 .022065 .0301667208045489 .06187519345 .
022065 .0391667208045489 .0180833604022744 .0270833604022744 141 902 901 902 902
 896 16 43 20217 882 ?32 286 903 901 0 0 1 30 904 20318 0 1 905 901 906 +.061875
19345 .0200000002980232 .0301667208045489 0 1 0 133 905 20319 0 903 910 904 0 +9
04 .06187519345 -.0143349999999784 .0301667208045489 .06187519345 .022065 .03016
67208045489 -.0343350002980016 .0020649997019768 141 906 905 906 906 904 16 903
 20207 908 ?41 43 907 905 0 0 1 30 910 20320 0 1 316 905 909 +.06187519345 -.014
3349999999784 .039866720804549 0 -664804206362369e-31 -1 133 316 20321 0 907 317
 910 0 +910 .06187519345 -.0143349999999784 .03916672080454895 .06187519345 -.01
43349999999784 .0301667208045489 .000700000000000069 .0097 141 909 316 909 909 9
10 16 907 20197 915 ?246 903 319 316 0 0 1 81 1 915 20395 31 907 0 0 911 882 913
 17 246 0 39 41 37 243 874 907 0 652 +16 319 20227 911 ?42 907 313 317 0 0 1 81
 1 911 20394 31 319 0 0 908 915 912 17 42 0 51 264 289 12 37 319 0 295 +17 289 0
 51 42 55 250 872 873 0 0 +17 37 0 39 246 32 250 42 319 0 874 -17 295 0 624 45 2
94 12 264 286 0 0 +17 45 0 624 235 295 241 32 43 0 890 -17 294 0 624 295 261 265
 293 300 0 0 -17 293 0 292 260 288 259 294 300 0 298 +17 298 0 329 218 302 259 2
60 301 0 0 -17 890 0 655 652 423 241 235 881 887 0 -17 652 0 655 228 890 243 41
 903 0 868 -17 423 0 655 890 647 227 653 418 0 0 +133 887 20143 0 890 549 888 0
 +349 .02672519345 .022065 .0301667208045489 .06187519345 .022065 .0301667208045
489 0 .604450405508167 133 549 20142 0 235 381 887 0 +351 .06187519345 .022065 .
0301667208045489 .02672519345 .022065 .0301667208045489 .395549594491833 1 133 3
81 20125 0 868 375 549 0 +361 .02672519341875 -.0143349999999784 .03016672080454
89 .06187519345 -.0143349999999784 .0301667208045489 0 .604450406045552 17 653 0
 624 650 235 112 423 418 0 0 -17 650 0 624 72 653 69 117 587 0 0 -17 72 0 624 51
0 650 75 81 593 0 581 -17 117 0 646 648 642 112 650 587 0 647 +17 228 0 655 654
 652 224 868 875 375 660 +17 41 0 39 32 246 241 652 903 0 45 +15 39 20282 0 37 5
28 0 14 528 20279 914 ?296 519 39 6 343 +0 0 296 519 30 81 1 914 20781 757 528 9
17 0 530 920 919 14 296 20667 920 ?0 528 292 6 916 +0 0 0 528 30 50 343 20294 0
 528 916 335 0 +.06187519345 .0038650001562608 .0356664578626072 1 0 0 0 1 0 50
 916 20682 0 296 0 343 0 +-.073374803535676 .003864737500010795 .035666457862607
2 -1 0 0 0 -1 0 81 1 920 20782 757 296 918 0 914 0 921 80 1 757 0 925 8001 0 0 0
 0 3 5 0 0 0 FFFFTFTFFFFFFFFFF2 81 1 918 20669 31 296 0 920 257 922 923 83 255 3
 921 .627450980392157 .627450980392157 .627450980392157 81 1 257 20648 31 247 0
 0 258 918 924 81 1 922 20745 31 1 0 927 918 251 929 82 3 923 141 5 2 81 1 927 2
0754 930 1 922 14 0 0 926 81 1 251 20746 31 249 0 0 922 928 934 82 3 929 125 0 3
 81 1 928 20747 31 417 0 0 251 282 935 82 3 934 142 0 0 16 417 17409 928 ?218 66
4 418 413 0 0 1 81 1 282 20748 31 272 0 0 928 898 932 82 3 935 142 0 1 81 1 898
 20749 31 286 0 0 282 933 931 82 3 932 142 1 1 81 1 933 20750 31 334 0 337 898 9
38 940 82 3 931 142 2 1 81 1 337 20770 757 334 933 0 936 713 939 81 1 938 20751
 31 271 0 533 933 937 941 82 3 940 142 0 2 81 1 533 20779 757 271 938 0 756 530
 945 81 1 937 20752 31 291 0 943 938 942 944 82 3 941 142 1 2 14 291 19737 943 ?
19 17 51 6 335 +0 0 19 17 30 81 1 943 20758 757 291 937 0 560 946 950 81 1 942 2
0753 31 17 0 560 937 0 948 82 3 944 142 2 2 81 1 560 20757 757 17 942 0 0 943 94
7 82 3 948 142 3 2 83 3 947 .627450980392157 .627450980392157 .627450980392157 8
1 1 946 20759 757 19 949 0 943 747 951 83 3 950 .627450980392157 .62745098039215
7 .627450980392157 14 19 750 946 ?739 291 955 6 7 +0 0 739 291 30 81 1 949 19924
 31 19 0 946 952 244 953 81 1 747 20760 757 739 952 0 946 954 957 83 3 951 .6274
50980392157 .627450980392157 .627450980392157 81 1 952 19923 31 739 0 747 960 94
9 959 81 1 954 20761 757 720 960 0 747 956 958 83 3 957 .627450980392157 .627450
980392157 .627450980392157 14 720 17711 954 ?495 739 656 6 710 -0 0 495 739 30 8
1 1 960 19922 31 720 0 954 788 952 961 81 1 956 20762 757 495 622 0 954 962 964
 83 3 958 .627450980392157 .627450980392157 .627450980392157 14 495 8687 956 ?96
3 720 585 6 478 -0 0 963 720 30 81 1 622 17259 31 495 0 956 621 965 966 81 1 962
 20763 757 963 970 0 956 968 967 83 3 964 .627450980392157 .627450980392157 .627
450980392157 14 963 14624 962 ?969 495 975 6 971 -0 0 969 495 30 81 1 970 17261
 31 963 0 962 965 973 972 81 1 968 20764 757 969 663 0 962 974 977 83 3 967 .627
450980392157 .627450980392157 .627450980392157 14 969 14620 968 ?980 963 635 6 5
40 -0 0 980 963 30 81 1 663 17263 31 969 0 968 973 661 979 81 1 974 20765 757 98
0 965 0 968 976 978 83 3 977 .627450980392157 .627450980392157 .627450980392157
 14 980 14616 974 ?537 969 981 6 489 -0 0 537 969 30 81 1 965 17260 31 980 0 974
 622 970 985 81 1 976 20766 757 537 973 0 974 982 983 83 3 978 .627450980392157
 .627450980392157 .627450980392157 14 537 14628 976 ?488 980 984 6 535 +0 0 488
 980 30 81 1 973 17262 31 537 0 976 970 663 987 81 1 982 20767 757 488 989 0 976
 490 990 83 3 983 .627450980392157 .627450980392157 .627450980392157 14 488 1400
1 982 ?479 537 646 6 476 +0 0 479 537 30 81 1 989 18033 31 488 0 982 427 986 988
 81 1 490 20768 757 479 986 0 982 936 994 83 3 990 .627450980392157 .62745098039
2157 .627450980392157 81 1 986 18034 31 479 0 490 989 424 995 81 1 936 20769 757
 345 992 0 490 337 993 83 3 994 .627450980392157 .627450980392157 .6274509803921
57 14 345 17669 936 ?334 479 655 6 326 +334 334 334 479 30 81 1 992 20402 31 345
 0 936 917 991 998 83 3 993 .627450980392157 .627450980392157 .627450980392157 8
1 1 917 20401 31 528 0 914 894 992 1000 81 1 991 20404 31 519 0 530 992 305 996
 82 3 998 140 1 2 81 1 530 20780 757 519 991 0 533 914 999 81 1 305 20598 31 313
 0 0 991 304 997 82 3 996 140 3 2 82 3 997 141 1 1 83 3 999 .627450980392157 .62
7450980392157 .627450980392157 81 1 894 20399 31 873 0 0 884 917 1001 82 3 1000
 140 0 2 81 1 884 20398 31 875 0 0 883 894 1005 82 3 1001 140 6 1 82 3 1005 140
 5 1 81 1 424 18035 31 418 0 0 986 231 1003 82 3 995 128 3 2 81 1 231 18782 31 2
27 0 0 424 230 1002 82 3 1003 128 6 1 81 1 230 18783 31 224 0 0 231 1004 1006 82
 3 1002 134 0 0 81 1 1004 19050 31 322 0 0 230 155 1010 82 3 1006 134 1 0 16 322
 19048 1004 11e-8 542 875 873 321 0 0 1 81 1 155 19220 31 146 0 0 1004 48 1008 8
2 3 1010 135 3 1 81 1 48 19897 31 237 0 0 155 44 1007 82 3 1008 136 0 0 82 3 100
7 138 0 0 81 1 427 18030 31 376 0 0 641 989 1009 82 3 988 128 2 2 81 1 641 18029
 31 587 0 0 588 427 1011 82 3 1009 128 5 1 81 1 588 18028 31 582 0 0 447 641 101
5 82 3 1011 128 4 1 81 1 447 18027 31 443 0 0 1012 588 1013 82 3 1015 128 3 1 81
 1 1012 18026 31 378 0 0 434 447 1014 82 3 1013 128 2 1 16 378 17343 1012 ?647 3
69 443 438 0 0 1 81 1 434 18025 31 431 0 0 111 1012 1017 82 3 1014 128 1 1 81 1
 111 18024 31 107 0 0 110 434 1020 82 3 1017 128 0 1 81 1 110 18023 31 104 0 0 2
11 111 1019 82 3 1020 128 6 0 81 1 211 18022 31 208 0 0 114 110 1016 82 3 1019 1
28 5 0 81 1 114 18021 31 112 0 0 123 211 1018 82 3 1016 128 4 0 81 1 123 18020 3
1 120 0 0 223 114 1021 82 3 1018 128 3 0 81 1 223 18019 31 221 0 0 219 123 1022
 82 3 1021 128 2 0 81 1 219 18018 31 220 0 0 761 223 1024 82 3 1022 128 1 0 81 1
 761 17741 31 534 0 756 1023 219 1025 82 3 1024 128 0 0 81 1 1023 17737 31 529 0
 765 1026 761 1030 82 3 1025 117 6 2 81 1 765 20777 757 529 1023 0 1028 756 1027
 81 1 1026 17733 31 717 0 1028 1029 1023 1035 82 3 1030 117 5 2 14 717 17731 102
8 ?529 342 826 6 344 -0 0 529 342 30 81 1 1028 20776 757 717 1026 0 1031 765 103
3 81 1 1029 17729 31 342 0 1031 1032 1026 1034 82 3 1035 117 7 2 14 342 17727 10
31 ?717 754 825 6 332 -0 0 717 754 30 81 1 1031 20775 757 342 1029 0 758 1028 10
37 81 1 1032 17725 31 754 0 758 1040 1029 1039 82 3 1034 117 2 2 81 1 758 20774
 757 754 1032 0 748 1031 1036 81 1 1040 17721 31 750 0 748 1038 1032 1041 82 3 1
039 117 10 2 81 1 748 20773 757 750 1040 0 753 758 1045 81 1 1038 17717 31 714 0
 753 1042 1040 1043 82 3 1041 117 9 2 81 1 753 20772 757 714 1038 0 713 748 1044
 81 1 1042 17705 31 341 0 713 169 1038 1047 82 3 1043 117 3 2 81 1 713 20771 757
 341 1042 0 337 753 1049 81 1 169 17660 31 122 0 0 132 1042 1050 82 3 1047 117 8
 2 81 1 132 17658 31 131 0 0 170 169 1046 82 3 1050 116 3 0 81 1 170 17656 31 13
7 0 0 163 132 1048 82 3 1046 116 29 0 81 1 163 17654 31 161 0 0 205 170 1054 82
 3 1048 116 23 0 81 1 205 17652 31 164 0 0 204 163 1055 82 3 1054 116 1 0 81 1 2
04 17650 31 138 0 0 139 205 1052 82 3 1055 117 0 0 81 1 139 17648 31 129 0 0 128
 204 1053 82 3 1052 39 1 0 81 1 128 17646 31 126 0 0 145 139 1051 82 3 1053 116
 7 0 81 1 145 17644 31 135 0 0 158 128 1058 82 3 1051 116 27 0 81 1 158 17642 31
 143 0 0 159 145 1060 82 3 1058 116 5 0 81 1 159 17638 31 153 0 0 149 158 1056 8
2 3 1060 116 13 0 81 1 149 17610 31 144 0 0 196 159 1059 82 3 1056 116 25 0 81 1
 196 17608 31 148 0 0 215 149 1057 82 3 1059 116 15 0 81 1 215 17596 31 200 0 0
 194 196 1061 82 3 1057 117 3 0 81 1 194 17594 31 193 0 0 195 215 1065 82 3 1061
 115 7 0 81 1 195 17592 31 187 0 0 190 194 1063 82 3 1065 115 2 0 81 1 190 17590
 31 185 0 0 184 195 1062 82 3 1063 115 0 0 81 1 184 17588 31 181 0 0 176 190 106
4 82 3 1062 115 8 0 81 1 176 17586 31 177 0 0 173 184 1066 82 3 1064 115 4 0 81
 1 173 17584 31 175 0 0 210 176 1070 82 3 1066 115 3 0 81 1 210 17582 31 180 0 0
 118 173 1068 82 3 1070 115 9 0 81 1 118 17580 31 119 0 0 870 210 1067 82 3 1068
 115 10 0 82 3 1067 125 2 0 83 3 1049 .627450980392157 .627450980392157 .6274509
80392157 83 3 1044 .627450980392157 .627450980392157 .627450980392157 83 3 1045
 .627450980392157 .627450980392157 .627450980392157 83 3 1036 .627450980392157 .
627450980392157 .627450980392157 83 3 1037 .627450980392157 .627450980392157 .62
7450980392157 83 3 1033 .627450980392157 .627450980392157 .627450980392157 83 3
 1027 .627450980392157 .627450980392157 .627450980392157 82 3 987 126 3 2 15 984
 14615 0 95 537 0 17 95 0 984 1069 63 86 1071 600 0 1075 +17 1069 0 984 1072 95
 50 1075 638 0 1073 +17 63 0 984 95 1072 56 97 637 0 1074 -17 1071 0 1077 26 619
 56 95 600 0 0 -17 1075 0 975 90 59 86 1069 638 0 619 -15 975 14611 0 98 963 0 1
7 90 0 975 98 1075 84 619 614 0 1080 -17 59 0 975 1075 98 50 1079 1076 0 1069 +1
6 638 14553 626 ?1069 629 637 1078 0 0 1 17 619 0 1077 1071 618 86 90 614 0 0 +1
5 1077 14454 0 1071 17 624 17 618 0 1077 619 26 84 83 28 0 0 +17 26 0 1077 618 1
071 74 1074 11 0 0 +17 83 0 635 102 1080 74 618 28 0 633 -15 635 14607 0 102 969
 0 17 1080 0 635 83 632 84 98 629 0 618 -17 633 0 981 1074 631 74 102 625 0 26 -
15 981 14603 0 97 980 0 17 1074 0 981 97 633 56 26 11 0 1071 -17 631 0 981 633 9
7 101 1081 440 0 1082 +17 97 0 981 631 1074 100 63 637 0 1072 +17 1081 0 955 107
3 1082 100 631 440 0 0 -16 440 14565 1084 ?631 1076 431 433 0 0 1 17 1082 0 955
 1081 1079 101 632 1083 0 0 -15 955 14490 0 1081 19 570 17 1079 0 955 1082 1073
 92 59 1076 0 0 -17 632 0 635 1080 102 92 1082 1083 0 1079 +16 1083 14570 1085 ?
632 1086 1076 1090 0 0 1 81 1 1085 17246 31 1083 0 0 1088 1087 1089 16 1086 1453
3 1088 ?1073 637 1083 1095 0 0 1 16 1076 14575 1091 ?59 1083 440 436 0 0 1 30 10
90 14653 0 1083 436 1095 0 +-.010474803535676 .0180647628875396 .015083360402274
45 117387016190109e-30 0 -1 31 436 14654 0 1076 433 1090 0 +-.00822480353567601
 .0180647628875396 .004 0 -1 0 0 0 -1 .00225 30 1095 14652 0 1086 1090 1078 0 +-
.00597480353567601 .0180647628875396 .01508336040227445 0 0 -1 30 1078 14651 0 6
38 1095 640 0 +-.00597480353567601 .0872100003380393 .004 0 -1 0 30 640 14650 0
 629 1078 636 0 +-.010474803535676 .0872100003380393 .004 0 -1 0 81 1 1091 17244
 31 1076 0 0 1084 1088 1093 81 1 1084 17243 31 440 0 0 616 1091 1092 81 1 1088 1
7245 31 1086 0 0 1091 1085 1094 82 3 1093 126 9 1 82 3 1094 126 10 1 81 1 616 17
242 31 28 0 0 612 1084 1097 82 3 1092 126 8 1 81 1 612 17241 31 600 0 0 620 616
 1100 82 3 1097 126 7 1 81 1 620 17240 31 614 0 0 29 612 1099 82 3 1100 126 6 1
 81 1 29 17239 31 11 0 0 597 620 1096 82 3 1099 126 5 1 81 1 597 17238 31 593 0
 0 586 29 1098 82 3 1096 126 4 1 81 1 586 17237 31 599 0 0 583 597 1101 82 3 109
8 126 3 1 82 3 1101 126 2 1 17 1073 0 955 1079 1081 50 1072 1086 0 0 +16 637 145
56 1087 ?97 638 1086 636 0 0 1 81 1 1087 17247 31 637 0 0 1085 626 1105 81 1 626
 17248 31 638 0 0 1087 627 1102 82 3 1105 126 12 1 82 3 1102 126 13 1 17 1072 0
 984 63 1069 100 1073 1086 0 1081 -82 3 1089 126 11 1 17 98 0 975 59 90 92 1080
 629 0 632 +82 3 985 126 1 2 51 255 489 14642 0 980 971 476 0 +-.008224803535676
01 .0872100003380393 .0261667208045489 0 -1 0 .00225 0 0 -1 51 971 14643 0 963 5
40 489 0 +-.00822480353567601 .0872100003380393 .004 0 -1 0 .00225 0 0 -1 50 540
 14644 0 969 535 971 0 +-.010474803535676 .0872100003380393 .01508336040227445 -
1 0 -117387016190109e-30 -117387016190109e-30 0 1 82 3 979 126 4 2 82 3 972 126
 2 2 82 3 966 126 0 2 81 1 788 19916 31 285 0 0 856 960 1103 82 3 961 138 1 2 81
 1 856 19915 31 388 0 0 379 788 1104 82 3 1103 138 11 1 81 1 379 19914 31 369 0
 0 386 856 1107 82 3 1104 138 10 1 81 1 386 19913 31 389 0 0 879 379 1109 82 3 1
107 138 9 1 81 1 879 19907 31 54 0 0 900 386 1110 82 3 1109 138 8 1 81 1 900 199
06 31 284 0 0 878 879 1106 82 3 1110 138 2 1 81 1 878 19905 31 871 0 0 234 900 1
108 82 3 1106 138 1 1 81 1 234 19900 31 232 0 0 47 878 1114 82 3 1108 138 0 1 81
 1 47 19899 31 239 0 0 44 234 1115 82 3 1114 138 3 0 82 3 1115 138 2 0 82 3 959
 138 2 2 81 1 244 20389 31 241 0 0 949 38 1112 82 3 953 138 3 2 81 1 38 20390 31
 243 0 0 244 35 1113 82 3 1112 140 0 0 82 3 1113 140 1 0 83 3 945 .6274509803921
57 .627450980392157 .627450980392157 83 3 939 .627450980392157 .627450980392157
 .627450980392157 80 1 930 1111 1118 8038 0 0 0 0 0 0 0 0 0 TTTTTTTTTTTTTFTFT10
 81 1 14 20755 1111 1 927 2 0 0 1120 98 255 25 926 72 111 108 100 101 114 32 40
 84 119 111 32 68 105 114 101 99 116 105 111 110 41 32 118 54 80 1 1111 1116 111
9 8017 0 0 0 0 0 0 0 0 0 TTTTTTTTTTTTTFTFT3 84 255 25 1120 Holder (Two Direction
) v679 13 1119 SDL/TYSA_NAME79 14 1118 SDL/TYSA_UNAME81 1 258 20646 31 259 0 0 2
63 257 1117 82 3 924 141 3 0 81 1 263 20644 31 265 0 0 267 258 1121 82 3 1117 14
1 1 0 82 3 1121 141 5 0 79 15 925 SDL/TYSA_COLOUR83 3 919 .627450980392157 .6274
50980392157 .627450980392157 17 874 0 527 872 868 250 246 907 0 289 -81 1 908 20
393 31 903 0 0 40 911 1125 82 3 912 140 1 1 81 1 40 20392 31 250 0 0 35 908 1123
 82 3 1125 140 0 1 82 3 1123 140 3 0 81 1 882 20396 31 43 0 0 915 883 1122 82 3
 913 140 2 1 82 3 1122 140 3 1 82 3 886 140 4 1 82 3 885 127 1 1 17 152 0 329 25
3 150 146 277 664 0 542 +16 677 17457 1124 11e-8 740 394 668 688 0 0 1 133 359 1
7904 0 150 354 726 0 +354 -.00342480353567601 -.00433499999997841 .0301667208045
489 -.00342480353567601 -.0143349999999784 .0301667208045489 0 1 17 281 0 749 74
0 283 144 275 285 0 277 -17 277 0 268 275 542 144 152 664 0 0 -137 726 17897 0 1
 359 721 1126 +332 1130 0 ?141 1126 721 1126 1126 726 134 1130 0 0 0 0 0 0 +1128
 1127 136 1128 1 2 2 2 5 FFF1 1129 1131 1135 135 1127 1 0 45 4 1129 .00555 -.012
2 .00555 -.0222 127 2 1131 2 2 128 2 1135 0 1 81 1 1124 17459 31 677 0 0 1132 67
2 1133 16 668 17451 1132 ?699 677 662 690 0 0 1 81 1 1132 17453 31 668 0 0 666 1
124 1134 17 699 0 700 693 670 138 202 668 0 0 +133 690 17877 0 668 702 687 0 +70
2 .01667519345 -.00433499999997841 .031166720804549 .01667519345 .020065 .031166
720804549 0 .0243999999999784 30 702 17878 0 1 697 690 1137 +.01667519345 -.0043
3499999997841 .031166720804549 0 1 -664804206362369e-31 141 1137 690 1137 1137 7
02 15 700 17706 0 693 341 0 17 202 0 825 725 207 164 699 668 0 670 -17 725 0 825
 822 202 122 670 662 721 733 -17 733 0 700 670 157 122 842 848 0 0 -17 157 0 700
 733 696 153 402 398 0 842 -17 842 0 841 838 171 153 733 848 0 844 +17 844 0 762
 402 168 153 838 787 0 0 -15 762 17738 0 402 529 0 17 402 0 762 821 844 185 157
 398 0 0 +17 168 0 762 844 821 137 408 404 0 830 -17 821 0 762 168 402 200 188 7
73 0 408 -17 408 0 826 817 830 200 168 404 0 0 +81 1 666 17450 31 662 0 0 669 11
32 1140 82 3 1134 35 0 1 81 1 669 17405 31 664 0 0 813 666 1139 82 3 1140 116 1
 1 81 1 813 17393 31 425 0 0 818 669 1136 82 3 1139 116 13 1 81 1 818 17390 31 8
11 0 0 820 813 1138 82 3 1136 115 5 1 82 3 1138 115 0 1 81 1 672 17462 31 394 0
 0 1124 807 1141 82 3 1133 116 11 1 81 1 807 17471 31 684 0 0 672 682 1142 82 3
 1141 68 4 1 81 1 682 17474 31 681 0 0 807 799 1144 82 3 1142 115 1 1 82 3 1144
 117 4 1 17 253 0 329 302 152 249 542 322 365 280 -17 280 0 268 542 274 249 302
 313 22 0 +17 52 0 51 46 238 237 283 284 0 53 -81 1 854 17525 31 848 1143 0 846
 861 1145 82 3 866 116 15 1 81 1 1143 17526 1146 848 0 854 0 0 1150 81 1 846 175
22 31 824 0 0 843 854 1148 82 3 1145 116 38 1 82 3 1148 116 3 1 80 1 1146 1147 1
149 9000 0 0 0 0 3 5 0 0 0 FFTFTFTTFFFFFFFFF2 83 1 1150 236 79 13 1149 BTI/impor
tTag30 419 17841 0 1 413 849 1155 +.01667519345 -.0143349999999784 .031166720804
549 0 1 -664804206362369e-31 141 1155 667 1155 1155 419 133 667 17891 0 662 732
 688 0 +419 .01667519345 -.0143349999999784 .031166720804549 .01667519345 -.0043
3499999997841 .031166720804549 0 .01 81 1 786 17516 31 787 0 0 784 843 1151 82 3
 1151 116 28 1 82 3 850 116 36 1 17 212 0 559 188 197 200 817 425 0 821 +15 771
 17684 0 206 17 1077 17 206 0 771 174 183 180 777 435 0 764 +17 183 0 771 206 17
8 181 809 684 0 777 -17 178 0 771 183 174 177 775 401 0 809 -17 809 0 751 142 77
9 177 183 684 0 797 +15 751 17718 0 779 714 0 17 142 0 751 782 809 135 797 681 0
 792 +17 779 0 751 809 782 181 136 680 0 0 -81 1 814 17384 31 773 0 0 772 820 11
53 82 3 816 115 6 1 81 1 772 17381 31 770 0 0 810 814 1152 82 3 1153 115 3 1 81
 1 810 17378 31 435 0 0 458 772 1154 82 3 1152 115 4 1 81 1 458 17364 31 450 0 0
 661 810 1157 82 3 1154 115 8 1 82 3 1157 127 2 1 141 803 812 803 803 415 81 1 3
99 17483 31 400 0 0 796 793 1160 82 3 805 115 7 1 82 3 1160 117 9 1 82 3 798 116
 7 1 17 769 0 278 776 800 131 767 391 0 780 +17 767 0 759 766 134 126 769 391 0
 800 -82 3 794 116 40 1 82 3 790 116 42 1 83 3 763 .627450980392157 .62745098039
2157 .627450980392157 141 704 691 704 704 697 134 706 0 0 0 0 0 0 +1159 1156 136
 1159 1 2 2 2 5 FFF1 1158 1161 1165 135 1156 1 0 45 4 1158 .00555 .0171999999999
784 .00555 .0121999999999784 127 2 1161 2 2 128 2 1165 0 1 82 3 665 117 0 1 81 1
 91 17230 31 92 0 0 103 584 1162 82 3 643 126 0 1 81 1 103 17229 31 101 0 0 60 9
1 1163 82 3 1162 126 11 0 81 1 60 17228 31 50 0 0 99 103 1164 82 3 1163 126 10 0
 81 1 99 17227 31 100 0 0 89 60 1167 82 3 1164 126 9 0 81 1 89 17226 31 84 0 0 9
4 99 1169 82 3 1167 126 8 0 81 1 94 17225 31 86 0 0 82 89 1170 82 3 1169 126 7 0
 81 1 82 17224 31 74 0 0 64 94 1166 82 3 1170 126 6 0 81 1 64 17223 31 56 0 0 73
 82 1168 82 3 1166 126 5 0 81 1 73 17222 31 75 0 0 78 64 1174 82 3 1168 126 4 0
 81 1 78 17221 31 69 0 0 68 73 1175 82 3 1174 126 3 0 81 1 68 17220 31 66 0 0 80
 78 1172 82 3 1175 126 2 0 81 1 80 17219 31 65 0 0 0 68 1173 82 3 1172 126 1 0 8
2 3 1173 126 0 0 81 1 628 17250 31 629 0 0 627 465 1171 81 1 465 17256 31 459 0
 0 628 621 1178 82 3 1171 126 15 1 82 3 1178 126 21 1 82 3 634 126 14 1 82 3 623
 126 23 1 82 3 590 126 1 1 141 475 456 475 475 468 141 455 453 455 455 446 141 4
30 422 430 430 421 141 412 420 412 412 409 141 387 671 387 387 385 141 362 887 3
62 362 349 134 364 0 0 0 0 0 0 +1180 1176 136 1180 1 2 2 2 5 FFF1 1179 1177 1181
 135 1176 1 0 45 4 1179 -.0034999999999784 -.015 -.0034999999999784 -.0731520000
3125 127 2 1177 2 2 128 2 1181 0 1 141 356 359 356 356 354 134 358 0 0 0 0 0 0 +
1185 1183 136 1185 1 2 2 2 5 FFF1 1182 1184 1186 135 1183 1 0 45 4 1182 .0229 .0
15149996985676 .0329 .015149996985676 127 2 1184 2 2 128 2 1186 0 1 141 355 375
 355 355 350 134 352 0 0 0 0 0 0 +1190 1188 136 1190 1 2 2 2 5 FFF1 1187 1189 11
91 135 1188 1 0 45 4 1187 .0329 -.073152 .0329 -.01499999996875 127 2 1189 2 2 1
28 2 1191 0 1 141 346 697 1195 1195 332 141 1195 726 346 346 332 81 1 270 20634
 31 301 0 0 315 267 1192 81 1 315 20631 31 300 0 0 297 270 1193 82 3 1192 141 3
 1 81 1 297 20628 31 287 0 0 304 315 1194 82 3 1193 141 11 1 82 3 1194 141 7 1 8
2 3 306 141 9 1 82 3 266 141 7 0 82 3 49 138 1 0 82 3 36 140 2 0 19 18 1 0 1 0 1
0 6 0 S0 141 23 22 23 23 8 134 25 0 0 0 0 0 0 +1197 1200 136 1197 1 2 2 2 5 FFF1
 1199 1196 1198 135 1200 1 0 45 4 1199 .007 .085099996985676 .007 .0620999969856
76 127 2 1196 2 2 128 2 1198 0 1 141 21 603 1201 1201 7 141 1201 501 21 21 7 74
 4 CI16 index_map_offset0 0 1 dCCZ20 16 6 0 0 942 1143 927 14 2 920 0 0 0 0 0 0
 0 0 0 0 0 0 0 0 80 1 13 757 1202 8040 0 0 0 0 3 5 0 0 0 TTTFFFFFFFFFFFFFF2 83 3
 15 .627450980392157 .627450980392157 .627450980392157 79 17 1202 SDL/TYSA_COLOU
R_21 0 
