**ABCDEFGHIJKLMNOPQRSTUVWXYZabcdefghijklmnopqrstuvwxyz**************************
**PARASOLID !"#$%&'()*+,-./:;<=>?@[\]^_`{|}~0123456789**************************
**PART1;
MC=unknown;
MC_MODEL=unknown;
MC_ID=unknown;
OS=unknown;
OS_RELEASE=unknown;
FRU=Parasolid 37.1.212;
APPL=Onshape;
SITE=unknown;
USER=unknown;
FORMAT=text;
GUISE=transmit;
KEY=BTGapi::writeModels_.xmt;
FILE=BTGapi::writeModels_.xmt;
DATE=2026-05-24T03:01:13 (UTC);
**PART2;
SCH=SCH_3701212_37102;
USFLD_SIZE=0;
**PART3;
**END_OF_HEADER*****************************************************************
T51 : TRANSMIT FILE created by modeller version 370121223 SCH_3701212_37102_1300
6239 0 12 36 CCCI7 lattice222 0 CCCI4 mesh1006 0 I8 polyline1008 0 CCCCCCCDI5 ow
ner1040 0 CCCI16 boundary_lattice222 0 CCCI13 boundary_mesh1006 0 I17 boundary_p
olyline1008 0 CCCA16 index_map_offset0 0 1 dA9 index_map82 0 A17 node_id_index_m
ap82 0 A20 schema_embedding_map82 0 A5 child12 0 A14 lowest_node_id0 0 1 dA16 me
sh_offset_data206 0 Z1 43447 2 3 0 0 0 0 0 0 0 1e3 1e-8 0 4 5 1 0 1 2 6 0 7 8 9
 0 0 10 11 12 0 0 0 0 0 0 0 81 255 1 2 43428 13 1 14 0 0 0 15 70 11 CI9 list_typ
e0 0 1 uI10 notransmit0 0 1 lCCCDCCDI12 finger_index0 0 1 dI12 finger_block1012
 0 CZ3 0 4 T1 0 0 5 20 1 16 16 13 255 6 41979 0 1 0 17 0 0 18 0 51 255 7 1384 0
 19 20 0 0 +-.058 -.03805 .002 0 0 1 .005 1 0 0 30 255 8 1312 0 11 21 0 0 +-.058
 -.04305 -.0041 0 0 -1 29 255 9 40307 0 12 22 0 -.063 .03405 -.030197 19 9 CCCCC
CI5 frame230 0 CA5 owner12 0 Z10 41981 0 1 18 0 23 0 V0 16 255 11 1310 24 ?25 0
 27 8 0 0 1 18 255 12 40305 30 29 0 26 9 ?1 81 1 30 40706 28 12 0 0 34 35 32 17
 255 29 0 33 31 38 12 40 36 0 39 -18 26 7401 37 41 12 45 22 ?1 81 1 37 8155 28 2
6 0 0 0 43 42 17 41 0 44 46 50 26 48 47 0 49 -18 45 7686 43 46 26 51 55 ?1 29 22
 7403 0 26 55 9 -.063 -.03405 -.007 29 55 8069 0 45 52 22 -.063 .03405 -.007 29
 52 32569 0 51 53 55 -.058 .04305 .00103028 18 51 32260 54 57 45 60 52 ?1 29 53
 32570 0 60 59 52 -.063 .03805 .00103028 18 60 32278 56 58 51 61 53 ?1 29 59 325
71 0 61 62 53 -.063 -.03805 .00103028 18 61 32266 64 63 60 65 59 ?1 29 62 32572
 0 65 67 59 -.058 -.04305 .00103028 18 65 32272 70 69 61 66 62 ?1 29 67 37325 0
 66 68 62 -.054 .03195 -.037097 18 66 37090 75 71 65 73 67 ?1 29 68 37327 0 73 7
2 67 -.063 -.03195 -.037097 18 73 37061 74 76 66 80 68 ?1 29 72 37348 0 80 77 68
 -.063 .03195 -.037097 18 80 37084 78 79 73 81 72 ?1 29 77 37352 0 81 85 72 -.05
4 -.03195 -.037097 18 81 37088 83 82 80 84 77 ?1 29 85 40636 0 84 89 77 -.054 -.
03405 -.030197 18 84 40552 90 87 81 88 85 ?1 29 89 40637 0 88 86 85 -.054 .03405
 -.030197 18 88 40562 35 93 84 95 89 ?1 29 86 40638 0 95 91 89 -.063 -.03405 -.0
30197 18 95 40554 34 94 88 92 86 ?1 29 91 42548 0 92 96 86 -.053 -.04305 .001030
28 18 92 42432 100 98 95 97 91 ?1 29 96 42549 0 97 99 91 -.053 .04305 .00103028
 18 97 42460 101 105 92 103 96 ?1 29 99 42552 0 103 102 96 -.053 .03405 -.007 18
 103 42448 104 106 97 110 99 ?1 29 102 42553 0 110 107 99 -.053 -.03405 -.007 18
 110 42444 108 109 103 112 102 ?1 29 107 43262 0 115 114 102 -.054 -.03405 -.039
497 18 115 43138 111 113 116 117 107 ?1 29 114 43263 0 117 119 107 -.054 -.03195
 -.039497 18 117 43136 118 120 115 122 114 ?1 29 119 43264 0 122 125 114 -.063 -
.03195 -.039497 18 122 43134 124 121 117 123 119 ?1 29 125 43265 0 123 130 119 -
.063 -.03805 -.039497 18 123 43120 126 128 122 127 125 ?1 29 130 43266 0 127 129
 125 -.058 -.04305 -.039497 18 127 43116 131 25 123 135 130 ?1 29 129 43267 0 13
5 132 130 -.053 -.04305 -.039497 18 135 43132 133 134 127 136 129 ?1 29 132 4326
8 0 136 140 129 -.053 -.03405 -.039497 18 136 43114 138 137 135 0 132 ?1 29 140
 43276 0 112 139 132 -.053 .04305 -.039497 18 112 42959 144 145 110 142 140 ?1 2
9 139 43277 0 142 143 140 -.053 .03405 -.039497 18 142 42979 141 148 112 150 139
 ?1 29 143 43278 0 150 146 139 -.054 .03405 -.039497 18 150 42961 149 147 142 15
1 143 ?1 29 146 43279 0 151 155 143 -.054 .03195 -.039497 18 151 42965 153 152 1
50 154 146 ?1 29 155 43280 0 154 156 146 -.063 .03195 -.039497 18 154 42969 160
 158 151 157 155 ?1 29 156 43281 0 157 159 155 -.063 .03805 -.039497 18 157 4298
1 161 165 154 116 156 ?1 29 159 43282 0 116 0 156 -.058 .04305 -.039497 18 116 4
2975 162 163 157 115 159 ?1 81 1 162 42976 28 116 0 0 160 141 164 17 163 0 167 1
70 169 116 57 27 0 166 -15 255 167 28304 0 163 168 0 17 170 0 167 58 163 157 171
 172 0 0 +17 169 0 167 163 58 51 174 173 0 175 -17 57 0 177 180 166 51 163 27 0
 169 +16 27 1232 179 ?57 11 176 21 0 0 1 17 166 0 177 57 145 116 178 185 0 171 -
15 177 42254 0 145 181 0 17 145 0 177 166 180 112 105 183 0 182 -17 178 0 184 18
6 171 112 166 185 0 0 +16 185 42928 190 ?178 187 188 189 0 0 1 17 171 0 184 178
 191 116 170 172 0 0 -15 184 43022 0 178 195 0 17 191 0 184 171 193 157 192 194
 0 170 +16 172 42919 199 ?170 194 200 197 0 0 1 81 1 199 42921 28 172 0 0 198 19
6 203 16 194 42934 205 ?191 201 172 204 0 0 1 16 200 43096 202 ?206 172 210 208
 0 0 1 31 255 197 43254 0 172 0 207 0 --.058 .03805 -.039497 0 0 -1 -1 0 0 .005
 30 207 43253 0 201 197 209 0 +-.051 .03195 -.039497 1 0 0 16 201 42900 198 ?211
 215 194 207 0 0 1 30 209 43252 0 215 207 213 0 +-.054 .03195 -.039497 0 1 0 16
 215 42894 212 ?214 216 201 209 0 0 1 30 213 43251 0 216 209 220 0 +-.051 .03405
 -.039497 1 0 0 16 216 42888 217 ?218 188 215 213 0 0 1 30 220 43250 0 188 213 1
89 0 +-.053 .034052 -.039497 -161182204504233e-30 -1 0 16 188 42931 219 ?186 185
 216 220 0 0 1 30 189 43249 0 185 220 222 0 +0 .04305 -.039497 1 0 0 31 222 4324
8 0 187 189 204 0 --.05765 .0377 -.039497 0 0 -1 -1 0 0 .00285 16 187 42925 196
 ?225 224 185 222 0 0 1 30 204 43247 0 194 222 221 0 +-.063 0 -.039497 0 1 0 30
 221 43231 0 223 204 226 0 +-.063 0 -.039497 0 1 0 16 223 43090 227 ?229 210 228
 221 0 0 1 31 226 43230 0 230 221 232 0 +-.05765 -.0377 -.039497 0 0 -1 -1 0 0 .
00285 16 230 43073 235 ?234 231 0 226 0 0 1 30 232 43229 0 231 226 233 0 +-.051
 -.03405 -.039497 1 0 0 16 231 43084 240 ?236 238 230 232 0 0 1 30 233 43228 0 2
38 232 237 0 +-.053 .034052 -.039497 -161182204504233e-30 -1 0 16 238 43087 239
 ?241 245 231 233 0 0 1 30 237 43227 0 245 233 242 0 +0 -.04305 -.039497 1 0 0 1
6 245 43045 243 ?244 228 238 237 0 0 1 31 242 43226 0 228 237 246 0 --.058 -.038
05 -.039497 0 0 -1 -1 0 0 .005 16 228 43051 250 ?248 223 245 242 0 0 1 30 246 43
225 0 210 242 208 0 +-.051 -.03195 -.039497 1 0 0 16 210 43093 247 ?249 200 223
 246 0 0 1 30 208 43224 0 200 246 254 0 +-.054 -.03195 -.039497 0 -1 0 30 254 42
539 0 224 208 255 0 +-.053 -.04305 -.030197 0 0 1 16 224 42392 252 ?253 251 187
 254 0 0 1 30 255 42537 0 251 254 258 0 +-.053 -.03405 -.030197 0 0 -1 16 251 42
407 260 ?137 256 224 255 0 0 1 30 258 42536 0 256 255 259 0 +-.053 -435997863183
95e-31 -.007 -161182204504233e-30 -1 0 16 256 42402 257 ?50 261 251 258 0 0 1 30
 259 42535 0 261 258 265 0 +-.053 .03405 -.030197 0 0 -1 16 261 42352 263 ?148 1
83 256 259 0 0 1 30 265 42533 0 183 259 262 0 +-.053 .04305 -.030197 0 0 1 16 18
3 42372 264 ?105 266 261 265 0 0 1 30 262 42532 0 266 265 270 0 +-.053 -43599786
318395e-31 .00103028 -161182204504233e-30 -1 0 16 266 42382 268 ?98 267 183 262
 0 0 1 30 270 40615 0 269 262 271 0 +-.054 -4198796427335265e-33 -.030197 161182
204504233e-30 1 0 16 269 40512 275 ?93 272 273 270 0 0 1 30 271 40614 0 273 270
 274 0 +-.0985256419948236 -.03405 -.030197 1 0 0 16 273 40504 277 ?87 269 280 2
71 0 0 1 30 274 40613 0 280 271 279 0 +-.0985256419948236 .03405 -.030197 1 0 0
 16 280 40501 276 ?31 273 267 274 0 0 1 30 279 40612 0 267 274 278 0 +-.063 0 -.
030197 0 1 0 16 267 40496 281 ?282 280 266 279 0 0 1 30 278 37307 0 272 279 284
 0 +-.054 -.03195 -.038147 0 0 1 16 272 36997 283 ?82 285 269 278 0 0 1 30 284 3
7306 0 285 278 287 0 +-.054 -419879642733527e-32 -.037097 -161182204504233e-30 -
1 0 16 285 36857 290 ?289 286 272 284 0 0 1 30 287 37305 0 286 284 288 0 +-.054
 .03195 -.038147 0 0 -1 16 286 37000 295 ?152 291 285 287 0 0 1 30 288 37299 0 2
91 287 293 0 +-.0985256419948236 .03195 -.037097 1 0 0 16 291 36863 292 ?294 296
 286 288 0 0 1 30 293 37298 0 296 288 300 0 +-.063 .03195 .002 0 0 1 16 296 3692
3 297 ?298 299 291 293 0 0 1 30 300 37297 0 299 293 301 0 +-.0985256419948236 -.
03195 -.037097 1 0 0 16 299 36983 305 ?303 302 296 300 0 0 1 30 301 37296 0 302
 300 304 0 +-.063 -.03195 .002 0 0 1 16 302 36980 309 ?310 307 299 301 0 0 1 30
 304 37269 0 307 301 308 0 +-.063 0 -.037097 0 1 0 16 307 36860 306 ?313 315 302
 304 0 0 1 30 308 35934 0 315 304 311 0 +-.054 .03405 -.050197 0 0 -1 16 315 357
97 314 ?147 312 307 308 0 0 1 30 311 35932 0 312 308 316 0 +-.054 -.03405 -.0501
97 0 0 -1 16 312 35768 320 ?113 318 315 311 0 0 1 31 316 32549 0 317 311 319 0 -
-.058 -.03805 .00103028 0 0 -1 -1 0 0 .005 16 317 32234 321 ?325 323 318 316 0 0
 1 30 319 32548 0 323 316 322 0 +-.063 0 .00103028 0 1 0 16 323 32192 324 ?326 1
73 317 319 0 0 1 31 322 32547 0 173 319 330 0 --.058 .03805 .00103028 0 0 -1 -1
 0 0 .005 16 173 32231 327 ?174 328 323 322 0 0 1 31 330 32546 0 329 322 332 0 -
-.05765 .0377 .00103028 0 0 -1 -1 0 0 .00285 16 329 32214 335 ?334 331 328 330 0
 0 1 31 332 32545 0 331 330 333 0 +-.05765 -.0377 .00103028 0 0 -1 -1 0 0 .00285
 16 331 32228 336 ?337 47 329 332 0 0 1 30 333 32544 0 328 332 339 0 +0 .04305 .
00103028 1 0 0 16 328 32178 338 ?180 329 173 333 0 0 1 30 339 32543 0 318 333 34
0 0 +0 -.04305 .00103028 1 0 0 16 318 32237 342 ?345 317 312 339 0 0 1 30 340 80
47 0 344 339 341 0 +-.0985256419948236 .03405 -.007 1 0 0 16 344 7613 343 ?350 3
46 47 340 0 0 1 30 341 8046 0 47 340 348 0 +-.0985256419948236 -.03405 -.007 1 0
 0 16 47 7625 347 ?48 344 331 341 0 0 1 30 348 8026 0 346 341 349 0 +-.063 0 -.0
07 0 1 0 16 346 7628 351 ?46 36 344 348 0 0 1 30 349 8024 0 36 348 355 0 +-.063
 .03405 .002 0 0 1 16 36 7595 352 ?40 353 346 349 0 0 1 30 355 8020 0 353 349 35
4 0 +-.063 -.03405 .002 0 0 1 16 353 7571 356 ?49 360 36 355 0 0 1 30 354 1189 0
 360 355 358 0 --.063 -.03805 .002 0 0 -1 16 360 1187 357 ?63 176 353 354 0 0 1
 30 358 1194 0 176 354 21 0 +-.063 .03805 .002 0 0 -1 16 176 1192 359 ?165 27 36
0 358 0 0 1 30 21 1234 0 27 358 8 0 --.058 .04305 .002 0 0 -1 81 1 359 43404 28
 176 0 0 179 24 364 17 165 0 365 192 326 157 58 176 0 191 +15 365 29876 0 165 36
2 363 17 192 0 365 298 165 154 191 194 0 193 -17 326 0 365 165 63 60 361 323 0 0
 +17 58 0 167 169 170 60 165 176 0 174 -17 174 0 368 361 175 60 169 173 0 326 +1
5 368 42259 0 370 17 0 17 361 0 368 325 174 61 326 323 0 0 -17 175 0 368 174 370
 51 180 328 0 0 -17 370 0 368 175 345 97 98 266 0 180 -17 180 0 177 145 57 97 17
5 328 0 0 +17 345 0 368 370 325 92 366 318 0 0 +17 98 0 369 134 105 92 370 266 0
 253 +15 369 42499 0 134 367 0 17 134 0 369 371 98 135 253 224 0 241 -17 105 0 3
69 98 182 97 145 183 0 370 +17 253 0 375 366 244 92 134 224 0 345 +15 375 39948
 0 25 373 0 17 366 0 375 25 253 65 345 318 0 325 -17 244 0 375 253 25 135 372 24
5 0 0 +17 25 0 375 244 366 127 69 11 0 372 +17 372 0 374 376 241 127 244 245 0 2
48 -15 374 43179 0 236 380 0 17 376 0 374 229 372 123 248 228 0 0 -17 241 0 374
 372 236 135 371 238 0 244 +17 248 0 378 69 128 127 376 228 0 0 +15 378 28274 0
 128 19 0 17 69 0 378 377 248 65 25 11 0 366 -17 128 0 378 248 377 123 63 360 0
 379 -17 377 0 378 128 69 61 325 317 0 361 -17 63 0 365 326 379 61 128 360 0 377
 +17 379 0 365 63 121 123 229 223 0 376 -17 121 0 365 379 381 122 310 302 0 229
 -17 229 0 374 249 376 122 379 223 0 385 +17 249 0 374 206 229 117 385 210 0 382
 +17 385 0 383 310 120 122 249 210 0 0 -15 383 37213 0 120 384 0 17 310 0 383 30
3 385 73 121 302 0 0 +17 120 0 383 385 303 117 82 272 0 249 -17 303 0 383 120 31
0 81 76 299 0 0 +17 82 0 387 71 382 81 120 272 0 289 +15 387 40354 0 390 389 0 1
7 71 0 387 152 82 66 289 285 0 386 -17 382 0 387 82 113 117 206 200 0 0 -17 289
 0 388 76 294 81 71 285 0 303 +15 388 37147 0 289 391 0 17 76 0 388 313 289 73 3
03 299 0 381 -17 294 0 388 289 313 66 79 291 0 0 +17 313 0 388 294 76 80 381 307
 0 0 +17 79 0 392 158 386 80 294 291 0 298 -15 392 37217 0 386 394 0 17 158 0 39
2 211 79 154 298 296 0 192 -17 386 0 392 79 211 66 152 286 0 294 -17 298 0 365 3
81 192 80 158 296 0 313 +17 381 0 365 121 298 73 313 307 0 310 -17 211 0 392 386
 158 151 193 201 0 0 +17 152 0 387 214 71 151 386 286 0 393 +17 214 0 387 395 15
2 150 393 215 0 0 +17 393 0 184 193 397 151 214 215 0 211 -17 193 0 184 191 393
 154 211 201 0 0 -17 397 0 184 393 186 150 218 216 0 214 -17 186 0 184 397 178 1
42 182 188 0 218 +17 218 0 33 400 147 142 397 216 0 0 +15 33 40687 0 147 399 0 1
7 400 0 33 38 218 103 148 261 0 350 -17 147 0 33 218 31 150 395 315 0 397 +17 31
 0 33 147 29 88 39 280 0 395 +17 395 0 387 390 214 88 147 315 0 0 -17 390 0 387
 113 395 84 93 269 0 396 -17 113 0 387 382 390 115 396 312 0 206 +17 93 0 398 39
 87 88 390 269 0 31 +17 396 0 405 401 403 84 113 312 0 0 -15 405 42191 0 137 402
 0 17 401 0 405 49 396 95 87 273 0 404 -17 403 0 405 396 137 115 236 231 0 0 -17
 137 0 405 403 48 136 109 251 0 371 +17 236 0 374 241 206 136 403 231 0 0 +17 20
6 0 374 236 249 115 382 200 0 403 +17 48 0 405 137 49 110 41 47 0 0 +17 109 0 36
9 106 371 110 137 251 0 50 -17 371 0 369 109 134 136 241 238 0 236 -17 106 0 369
 148 109 103 50 256 0 400 -17 50 0 44 41 350 110 106 256 0 48 +15 44 42233 0 50
 406 0 17 350 0 44 50 46 103 38 344 0 0 +17 46 0 44 350 41 45 410 346 0 38 +17 3
8 0 33 29 400 45 350 344 0 40 -17 40 0 363 410 282 45 29 36 0 0 +15 363 40311 0
 94 362 0 17 410 0 363 94 40 26 46 346 0 0 -17 282 0 363 40 94 12 404 267 0 0 +1
7 94 0 363 282 410 95 49 353 0 401 -17 404 0 398 87 39 95 282 267 0 0 -15 398 40
571 0 87 407 0 17 87 0 398 93 404 84 401 273 0 390 +17 39 0 398 404 93 12 31 280
 0 282 -14 255 407 40568 408 ?168 406 398 6 409 -0 0 168 406 23 81 1 408 43434 4
11 407 415 0 413 412 414 14 168 1330 412 ?394 407 167 6 20 +0 0 394 407 23 14 40
6 7739 413 ?407 391 44 6 419 +0 0 407 391 23 50 255 409 40600 0 407 420 417 0 +0
 0 -.030197 0 0 -1 1 0 0 13 23 41980 0 0 0 0 0 0 10 17 14 17 32318 418 ?181 0 41
6 6 423 -0 0 181 0 23 81 1 418 43429 411 17 425 0 0 421 424 14 181 41544 421 ?37
3 17 177 6 422 -0 0 373 17 23 15 416 32321 0 337 17 426 50 423 32506 0 17 430 42
8 0 +0 0 .00103028 0 0 -1 1 0 0 50 430 35913 0 389 427 423 0 +-.054 -41987964273
35265e-33 -.030197 -1 161182204504233e-30 0 -161182204504233e-30 -1 0 51 428 259
17 0 429 423 431 0 +-.05765 .0377 -.166048786320751 0 0 1 .00285 1 0 0 14 429 25
833 435 ?389 394 433 6 428 -0 0 389 394 23 51 431 25914 0 432 428 419 0 --.05765
 -.0377 -.166048786320751 0 0 1 .00285 1 0 0 14 432 25893 434 ?399 19 436 6 431
 +0 0 399 19 23 50 419 8014 0 406 431 440 0 +-.0985256419948236 0 -.007 0 0 -1 -
1 0 0 50 440 6297 0 402 419 437 0 +0 -.03405 -.050197 0 1 0 0 0 1 14 402 6280 43
8 ?367 399 405 6 440 +0 0 367 399 23 50 437 6295 0 399 440 439 0 +0 .03405 -.050
197 0 1 0 0 0 1 14 399 6272 442 ?402 432 33 6 437 -0 0 402 432 23 50 439 242 0 3
73 437 445 0 +0 -.04305 .002 0 -1 0 0 0 -1 14 373 41579 444 ?391 181 375 6 439 +
0 0 391 181 23 50 445 243 0 362 439 422 0 +-.063 0 .002 1 0 0 0 0 -1 14 362 229
 441 ?19 384 365 6 445 -0 0 19 384 23 50 422 244 0 181 445 20 0 +0 .04305 .002 0
 -1 0 0 0 -1 51 20 1342 0 168 422 7 0 +-.058 .03805 .002 0 0 -1 .005 -1 0 0 81 1
 441 43440 411 362 443 0 446 447 449 14 19 1372 447 ?432 362 378 6 7 +0 0 432 36
2 23 14 384 37210 446 ?362 389 383 6 448 +0 0 362 389 23 81 1 446 43439 411 384
 450 0 452 441 455 14 389 35894 452 ?384 429 387 6 430 -0 0 384 429 23 50 448 37
247 0 384 417 427 0 +0 -.03195 -.034697 0 1 0 -1 0 0 50 417 37248 0 394 409 448
 0 +0 .03195 -.034697 0 -1 0 1 0 0 50 427 37240 0 391 448 430 0 +-.0985256419948
236 0 -.037097 0 0 -1 -1 0 0 14 391 37144 454 ?406 373 388 6 427 +0 0 406 373 23
 81 1 454 43432 411 391 451 0 444 413 453 80 7 CCCCCDI12 legal_owners0 17 1 lCZ1
 411 0 460 8001 0 0 0 0 3 5 0 0 0 FFFFTFTFFFFFFFFFF2 81 1 451 37146 28 391 0 454
 75 34 456 81 1 444 43431 411 373 458 0 421 454 457 81 1 413 43433 411 406 459 0
 454 408 461 83 255 3 453 .764705882352941 .545098039215686 .803921568627451 81
 1 459 42681 28 406 0 413 342 425 465 83 3 461 .764705882352941 .545098039215686
 .803921568627451 80 1 28 462 463 9000 0 0 0 0 3 6 0 0 0 FFTFTFTTFFFFFFFFF1 81 1
 342 42675 28 318 0 0 338 459 464 81 1 425 42682 28 17 0 418 459 217 466 82 255
 3 465 273 1 2 81 1 217 42890 28 216 0 0 425 212 470 82 3 466 273 2 2 81 1 212 4
2896 28 215 0 0 217 198 468 82 3 470 276 75 1 81 1 198 42902 28 201 0 0 212 199
 467 82 3 468 276 39 1 82 3 467 276 43 1 81 1 338 42674 28 328 0 0 343 342 469 8
2 3 464 273 11 1 81 1 343 42673 28 344 0 0 347 338 474 82 3 469 273 10 1 81 1 34
7 42672 28 47 0 0 268 343 475 82 3 474 273 9 1 81 1 268 42665 28 266 0 0 257 347
 472 82 3 475 273 8 1 81 1 257 42664 28 256 0 0 100 268 473 82 3 472 273 1 1 81
 1 100 42659 28 92 0 0 101 257 471 82 3 473 273 0 1 81 1 101 42658 28 97 0 0 104
 100 478 82 3 471 273 3 0 81 1 104 42657 28 103 0 0 108 101 480 82 3 478 273 2 0
 81 1 108 42656 28 110 0 0 415 104 476 82 3 480 273 1 0 81 1 415 40731 28 407 0
 408 276 108 479 82 3 476 273 0 0 81 1 276 40722 28 280 0 0 277 415 477 82 3 479
 267 2 2 81 1 277 40721 28 273 0 0 275 276 481 82 3 477 267 9 1 81 1 275 40719 2
8 269 0 0 281 277 485 82 3 481 267 8 1 81 1 281 40718 28 267 0 0 352 275 483 82
 3 485 267 6 1 81 1 352 40717 28 36 0 0 356 281 482 82 3 483 267 5 1 81 1 356 40
716 28 353 0 0 90 352 484 82 3 482 267 4 1 81 1 90 40710 28 84 0 0 35 356 486 82
 3 484 267 3 1 81 1 35 40709 28 88 0 0 30 90 490 82 3 486 267 5 0 82 3 490 267 4
 0 79 255 9 463 BTI/DetId81 1 458 43423 28 373 0 444 488 487 489 81 1 421 43430
 411 181 488 0 418 444 491 83 3 457 .764705882352941 .545098039215686 .803921568
627451 81 1 488 43422 28 181 0 421 495 458 492 83 3 491 .764705882352941 .545098
039215686 .803921568627451 81 1 495 43421 28 367 0 493 494 488 497 82 3 492 277
 17 2 14 367 42496 493 ?380 402 369 6 420 -0 0 380 402 23 81 1 493 43445 411 367
 495 0 438 500 499 81 1 494 43420 28 432 0 434 496 495 498 82 3 497 277 16 2 81
 1 434 43442 411 432 494 0 447 442 501 81 1 496 43419 28 429 0 435 502 494 504 8
2 3 498 277 14 2 81 1 435 43437 411 429 496 0 503 452 505 81 1 502 43418 28 389
 0 452 443 496 507 82 3 504 277 13 2 81 1 452 43438 411 389 502 0 435 446 510 81
 1 443 43417 28 362 0 441 509 502 506 82 3 507 277 11 2 81 1 509 43416 28 19 0 4
47 508 443 515 82 3 506 277 10 2 81 1 447 43441 411 19 509 0 441 434 511 81 1 50
8 43415 28 168 0 412 513 509 512 82 3 515 277 7 2 81 1 412 43435 411 168 508 0 4
08 503 514 81 1 513 43414 28 394 0 503 450 508 516 82 3 512 277 5 2 14 394 37214
 503 ?429 168 392 6 417 +0 0 429 168 23 81 1 503 43436 411 394 513 0 412 435 520
 81 1 450 43413 28 384 0 446 263 513 517 82 3 516 277 1 2 81 1 263 43412 28 261
 0 0 260 450 518 82 3 517 277 0 2 81 1 260 43411 28 251 0 0 252 263 519 82 3 518
 277 23 1 81 1 252 43410 28 224 0 0 264 260 521 82 3 519 277 22 1 81 1 264 43409
 28 183 0 0 314 252 525 82 3 521 277 21 1 81 1 314 43408 28 315 0 0 320 264 523
 82 3 525 277 20 1 81 1 320 43407 28 312 0 0 357 314 522 82 3 523 277 18 1 81 1
 357 43406 28 360 0 0 24 320 524 82 3 522 277 16 1 81 1 24 43405 28 11 0 0 359 3
57 529 82 3 524 277 15 1 82 3 529 277 14 1 83 3 520 .764705882352941 .5450980392
15686 .803921568627451 83 3 514 .764705882352941 .545098039215686 .8039215686274
51 83 3 511 .764705882352941 .545098039215686 .803921568627451 83 3 510 .7647058
82352941 .545098039215686 .803921568627451 83 3 505 .764705882352941 .5450980392
15686 .803921568627451 81 1 442 43443 411 399 530 0 434 438 527 83 3 501 .764705
882352941 .545098039215686 .803921568627451 81 1 530 43425 28 399 0 442 487 0 52
8 81 1 438 43444 411 402 487 0 442 493 526 83 3 527 .764705882352941 .5450980392
15686 .803921568627451 81 1 487 43424 28 402 0 438 458 530 533 83 3 526 .7647058
82352941 .545098039215686 .803921568627451 82 3 533 277 19 2 82 3 528 277 20 2 8
1 1 500 43446 411 380 535 0 493 531 534 83 3 499 .764705882352941 .5450980392156
86 .803921568627451 14 380 43175 500 ?195 367 532 6 536 +0 0 195 367 23 81 1 535
 43177 28 380 0 500 111 540 538 81 1 531 43447 411 195 537 0 500 0 539 83 3 534
 .764705882352941 .545098039215686 .803921568627451 14 195 43018 531 ?0 380 541
 6 545 +0 0 0 380 23 81 1 537 43020 28 195 0 531 161 243 543 83 3 539 .764705882
352941 .545098039215686 .803921568627451 81 1 161 42982 28 157 0 0 141 537 542 8
1 1 243 43047 28 245 0 0 537 250 544 82 3 543 276 27 2 81 1 250 43053 28 228 0 0
 243 235 546 82 3 544 276 71 1 81 1 235 43075 28 230 0 0 250 240 550 82 3 546 27
6 27 1 81 1 240 43086 28 231 0 0 235 239 547 82 3 550 276 57 1 81 1 239 43089 28
 238 0 0 240 227 548 82 3 547 276 73 1 81 1 227 43092 28 223 0 0 239 247 549 82
 3 548 276 67 1 81 1 247 43095 28 210 0 0 227 202 552 82 3 549 276 31 1 81 1 202
 43098 28 200 0 0 247 138 555 82 3 552 276 41 1 81 1 138 43115 28 136 0 0 202 13
1 554 82 3 555 276 37 1 81 1 131 43117 28 127 0 0 138 126 551 82 3 554 276 45 0
 81 1 126 43121 28 123 0 0 131 133 553 82 3 551 276 13 0 81 1 133 43133 28 135 0
 0 126 124 556 82 3 553 276 15 0 81 1 124 43135 28 122 0 0 133 118 557 82 3 556
 276 43 0 81 1 118 43137 28 117 0 0 124 111 559 82 3 557 276 17 0 81 1 111 43139
 28 115 0 0 118 535 558 82 3 559 276 25 0 82 3 558 276 27 0 81 1 141 42980 28 14
2 0 0 162 161 560 82 3 542 276 7 0 82 3 560 276 47 0 15 541 43021 0 225 195 184
 50 545 43208 0 195 0 536 0 +.051 .034052 -.039497 0 0 -1 -1 0 0 50 536 43198 0
 380 545 420 0 +.051 .034052 -.039497 0 0 -1 -1 0 0 50 420 42515 0 367 536 409 0
 +-.053 -43599786318395e-31 -.030197 -1 161182204504233e-30 0 -161182204504233e-
30 -1 0 17 225 0 541 225 225 0 562 187 0 0 +17 562 0 565 562 562 0 225 187 0 0 -
15 565 43012 0 562 429 0 81 1 540 43398 28 1 0 564 535 309 561 82 3 538 276 29 2
 81 1 564 43426 563 1 540 14 0 0 570 81 1 309 43399 28 302 0 0 540 297 566 82 3
 561 271 0 3 81 1 297 43400 28 296 0 0 309 283 568 82 3 566 277 0 1 81 1 283 434
01 28 272 0 0 297 295 567 82 3 568 277 3 1 81 1 295 43402 28 286 0 0 283 179 569
 82 3 567 277 4 1 81 1 179 43403 28 27 0 0 295 359 571 82 3 569 277 5 1 82 3 571
 277 10 1 80 1 563 575 572 8038 0 0 0 0 0 0 0 0 0 TTTTTTTTTTTTTFTFT10 81 1 14 43
427 575 1 564 2 0 0 573 98 255 6 570 80 97 114 116 32 49 80 1 575 574 576 8017 0
 0 0 0 0 0 0 0 0 TTTTTTTTTTTTTFTFT3 84 255 6 573 Part 179 13 576 SDL/TYSA_NAME79
 14 572 SDL/TYSA_UNAME15 532 43178 0 580 380 374 17 580 0 532 580 580 0 234 230
 0 0 -17 234 0 578 234 234 0 580 230 0 0 +15 578 43169 0 234 432 0 82 3 489 277
 18 2 81 1 75 37091 28 66 0 0 83 451 577 81 1 34 40705 28 95 0 0 451 30 579 82 3
 456 257 15 2 82 3 579 267 0 0 81 1 83 37089 28 81 0 0 78 75 584 82 3 577 257 30
 0 81 1 78 37085 28 80 0 0 74 83 585 82 3 584 257 27 0 81 1 74 37062 28 73 0 0 3
05 78 582 82 3 585 257 22 0 81 1 305 36985 28 299 0 0 292 74 583 82 3 582 257 18
 0 81 1 292 36865 28 291 0 0 306 305 581 82 3 583 257 49 1 81 1 306 36862 28 307
 0 0 290 292 588 82 3 581 257 51 1 81 1 290 36859 28 285 0 0 56 306 590 82 3 588
 257 39 1 81 1 56 32279 28 60 0 0 70 290 586 82 3 590 257 45 1 81 1 70 32273 28
 65 0 0 64 56 589 82 3 586 116 7 0 81 1 64 32267 28 61 0 0 54 70 587 82 3 589 11
6 13 0 81 1 54 32261 28 51 0 0 321 64 591 82 3 587 116 15 0 81 1 321 32236 28 31
7 0 0 327 54 595 82 3 591 116 5 0 81 1 327 32233 28 173 0 0 336 321 593 82 3 595
 116 23 1 81 1 336 32230 28 331 0 0 335 327 592 82 3 593 116 19 1 81 1 335 32216
 28 329 0 0 324 336 594 82 3 592 116 27 1 81 1 324 32194 28 323 0 0 351 335 596
 82 3 594 116 25 1 81 1 351 8192 28 346 0 0 43 324 600 82 3 596 116 35 1 81 1 43
 8156 28 45 0 0 37 351 598 82 3 600 51 11 1 82 3 598 51 7 0 79 15 460 SDL/TYSA_C
OLOUR83 3 455 .764705882352941 .545098039215686 .803921568627451 83 3 449 .76470
5882352941 .545098039215686 .803921568627451 15 436 32312 0 597 432 578 17 597 0
 436 597 597 0 337 331 0 0 -17 337 0 416 337 337 0 597 331 0 0 +15 433 32307 0 3
34 429 565 17 334 0 433 334 334 0 599 329 0 0 +17 599 0 426 599 599 0 334 329 0
 0 -15 426 32322 0 599 17 368 83 3 424 .764705882352941 .545098039215686 .803921
568627451 83 3 414 .764705882352941 .545098039215686 .803921568627451 17 49 0 40
5 48 401 26 94 353 0 410 +17 148 0 369 182 106 142 400 261 0 186 +17 182 0 369 1
05 148 112 186 188 0 178 -17 325 0 368 345 361 65 377 317 0 0 +82 3 364 277 11 1
 81 1 196 42927 28 187 0 0 199 190 601 81 1 190 42930 28 185 0 0 196 219 605 82
 3 601 276 55 1 81 1 219 42933 28 188 0 0 190 205 602 82 3 605 276 69 1 81 1 205
 42936 28 194 0 0 219 144 603 82 3 602 276 65 1 81 1 144 42960 28 112 0 0 205 14
9 604 82 3 603 276 35 1 81 1 149 42962 28 150 0 0 144 153 607 82 3 604 276 41 0
 81 1 153 42966 28 151 0 0 149 160 610 82 3 607 276 31 0 81 1 160 42970 28 154 0
 0 153 162 609 82 3 610 276 29 0 82 3 609 276 21 0 82 3 203 276 23 1 82 3 164 27
6 5 0 82 3 42 51 6 0 82 3 32 267 1 0 19 18 259 0 1 0 10 6 0 S0 74 4 CI16 index_m
ap_offset0 0 1 dCCZ20 16 5 0 0 530 564 14 2 531 0 0 0 0 0 0 0 0 0 0 0 0 0 0 0 80
 1 13 411 606 8040 0 0 0 0 3 5 0 0 0 TTTFFFFFFFFFFFFFF2 83 3 15 .764705882352941
 .545098039215686 .803921568627451 79 17 606 SDL/TYSA_COLOUR_21 0 
