**ABCDEFGHIJKLMNOPQRSTUVWXYZabcdefghijklmnopqrstuvwxyz**************************
**PARASOLID !"#$%&'()*+,-./:;<=>?@[\]^_`{|}~0123456789**************************
**PART1;
MC=unknown;
MC_MODEL=unknown;
MC_ID=unknown;
OS=unknown;
OS_RELEASE=unknown;
FRU=Parasolid 37.1.212;
APPL=Onshape;
SITE=unknown;
USER=unknown;
FORMAT=text;
GUISE=transmit;
KEY=BTGapi::writeModels_.xmt;
FILE=BTGapi::writeModels_.xmt;
DATE=2026-05-24T03:07:40 (UTC);
**PART2;
SCH=SCH_3701212_37102;
USFLD_SIZE=0;
**PART3;
**END_OF_HEADER*****************************************************************
T51 : TRANSMIT FILE created by modeller version 370121223 SCH_3701212_37102_1300
6239 0 12 36 CCCI7 lattice222 0 CCCI4 mesh1006 0 I8 polyline1008 0 CCCCCCCDI5 ow
ner1040 0 CCCI16 boundary_lattice222 0 CCCI13 boundary_mesh1006 0 I17 boundary_p
olyline1008 0 CCCA16 index_map_offset0 0 1 dA9 index_map82 0 A17 node_id_index_m
ap82 0 A20 schema_embedding_map82 0 A5 child12 0 A14 lowest_node_id0 0 1 dA16 me
sh_offset_data206 0 Z1 47716 2 3 0 0 0 0 0 0 0 1e3 1e-8 0 4 5 1 0 1 2 6 0 7 8 9
 0 0 10 11 12 0 0 0 0 0 0 0 81 255 1 2 47672 13 1 14 0 0 0 15 70 11 CI9 list_typ
e0 0 1 uI10 notransmit0 0 1 lCCCDCCDI12 finger_index0 0 1 dI12 finger_block1012
 0 CZ3 0 4 T1 0 0 5 20 1 16 16 13 255 6 258 0 1 0 17 0 0 18 0 51 255 7 1405 0 19
 20 0 0 +.058 .03805 -.076394 0 -1224646799147352e-31 1 .005 -1 0 0 31 255 8 451
45 0 21 22 0 0 +-.05765 .0377 -.027997 0 1224646799147352e-31 -1 0 1 12246467991
47352e-31 .00285 29 255 9 47326 0 12 23 0 .053 -.03405 -.063097 19 9 CCCCCCI5 fr
ame230 0 CA5 owner12 0 Z10 89 0 1 18 0 24 0 V0 16 255 11 1310 25 ?27 0 30 29 0 0
 1 18 255 12 47322 26 28 0 34 9 ?1 81 1 26 47653 35 12 0 0 32 33 31 17 255 28 0
 38 40 36 12 39 37 0 41 -18 34 46703 45 43 12 42 23 ?1 81 1 45 47034 35 34 0 0 4
4 46 50 17 43 0 48 47 49 34 51 55 0 52 +18 42 44692 53 54 34 57 60 ?1 29 23 4670
7 0 34 60 9 -.053 .03405 -.063097 29 60 44696 0 42 59 23 .053 -.03405 -.033197 2
9 59 44680 0 57 56 60 .053 .04305 -.033197 18 57 44676 58 61 42 62 59 ?1 29 56 4
4675 0 62 64 59 .053 -.04305 -.033197 18 62 44671 63 65 57 67 56 ?1 29 64 44148
 0 67 70 56 -.053 .03405 -.033197 18 67 44144 69 51 62 66 64 ?1 29 70 42888 0 66
 68 64 -.058 .04305 -.026997 18 66 42721 75 27 67 71 70 ?1 29 68 42889 0 71 73 7
0 -.063 .03805 -.026997 18 71 42725 72 74 66 76 68 ?1 29 73 42897 0 80 77 68 .05
8 .04305 -.026997 18 80 42491 78 79 82 85 73 ?1 29 77 42898 0 85 84 73 .063 .038
05 -.026997 18 85 42499 81 83 80 89 77 ?1 29 84 42910 0 76 90 77 -.063 -.03805 -
.026997 18 76 42368 87 88 71 82 84 ?1 29 90 42911 0 82 86 84 -.058 -.04305 -.026
997 18 82 42372 93 95 76 80 90 ?1 29 86 42918 0 89 91 90 .058 -.04305 -.026997 1
8 89 42614 94 92 85 96 86 ?1 29 91 42919 0 96 100 86 .063 -.03805 -.026997 18 96
 42604 98 97 89 99 91 ?1 29 100 44450 0 99 101 91 -.053 .04305 -.033197 18 99 44
364 105 103 96 102 100 ?1 29 101 44454 0 102 104 100 -.053 -.03405 -.033197 18 1
02 44344 106 110 99 107 101 ?1 29 104 44455 0 107 108 101 -.053 -.04305 -.033197
 18 107 44358 109 112 102 115 104 ?1 29 108 44456 0 115 114 104 -.053 -.04305 -.
026997 18 115 44338 111 113 107 116 108 ?1 29 114 44457 0 116 117 108 -.053 .043
05 -.026997 18 116 44334 119 118 115 120 114 ?1 29 117 44979 0 120 122 114 .053
 .03405 -.033197 18 120 44873 125 124 116 121 117 ?1 29 122 44981 0 121 123 117
 .053 .04305 -.026997 18 121 44867 130 126 120 128 122 ?1 29 123 44982 0 128 127
 122 .053 -.04305 -.026997 18 128 44863 129 131 121 135 123 ?1 29 127 46222 0 13
5 132 123 -.052 .03405 -.039197 18 135 45830 133 134 128 137 127 ?1 29 132 46223
 0 137 140 127 .052 .04305 -.039197 18 137 45930 139 136 135 138 132 ?1 29 140 4
6224 0 138 144 132 .063 -.03195 -.039197 18 138 45920 145 142 137 143 140 ?1 29
 144 46225 0 143 141 140 -.052 -.04305 -.039197 18 143 45836 148 150 138 146 144
 ?1 29 141 46226 0 146 149 144 -.063 .03195 -.039197 18 146 45846 147 151 143 15
5 141 ?1 29 149 46230 0 153 152 141 -.052 .04305 -.063097 18 153 45854 154 156 1
60 158 149 ?1 29 152 46231 0 155 157 149 -.052 .03405 -.063097 18 155 45832 159
 161 146 165 152 ?1 29 157 46234 0 165 162 152 -.063 .03195 -.063097 18 165 4586
0 163 164 155 167 157 ?1 29 162 46235 0 160 170 157 -.058 .04305 -.063097 18 160
 45856 169 166 167 153 162 ?1 29 170 46236 0 167 168 162 -.063 .03805 -.063097 1
8 167 45858 171 172 165 160 170 ?1 29 168 46239 0 158 174 170 -.063 -.03805 -.06
3097 18 158 45892 173 175 153 177 168 ?1 29 174 46240 0 177 180 168 -.058 -.0430
5 -.063097 18 177 45906 179 176 158 178 174 ?1 29 180 46241 0 178 185 174 -.063
 -.03195 -.063097 18 178 45890 181 183 177 182 180 ?1 29 185 46243 0 182 184 180
 -.052 -.04305 -.063097 18 182 45838 186 190 178 187 185 ?1 29 184 46244 0 187 1
88 185 -.052 -.03405 -.063097 18 187 45840 189 192 182 195 184 ?1 29 188 46248 0
 195 194 184 -.063 -.03195 -.039197 18 195 45896 191 193 187 199 188 ?1 29 194 4
6250 0 199 200 188 .052 -.03405 -.039197 18 199 45924 197 198 195 196 194 ?1 29
 200 46254 0 203 205 194 .052 -.03405 -.063097 18 203 45926 201 204 196 202 200
 ?1 29 205 46255 0 196 206 200 .052 -.04305 -.063097 18 196 45904 210 208 199 20
3 205 ?1 29 206 46258 0 207 209 205 .063 -.03195 -.063097 18 207 45908 211 215 2
13 212 206 ?1 29 209 46259 0 213 214 206 .058 -.04305 -.063097 18 213 45910 216
 220 202 207 209 ?1 29 214 46260 0 202 217 209 .063 -.03805 -.063097 18 202 4591
2 218 219 203 213 214 ?1 29 217 46261 0 212 222 214 .052 -.04305 -.039197 18 212
 45928 225 224 207 221 217 ?1 29 222 46262 0 221 223 217 -.052 -.03405 -.039197
 18 221 45842 226 227 212 229 222 ?1 29 223 46267 0 228 230 222 .052 .04305 -.06
3097 18 228 45932 232 235 234 231 223 ?1 29 230 46268 0 234 233 223 .052 .03405
 -.063097 18 234 45934 240 236 238 228 230 ?1 29 233 46270 0 229 237 230 .063 .0
3195 -.063097 18 229 45942 239 241 221 245 233 ?1 29 237 46271 0 238 242 233 .06
3 .03805 -.063097 18 238 45938 243 244 245 234 237 ?1 29 242 46272 0 245 247 237
 .058 .04305 -.063097 18 245 45852 250 249 229 238 242 ?1 29 247 46275 0 231 246
 242 .063 .03195 -.039197 18 231 45944 248 254 228 255 247 ?1 29 246 46276 0 255
 252 247 .052 .03405 -.039197 18 255 45936 253 251 231 258 246 ?1 29 252 46277 0
 258 260 246 -.052 .04305 -.039197 18 258 45834 256 259 255 257 252 ?1 29 260 46
960 0 257 261 252 -.053 .03195 -.039197 18 257 46870 265 263 258 262 260 ?1 29 2
61 46962 0 262 264 260 -.053 -.03405 -.063097 18 262 46858 46 266 257 270 261 ?1
 29 264 46963 0 270 268 261 -.053 -.03195 -.063097 18 270 46862 267 269 262 271
 264 ?1 29 268 46964 0 271 275 264 -.053 -.03195 -.039197 18 271 46866 272 273 2
70 274 268 ?1 29 275 46965 0 274 277 268 -.053 .03195 -.063097 18 274 46874 44 2
80 271 279 275 ?1 29 277 47587 0 279 276 275 .053 -.03195 -.039197 18 279 47495
 278 281 274 282 277 ?1 29 276 47588 0 282 284 277 .053 .03195 -.039197 18 282 4
7489 283 285 279 287 276 ?1 29 284 47591 0 287 290 276 .053 .03405 -.063097 18 2
87 47481 32 289 282 286 284 ?1 29 290 47592 0 286 288 284 .053 .03195 -.063097 1
8 286 47485 295 291 287 293 290 ?1 29 288 47593 0 293 0 290 .053 -.03195 -.06309
7 18 293 47493 292 294 286 0 288 ?1 81 1 292 47494 35 293 0 0 283 278 296 17 294
 0 300 297 298 293 215 299 0 302 -15 255 300 46057 0 142 305 0 17 297 0 300 142
 294 279 302 304 0 301 +17 298 0 300 294 142 207 303 309 0 0 -17 215 0 310 307 3
08 207 294 299 0 306 +16 299 45717 313 ?215 315 311 314 0 0 1 17 302 0 312 41 30
1 293 297 304 0 308 -15 312 44928 0 39 316 0 17 41 0 312 39 302 12 308 320 0 318
 +17 301 0 312 302 317 279 319 321 0 0 -16 304 47442 325 ?297 323 321 322 0 0 1
 17 308 0 310 215 318 293 41 320 0 0 -15 310 46040 0 324 326 330 17 318 0 310 30
8 324 12 40 311 0 0 +16 320 47385 327 ?41 328 0 329 0 0 1 81 1 327 47387 35 320
 0 0 332 335 334 16 328 47382 332 ?317 331 320 333 0 0 1 30 255 329 47563 0 320
 333 336 0 +.053 854201210990634e-32 -.063097 -161182204504233e-30 -1 0 30 333 4
7564 0 328 337 329 0 +.053 .03195 -.190555127600431 197391270825623e-46 31815960
181566e-61 1 30 336 46942 0 323 329 339 0 +-.053 854201210990633e-32 -.063097 16
1182204504233e-30 -1 0 16 323 46821 338 ?340 342 304 336 0 0 1 30 339 46941 0 34
5 336 344 0 +-.053 .03195 -.190555127600431 197391270825623e-46 -31815960181566e
-61 -1 16 345 46760 341 ?343 350 346 339 0 0 1 30 344 46940 0 342 339 348 0 +-.0
53 -.031952 -.039197 161182204504233e-30 -1 0 16 342 46792 347 ?349 351 323 344
 0 0 1 30 348 46939 0 351 344 355 0 +-.053 -.03195 -.190555127600431 19739127082
5623e-46 -31815960181566e-61 -1 16 351 46781 352 ?353 346 342 348 0 0 1 30 355 4
6938 0 346 348 354 0 +-.053 854201210990633e-32 -.063097 161182204504233e-30 -1
 0 16 346 46768 357 ?360 345 351 355 0 0 1 30 354 46213 0 350 355 359 0 +-.052 .
03855 -.039197 161182204504233e-30 1 0 16 350 45827 356 ?358 364 345 354 0 0 1 3
0 359 46212 0 364 354 365 0 +.052002 .04305 -.039197 -1 161182204504233e-30 0 16
 364 45555 362 ?363 361 350 359 0 0 1 30 365 46211 0 361 359 368 0 +.052002 .034
05 -.039197 -1 161182204504233e-30 0 16 361 45824 370 ?366 369 364 365 0 0 1 30
 368 46210 0 369 365 367 0 +.052 .03855 -.039197 161182204504233e-30 -1 0 16 369
 45821 371 ?375 373 361 368 0 0 1 30 367 46209 0 373 368 372 0 +.0585 .03195 -.0
39197 1 0 0 16 373 45818 374 ?376 380 369 367 0 0 1 30 372 46208 0 380 367 378 0
 +.063 -.031952 -.039197 0 1 0 16 380 45737 377 ?379 381 373 372 0 0 1 30 378 46
206 0 381 372 385 0 +.0585 -.03195 -.039197 -1 0 0 16 381 45812 382 ?281 383 380
 378 0 0 1 30 385 46205 0 384 378 387 0 +0 .03405 -.063097 -1 0 0 16 384 45789 3
90 ?236 389 386 385 0 0 1 30 387 46202 0 386 385 388 0 +.063 0 -.063097 0 -1 0 1
6 386 45786 391 ?392 384 394 387 0 0 1 30 388 46201 0 393 387 395 0 +0 .04305 -.
063097 -1 0 0 16 393 45552 397 ?400 399 396 388 0 0 1 31 395 46200 0 394 388 398
 0 +.058 .03805 -.063097 0 0 -1 -1 0 0 .005 16 394 45783 405 ?401 386 383 395 0
 0 1 30 398 46199 0 399 395 403 0 +.063 .03195 -.034997 0 0 1 16 399 45809 402 ?
254 404 393 398 0 0 1 30 403 46198 0 404 398 406 0 +-.0985256419948236 .03195 -.
063097 1 0 0 16 404 45806 410 ?241 407 399 403 0 0 1 31 406 46197 0 383 403 408
 0 +.05765 .0377 -.063097 0 0 -1 -1 0 0 .004 16 383 45526 409 ?412 394 381 406 0
 0 1 30 408 46193 0 396 406 415 0 +.052 -3227673645197265e-32 -.063097 161182204
504233e-30 -1 0 16 396 45795 414 ?411 393 413 408 0 0 1 30 415 46192 0 389 408 4
19 0 +.052 .03405 -.190555127600431 0 0 1 16 389 45798 420 ?251 413 384 415 0 0
 1 30 419 46191 0 413 415 417 0 +.052 .04305 -.025997 0 0 -1 16 413 45792 418 ?2
35 396 389 419 0 0 1 30 417 46189 0 407 419 416 0 +-.052 -.03855 -.039197 161182
204504233e-30 1 0 16 407 45780 423 ?425 421 404 417 0 0 1 30 416 46188 0 421 417
 424 0 +.052002 -.03405 -.039197 -1 161182204504233e-30 0 16 421 45685 422 ?426
 430 407 416 0 0 1 30 424 46187 0 430 416 428 0 +.052002 -.04305 -.039197 -1 161
182204504233e-30 0 16 430 45777 427 ?429 431 421 424 0 0 1 30 428 46186 0 431 42
4 435 0 +.052 -.03855 -.039197 161182204504233e-30 -1 0 16 431 45774 433 ?432 43
4 430 428 0 0 1 30 435 46185 0 311 428 436 0 +0 -.03405 -.063097 1 0 0 16 311 45
714 440 ?318 299 434 435 0 0 1 30 436 46182 0 315 435 437 0 +.063 0 -.063097 0 -
1 0 16 315 45720 438 ?307 439 299 436 0 0 1 30 437 46181 0 442 436 445 0 +0 -.04
305 -.063097 -1 0 0 16 442 45726 444 ?441 309 439 437 0 0 1 31 445 46180 0 439 4
37 443 0 +.058 -.03805 -.063097 0 0 -1 -1 0 0 .005 16 439 45723 446 ?447 442 315
 445 0 0 1 30 443 46179 0 309 445 314 0 +.063 -.03195 -.034997 0 0 1 16 309 4573
4 449 ?303 448 442 443 0 0 1 30 314 46178 0 299 443 450 0 +-.0985256419948236 -.
03195 -.063097 1 0 0 31 450 46177 0 434 314 452 0 +.05765 -.0377 -.063097 0 0 -1
 -1 0 0 .004 16 434 45518 455 ?454 311 431 450 0 0 1 30 452 46173 0 451 450 453
 0 +.052 -.04305 -.025997 0 0 -1 16 451 45691 460 ?208 456 458 452 0 0 1 30 453
 46172 0 448 452 457 0 +.052 -3227673645197265e-32 -.063097 161182204504233e-30
 -1 0 16 448 45771 459 ?461 458 309 453 0 0 1 30 457 46171 0 458 453 465 0 +.052
 -.03405 -.190555127600431 0 0 1 16 458 45682 462 ?463 451 448 457 0 0 1 30 465
 46167 0 456 457 464 0 +-.0585 .03195 -.039197 1 0 0 16 456 45711 467 ?263 470 4
51 465 0 0 1 30 464 46165 0 470 465 469 0 +-.063 -.031952 -.039197 0 1 0 16 470
 45708 466 ?468 474 456 464 0 0 1 30 469 46164 0 474 464 475 0 +-.0585 -.03195 -
.039197 -1 0 0 16 474 45705 472 ?473 471 470 469 0 0 1 30 475 46160 0 471 469 47
8 0 +-.052 -452116083634373e-32 -.063097 -161182204504233e-30 -1 0 16 471 45638
 480 ?476 479 474 475 0 0 1 30 478 46159 0 479 475 477 0 +-.052 -.03405 -.190555
127600431 0 0 1 16 479 45537 481 ?227 485 471 478 0 0 1 30 477 46158 0 485 478 4
83 0 +-.052 -.04305 -.025997 0 0 -1 16 485 45534 482 ?190 484 479 477 0 0 1 31 4
83 46154 0 484 477 486 0 +-.05765 -.0377 -.063097 0 0 -1 -1 0 0 .004 16 484 4551
0 490 ?488 487 485 483 0 0 1 30 486 46153 0 487 483 489 0 +-.0985256419948236 -.
03195 -.063097 1 0 0 16 487 45650 491 ?269 495 484 486 0 0 1 30 489 46152 0 495
 486 492 0 +-.063 -.03195 .0082 0 0 1 16 495 45658 493 ?193 494 487 489 0 0 1 30
 492 46151 0 494 489 497 0 +0 -.04305 -.063097 -1 0 0 16 494 45641 500 ?499 496
 495 492 0 0 1 31 497 46150 0 496 492 498 0 +-.058 -.03805 -.063097 0 0 -1 -1 0
 0 .005 16 496 45644 501 ?502 504 494 497 0 0 1 30 498 46149 0 504 497 503 0 +-.
063 0 -.063097 0 1 0 16 504 45647 505 ?183 507 496 498 0 0 1 30 503 46146 0 507
 498 510 0 +0 -.03405 -.063097 -1 0 0 16 507 45688 509 ?506 508 504 503 0 0 1 30
 510 46145 0 515 503 511 0 +0 .03405 -.063097 -1 0 0 16 515 45599 513 ?52 512 51
4 510 0 0 1 30 511 46142 0 512 510 516 0 +-.063 0 -.063097 0 1 0 16 512 45602 52
0 ?517 518 515 511 0 0 1 30 516 46141 0 519 511 522 0 +0 .04305 -.063097 -1 0 0
 16 519 45561 525 ?524 521 523 516 0 0 1 31 522 46140 0 518 516 529 0 +-.058 .03
805 -.063097 0 0 -1 -1 0 0 .005 16 518 45605 530 ?527 528 512 522 0 0 1 30 529 4
6139 0 521 522 526 0 +-.063 .03195 .0082 0 0 1 16 521 45570 533 ?535 531 519 529
 0 0 1 30 526 46138 0 534 529 532 0 +-.0985256419948236 .03195 -.063097 1 0 0 16
 534 45543 536 ?280 523 508 526 0 0 1 31 532 46137 0 531 526 540 0 +-.05765 .037
7 -.063097 0 0 -1 -1 0 0 .004 16 531 45502 538 ?537 514 521 532 0 0 1 30 540 461
33 0 508 532 539 0 +-.052 .03405 -.190555127600431 0 0 1 16 508 45540 541 ?545 5
34 507 540 0 0 1 30 539 46132 0 514 540 543 0 +-.052 -452116083634373e-32 -.0630
97 -161182204504233e-30 -1 0 16 514 45596 542 ?544 515 531 539 0 0 1 30 543 4613
1 0 523 539 546 0 +-.052 .04305 -.025997 0 0 -1 16 523 45558 550 ?156 519 534 54
3 0 0 1 31 546 45356 0 528 543 547 0 +.05765 .0377 -.027997 0 1224646799147352e-
31 -1 0 1 1224646799147352e-31 .004 16 528 45258 548 ?549 552 518 546 0 0 1 31 5
47 45354 0 555 546 554 0 +-.05765 .0377 -.027997 0 -1224646799147352e-31 1 0 1 1
224646799147352e-31 .004 16 555 45185 551 ?553 556 552 547 0 0 1 31 554 45352 0
 552 547 557 0 +.05765 -.0377 -.027997 0 -1224646799147352e-31 1 0 1 12246467991
47352e-31 .004 16 552 45223 559 ?558 555 528 554 0 0 1 31 557 45350 0 556 554 56
0 0 +-.05765 -.0377 -.027997 0 1224646799147352e-31 -1 0 1 1224646799147352e-31
 .004 16 556 45296 562 ?565 564 555 557 0 0 1 30 560 44968 0 37 557 561 0 +.053
 -.03405 -.033195 0 -1224646799147352e-31 1 16 37 44825 33 ?39 563 21 560 0 0 1
 30 561 44967 0 563 560 570 0 +.053 -.03855 -.033197 0 -1 -1224646799147352e-31
 16 563 44830 566 ?568 567 37 561 0 0 1 30 570 44966 0 567 561 569 0 +.053 -.043
05 -.028997 0 1224646799147352e-31 -1 16 567 44773 571 ?575 572 563 570 0 0 1 30
 569 44965 0 572 570 573 0 +.053 -.034052 -.026997 -161182204504233e-30 -1 -1224
646799147352e-31 16 572 44781 574 ?577 580 567 569 0 0 1 30 573 44964 0 580 569
 579 0 +.053 .04305 -.028997 0 1224646799147352e-31 -1 16 580 44835 576 ?578 584
 572 573 0 0 1 30 579 44963 0 584 573 585 0 +.053 .03855 -.033197 0 1 1224646799
147352e-31 16 584 44795 582 ?61 583 580 579 0 0 1 30 585 44962 0 583 579 581 0 +
.053 .03405 -.033195 0 -1224646799147352e-31 1 16 583 44805 588 ?590 586 584 585
 0 0 1 30 581 44441 0 586 585 589 0 +-.053 .04305 -.028997 0 1224646799147352e-3
1 -1 16 586 44226 587 ?591 595 583 581 0 0 1 30 589 44440 0 595 581 593 0 +-.053
 -.034052 -.026997 -161182204504233e-30 1 1224646799147352e-31 16 595 44234 592
 ?594 596 586 589 0 0 1 30 593 44439 0 596 589 600 0 +-.053 -.04305 -.028997 0 1
224646799147352e-31 -1 16 596 44298 598 ?112 597 595 593 0 0 1 30 600 44438 0 59
7 593 599 0 +-.053 -.03855 -.033197 0 -1 -1224646799147352e-31 16 597 44248 601
 ?605 602 596 600 0 0 1 30 599 44437 0 602 600 603 0 +-.053 -.03405 -.033195 0 1
224646799147352e-31 -1 16 602 44301 604 ?266 55 597 599 0 0 1 30 603 44435 0 55
 599 607 0 +-.053 .03405 -.033195 0 1224646799147352e-31 -1 16 55 44278 610 ?43
 609 602 603 0 0 1 30 607 44434 0 609 603 606 0 +-.053 .03855 -.033197 0 1 12246
46799147352e-31 16 609 44309 608 ?103 611 55 607 0 0 1 31 606 42879 0 611 607 61
2 0 -.058 -.03805 -.026997 0 -1224646799147352e-31 1 -1 0 0 .005 16 611 42553 61
4 ?613 615 609 606 0 0 1 30 612 42878 0 615 606 617 0 +-.039 -.04305 -.026997 1
 -161182204504233e-30 -197391270825623e-46 16 615 42579 620 ?619 616 611 612 0 0
 1 31 617 42876 0 616 612 618 0 +.05765 -.0377 -.026997 0 -1224646799147352e-31
 1 -1 0 0 .00285 16 616 42567 625 ?621 623 615 617 0 0 1 31 618 42864 0 622 617
 624 0 --.05765 -.0377 -.026997 0 -1224646799147352e-31 1 -1 0 0 .00285 16 622 4
2349 626 ?630 627 628 618 0 0 1 31 624 42863 0 627 618 629 0 --.058 -.03805 -.02
6997 0 -1224646799147352e-31 1 -1 0 0 .005 16 627 42329 632 ?635 634 622 624 0 0
 1 30 629 42862 0 634 624 631 0 +-.063 -.034052 -.026997 0 1 1224646799147352e-3
1 16 634 42323 633 ?74 639 627 629 0 0 1 30 631 42859 0 639 629 640 0 +-.039 -.0
4305 -.026997 1 -161182204504233e-30 -197391270825623e-46 16 639 42340 637 ?113
 638 634 631 0 0 1 30 640 42847 0 623 631 636 0 +-.039 .04305 -.026997 1 -161182
204504233e-30 -197391270825623e-46 16 623 42418 643 ?645 641 616 640 0 0 1 30 63
6 42844 0 641 640 644 0 +.063 -.034052 -.026997 0 1 1224646799147352e-31 16 641
 42465 642 ?646 650 623 636 0 0 1 31 644 42843 0 650 636 648 0 -.058 .03805 -.02
6997 0 -1224646799147352e-31 1 -1 0 0 .005 16 650 42448 647 ?649 628 641 644 0 0
 1 31 648 42842 0 628 644 651 0 -.05765 .0377 -.026997 0 -1224646799147352e-31 1
 -1 0 0 .00285 16 628 42468 655 ?653 622 650 648 0 0 1 31 651 42828 0 638 648 65
2 0 --.058 .03805 -.026997 0 -1224646799147352e-31 1 -1 0 0 .005 16 638 42670 65
4 ?656 660 639 651 0 0 1 30 652 42827 0 660 651 657 0 +-.039 .04305 -.026997 1 -
161182204504233e-30 -197391270825623e-46 16 660 42664 658 ?118 659 638 652 0 0 1
 31 657 42825 0 659 652 662 0 +-.05765 .0377 -.026997 0 -1224646799147352e-31 1
 -1 0 0 .00285 16 659 42682 665 ?664 661 660 657 0 0 1 30 662 22709 0 663 657 66
6 0 +-.039 .04305 -.033197 1 -161182204504233e-30 -197391270825623e-46 16 663 22
481 667 ?669 668 670 662 0 0 1 30 666 22707 0 670 662 672 0 +-.039 .03405 -.0331
97 1 -161182204504233e-30 -197391270825623e-46 16 670 22458 675 ?124 663 674 666
 0 0 1 30 672 22698 0 674 666 671 0 +-.039 -.03405 -.033197 1 -161182204504233e-
30 -197391270825623e-46 16 674 22585 673 ?36 670 661 672 0 0 1 30 671 22695 0 66
1 672 680 0 +-.039 -.04305 -.033197 1 -161182204504233e-30 -197391270825623e-46
 16 661 22572 676 ?65 674 659 671 0 0 1 30 680 1189 0 668 671 678 0 --.063 .0380
5 -.076394 0 -1224646799147352e-31 1 16 668 1187 677 ?172 679 663 680 0 0 1 30 6
78 1194 0 679 680 681 0 +-.063 -.03805 -.076394 0 -1224646799147352e-31 1 16 679
 1192 685 ?88 682 668 678 0 0 1 30 681 1229 0 682 678 683 0 +.058 -.04305 -.0702
94 0 -1224646799147352e-31 1 16 682 1227 684 ?92 687 679 681 0 0 1 30 683 1234 0
 687 681 690 0 --.058 -.04305 -.076394 0 -1224646799147352e-31 1 16 687 1232 689
 ?176 686 682 683 0 0 1 30 690 1297 0 686 683 688 0 +.063 .03805 -.076394 0 -122
4646799147352e-31 1 16 686 1295 694 ?83 695 687 690 0 0 1 30 688 1302 0 695 690
 692 0 -.063 -.03805 -.076394 0 -1224646799147352e-31 1 16 695 1300 693 ?219 30
 686 688 0 0 1 30 692 1307 0 30 688 29 0 -.058 .04305 -.076394 0 -12246467991473
52e-31 1 16 30 1305 691 ?249 11 695 692 0 0 1 30 29 1312 0 11 692 698 0 +-.058 .
04305 -.070294 0 -1224646799147352e-31 1 31 698 45124 0 564 29 700 0 +.05765 -.0
377 -.027997 0 1224646799147352e-31 -1 0 1 1224646799147352e-31 .00285 16 564 45
220 696 ?699 697 556 698 0 0 1 31 700 45131 0 697 698 22 0 -.05765 .0377 -.02799
7 0 1224646799147352e-31 -1 0 1 1224646799147352e-31 .00285 16 697 45261 701 ?70
5 703 564 700 0 0 1 31 22 45138 0 703 700 8 0 --.05765 -.0377 -.027997 0 1224646
799147352e-31 -1 0 1 1224646799147352e-31 .00285 16 703 45299 702 ?704 21 697 22
 0 0 1 81 1 702 45368 35 703 0 0 706 710 708 17 704 0 707 704 704 0 709 703 0 0
 +16 21 45182 710 ?711 37 703 8 0 0 1 81 1 710 45369 35 21 0 0 702 696 715 17 71
1 0 712 711 711 0 713 21 0 0 +15 712 45143 0 711 714 0 17 713 0 717 713 713 0 71
1 21 0 0 -15 717 45204 0 713 720 719 14 255 720 45201 716 ?718 721 717 6 722 +0
 0 718 721 24 15 719 45205 0 724 720 0 17 724 0 719 724 724 0 553 555 0 0 -17 55
3 0 723 553 553 0 724 555 0 0 +15 723 45199 0 553 721 725 14 721 45196 727 ?720
 730 723 6 729 +0 0 720 730 24 15 725 45949 0 537 721 0 17 537 0 725 537 537 0 7
26 531 0 0 +17 726 0 728 726 726 0 537 531 0 0 -15 728 46001 0 726 735 731 14 73
5 45998 733 ?732 734 728 6 736 +0 0 732 734 24 15 731 46002 0 740 735 0 17 740 0
 731 544 527 153 524 519 0 0 -17 544 0 731 52 740 155 737 514 0 47 +17 527 0 731
 740 517 160 738 518 0 0 +17 524 0 739 27 156 160 740 519 0 527 +15 739 40874 0
 669 742 0 17 27 0 739 118 524 66 166 11 0 745 +17 156 0 739 524 363 153 259 523
 0 737 +17 363 0 739 156 744 258 741 364 0 358 +17 259 0 743 134 737 258 156 523
 0 363 -17 737 0 743 259 161 153 544 514 0 740 -15 743 45969 0 134 718 0 17 161
 0 743 737 134 155 545 508 0 544 -17 134 0 743 161 259 135 358 350 0 545 -17 545
 0 48 749 47 135 161 508 0 366 +15 48 47333 0 750 17 0 17 749 0 48 747 545 255 3
66 361 0 0 -17 47 0 48 545 43 155 52 515 0 0 -17 366 0 748 358 375 135 749 361 0
 0 +15 748 46090 0 741 746 0 17 358 0 748 741 366 258 134 350 0 0 +17 375 0 748
 366 741 255 136 369 0 749 +17 741 0 748 375 358 137 363 364 0 0 -17 136 0 753 2
35 251 137 375 369 0 744 -15 753 46074 0 136 755 0 17 235 0 753 411 136 228 744
 413 0 751 +17 251 0 753 136 411 255 747 389 0 375 +17 744 0 739 363 400 137 235
 413 0 741 -17 400 0 739 744 249 228 754 393 0 0 +17 249 0 739 400 645 245 79 30
 0 752 +17 754 0 756 401 751 245 400 393 0 0 -15 756 47634 0 760 758 757 17 401
 0 756 392 754 238 752 394 0 759 +17 751 0 756 754 236 228 411 396 0 400 -17 236
 0 756 751 760 234 750 384 0 411 +17 411 0 753 251 235 234 751 396 0 747 +17 747
 0 48 750 749 234 251 389 0 0 -17 750 0 48 590 747 287 236 384 0 0 -17 590 0 48
 49 750 120 289 583 0 761 +17 49 0 48 43 590 67 124 670 0 0 -17 289 0 312 765 76
1 287 590 583 0 760 -17 761 0 312 289 578 120 61 584 0 0 -17 578 0 312 761 763 5
7 762 580 0 0 +17 61 0 764 766 124 57 761 584 0 669 +15 764 44687 0 61 770 0 17
 766 0 764 767 61 99 669 663 0 0 -17 124 0 764 61 767 120 49 670 0 590 +17 669 0
 739 762 591 57 766 663 0 578 +17 762 0 739 645 669 121 578 580 0 763 -17 591 0
 739 669 118 99 768 586 0 766 +17 118 0 739 591 27 116 745 660 0 768 +17 768 0 7
69 772 103 116 591 586 0 594 -15 769 44401 0 768 775 0 17 772 0 769 112 768 115
 594 595 0 0 -17 103 0 769 768 51 99 767 609 0 591 +17 594 0 774 745 113 116 772
 595 0 0 +15 774 42410 0 113 771 773 17 745 0 774 776 594 66 118 660 0 656 -17 1
13 0 774 594 777 115 779 639 0 778 +17 777 0 774 113 780 82 635 627 0 0 -17 779
 0 782 176 778 82 113 639 0 777 -17 778 0 782 779 785 115 112 596 0 772 -15 782
 44488 0 785 784 0 17 785 0 782 778 575 107 65 661 0 0 -17 112 0 769 110 772 107
 778 596 0 605 +17 110 0 769 266 112 102 605 597 0 781 -17 605 0 783 65 790 107
 110 597 0 785 +15 783 44698 0 54 786 0 17 65 0 783 54 605 62 785 661 0 568 +17
 790 0 783 605 54 102 36 674 0 0 -17 54 0 783 790 65 42 568 563 0 36 -17 36 0 38
 28 781 42 790 674 0 39 +15 38 46709 0 28 788 0 17 781 0 38 36 506 102 266 602 0
 790 -17 39 0 312 568 41 42 28 37 0 0 +17 568 0 312 787 39 62 54 563 0 575 +17 7
87 0 312 763 568 128 575 567 0 577 -17 575 0 782 785 131 62 787 567 0 0 +17 131
 0 782 575 92 128 619 615 0 787 -17 92 0 782 131 789 89 220 682 0 619 +17 619 0
 791 795 577 89 131 615 0 613 +15 791 42529 0 126 792 793 17 795 0 791 646 619 9
6 613 611 0 0 -17 577 0 791 619 126 128 763 572 0 0 +17 613 0 794 220 797 89 795
 611 0 0 +15 794 30963 0 797 800 0 17 220 0 794 799 613 213 92 682 0 447 -17 797
 0 794 613 799 96 219 695 0 795 -17 799 0 794 797 220 202 447 439 0 0 -17 219 0
 796 306 97 202 797 695 0 307 +15 796 31030 0 83 798 0 17 306 0 796 303 219 207
 307 315 0 298 -17 97 0 796 219 83 96 646 641 0 797 -17 307 0 310 447 215 202 30
6 315 0 799 +17 447 0 310 441 307 213 799 439 0 789 +17 441 0 310 324 447 196 78
9 442 0 0 +17 789 0 782 92 208 213 441 442 0 0 -17 208 0 782 789 804 196 224 451
 0 461 +17 804 0 782 208 805 212 429 430 0 0 -17 224 0 802 198 461 212 208 451 0
 432 -17 461 0 802 224 204 196 324 448 0 441 +15 802 46061 0 198 803 0 17 204 0
 802 461 198 203 463 458 0 324 -17 324 0 310 318 441 203 461 448 0 40 -17 40 0 3
8 463 28 203 318 311 0 0 -17 463 0 38 426 40 199 204 458 0 801 +17 426 0 38 808
 463 221 801 421 0 425 +17 801 0 810 432 425 199 426 421 0 0 -15 810 46065 0 801
 806 0 17 432 0 810 429 801 212 198 431 0 804 +17 425 0 810 801 429 221 150 407
 0 0 +17 429 0 810 425 432 143 804 430 0 0 +17 150 0 809 190 227 143 425 407 0 8
05 -15 809 45973 0 150 807 0 17 190 0 809 192 150 182 805 485 0 476 +17 227 0 80
9 150 192 221 808 479 0 426 +17 805 0 782 804 811 143 190 485 0 429 -17 811 0 78
2 805 176 182 499 494 0 0 -17 176 0 782 811 779 177 95 687 0 499 +17 499 0 815 5
02 476 177 811 494 0 813 +15 815 46016 0 812 732 0 17 502 0 815 183 499 158 813
 496 0 814 +17 476 0 815 499 812 182 192 471 0 811 +17 813 0 816 95 175 177 502
 496 0 0 -15 816 30978 0 95 820 0 17 95 0 816 635 813 82 176 687 0 779 -17 175 0
 816 813 635 158 88 679 0 502 -17 635 0 816 175 95 76 777 627 0 0 +17 88 0 818 7
4 814 76 175 679 0 780 +15 818 37127 0 88 817 0 17 74 0 818 172 88 71 780 634 0
 819 +17 814 0 818 88 821 158 183 504 0 0 -17 780 0 774 777 776 76 74 634 0 635
 -17 776 0 774 780 745 71 656 638 0 0 -17 656 0 825 166 819 66 776 638 0 0 +15 8
25 30948 0 819 822 0 17 166 0 825 738 656 160 27 11 0 524 -17 819 0 825 656 738
 71 172 668 0 776 -17 738 0 825 819 166 167 527 518 0 0 -17 172 0 818 164 74 167
 819 668 0 517 +17 164 0 818 535 172 165 517 512 0 823 -17 517 0 731 527 823 167
 164 512 0 738 +17 823 0 731 517 340 165 280 534 0 824 -17 340 0 731 823 52 274
 827 323 0 343 +17 280 0 830 829 824 274 823 534 0 340 +17 824 0 830 280 151 165
 535 521 0 0 -15 830 45981 0 151 734 0 17 151 0 830 824 829 146 263 456 0 535 -1
7 535 0 818 826 164 146 824 521 0 468 +17 826 0 818 821 535 195 468 470 0 0 -17
 468 0 828 263 473 146 826 470 0 0 +15 828 46036 0 263 831 0 17 263 0 828 349 46
8 257 151 456 0 829 +17 473 0 828 468 349 195 273 474 0 826 +17 349 0 828 473 26
3 271 832 342 0 834 +17 273 0 833 353 193 271 473 474 0 349 -15 833 46024 0 273
 835 0 17 353 0 833 837 273 270 834 351 0 840 +17 193 0 833 273 837 195 821 495
 0 473 +17 837 0 833 193 353 178 269 487 0 0 -17 821 0 818 814 826 178 193 495 0
 837 -17 269 0 815 360 183 270 837 487 0 353 +17 360 0 815 812 269 262 840 346 0
 0 +17 183 0 815 269 502 178 814 504 0 821 +17 812 0 815 476 360 187 506 507 0 0
 -17 840 0 769 834 266 270 360 346 0 0 -17 834 0 769 832 840 271 353 351 0 0 -17
 266 0 769 840 110 262 781 602 0 506 +17 506 0 38 781 808 262 812 507 0 360 +17
 808 0 38 506 426 187 227 479 0 812 -17 832 0 769 343 834 257 349 342 0 0 -17 34
3 0 769 827 832 274 829 345 0 0 +17 827 0 769 51 343 34 340 323 0 0 -17 829 0 83
0 151 280 257 343 345 0 832 -17 51 0 769 103 827 67 43 55 0 767 -17 767 0 764 12
4 766 67 103 609 0 49 -14 835 46021 839 ?831 732 833 6 836 +0 0 831 732 24 81 1
 839 47706 838 835 845 0 841 843 842 14 831 46033 843 ?326 835 828 6 844 -0 0 32
6 835 24 14 732 46012 841 ?835 735 846 6 850 +0 0 835 735 24 50 255 836 46107 0
 835 847 850 0 +0 -.03195 -.043547 0 1 0 -1 0 0 13 24 90 0 0 0 0 0 0 10 17 14 17
 6256 848 ?788 0 48 6 849 +0 0 788 0 24 81 1 848 47673 838 17 852 0 0 855 854 14
 788 6244 855 ?714 17 38 6 851 -0 0 714 17 24 50 849 6297 0 17 853 851 0 +0 .034
05 -.024197 0 -1 -1224646799147352e-31 0 1224646799147352e-31 -1 50 853 21778 0
 786 859 849 0 +-.051 -.034052 -.033197 0 -1224646799147352e-31 1 -1 0 0 50 851
 6295 0 788 849 860 0 +0 -.03405 -.024197 0 -1 -1224646799147352e-31 0 122464679
9147352e-31 -1 50 860 242 0 742 851 857 0 +0 .04305 -.076394 0 1 122464679914735
2e-31 0 -1224646799147352e-31 1 14 742 227 858 ?784 770 739 6 860 +0 0 784 770 2
4 50 857 243 0 817 860 856 0 +-.063 480024805861788e-32 -.076394 1 0 0 0 -122464
6799147352e-31 1 14 817 229 863 ?820 798 818 6 857 -0 0 820 798 24 50 856 244 0
 784 857 865 0 +0 -.04305 -.076394 0 1 1224646799147352e-31 0 -1224646799147352e
-31 1 14 784 231 861 ?798 742 782 6 856 -0 0 798 742 24 50 865 245 0 798 856 864
 0 +.063 480024805861788e-32 -.076394 1 0 0 0 -1224646799147352e-31 1 14 798 233
 862 ?817 784 796 6 865 +0 0 817 784 24 51 864 1342 0 820 865 866 0 +-.058 -.038
05 -.076394 0 -1224646799147352e-31 1 .005 -1 0 0 14 820 1330 870 ?800 817 816 6
 864 +0 0 800 817 24 51 866 1363 0 800 864 20 0 +.058 -.03805 -.076394 0 1224646
799147352e-31 -1 .005 1 0 0 14 800 1351 868 ?822 820 794 6 866 +0 0 822 820 24 5
1 20 1384 0 822 866 7 0 +-.058 .03805 -.076394 0 1224646799147352e-31 -1 .005 1
 0 0 14 822 1372 867 ?19 800 825 6 20 +0 0 19 800 24 81 1 867 47687 838 822 869
 0 868 871 875 14 19 1393 871 ?771 822 873 6 7 +0 0 771 822 24 81 1 871 47688 83
8 19 872 0 867 874 876 14 771 42407 874 ?792 19 774 6 880 +0 0 792 19 24 15 873
 30933 0 79 19 0 17 79 0 873 649 752 80 249 30 0 645 -17 649 0 873 244 79 85 877
 650 0 0 +17 752 0 873 79 244 245 401 394 0 754 -17 645 0 739 249 762 80 126 623
 0 877 +17 126 0 791 577 877 121 645 623 0 762 -17 877 0 791 126 646 80 649 650
 0 0 -17 646 0 791 877 795 85 97 641 0 649 +17 244 0 873 752 649 238 83 686 0 40
1 -17 83 0 796 97 759 85 244 686 0 646 +17 759 0 796 83 878 238 392 386 0 0 -17
 878 0 796 759 379 229 254 399 0 0 -17 392 0 756 291 401 229 759 386 0 878 +17 2
91 0 756 760 392 286 241 404 0 765 -17 760 0 756 236 291 287 765 331 0 750 -17 2
41 0 879 254 882 229 291 404 0 392 +17 765 0 312 317 289 286 760 331 0 882 +17 3
17 0 312 301 765 282 882 328 0 0 +16 331 47379 885 ?765 321 328 337 0 0 1 17 882
 0 879 241 285 286 317 328 0 0 -15 879 46082 0 285 884 0 17 285 0 879 882 254 28
2 376 373 0 319 -17 254 0 879 285 241 231 878 399 0 379 +17 376 0 881 883 319 23
1 285 373 0 0 +17 319 0 881 376 281 282 301 321 0 317 +15 881 46086 0 883 886 0
 17 281 0 881 319 883 279 142 381 0 297 +16 321 47436 335 ?319 304 331 887 0 0 1
 81 1 335 47438 35 321 0 0 327 325 889 30 887 47569 0 321 322 337 0 +.053 -.0319
52 -.039197 161182204504233e-30 1 0 30 322 47570 0 304 0 887 0 +.053 -.03195 -.1
90555127600431 197391270825623e-46 31815960181566e-61 1 30 337 47565 0 331 887 3
33 0 +.053 854201210990634e-32 -.063097 -161182204504233e-30 -1 0 80 7 CCCCCDI12
 legal_owners0 17 1 lCZ1 35 888 890 9000 0 0 0 0 3 6 0 0 0 FFTFTFTTFFFFFFFFF1 81
 1 325 47444 35 304 0 0 335 295 892 82 255 3 889 320 15 1 81 1 295 47486 35 286
 0 0 325 283 895 82 3 892 320 19 1 81 1 283 47490 35 282 0 0 295 292 894 82 3 89
5 320 1 0 82 3 894 320 9 0 79 255 9 890 BTI/DetId17 883 0 881 281 376 138 379 38
0 0 0 -17 142 0 300 298 297 138 281 381 0 303 -17 303 0 796 379 306 138 298 309
 0 883 +17 379 0 796 878 303 231 883 380 0 376 +14 886 46083 891 ?746 884 881 6
 893 -0 0 746 884 24 81 1 891 47715 838 886 900 0 896 898 897 14 746 46087 898 ?
0 886 748 6 899 -0 0 0 886 24 14 884 46079 896 ?886 755 879 6 901 +0 0 886 755 2
4 50 893 46124 0 886 899 905 0 +.0585 -.031952 -.039197 0 0 1 1 0 0 50 899 46125
 0 746 0 893 0 +.052002 .03855 -.039197 0 0 1 1 0 0 50 905 46122 0 758 893 901 0
 +0 0 -.063097 0 0 -1 1 0 0 14 758 46066 902 ?755 806 756 6 905 +0 0 755 806 24
 50 901 46121 0 884 905 903 0 +0 .03195 -.043547 0 -1 0 1 0 0 50 903 46119 0 755
 901 904 0 +.052 -3227673645197265e-32 -.023997 -1 -161182204504233e-30 0 161182
204504233e-30 -1 0 14 755 46071 907 ?884 758 753 6 903 +0 0 884 758 24 50 904 46
118 0 806 903 910 0 +.052002 -.03855 -.039197 0 0 1 1 0 0 14 806 46062 909 ?758
 803 810 6 904 -0 0 758 803 24 50 910 46116 0 326 904 906 0 +0 0 -.063097 0 0 -1
 1 0 0 14 326 46037 908 ?305 831 310 6 910 +0 0 305 831 24 50 906 46115 0 305 91
0 914 0 +0 -.03195 -.043547 0 1 0 -1 0 0 14 305 46054 915 ?803 326 300 6 906 +0
 0 803 326 24 50 914 46113 0 803 906 844 0 +.052 -3227673645197265e-32 -.023997
 -1 -161182204504233e-30 0 161182204504233e-30 -1 0 14 803 46058 912 ?806 305 80
2 6 914 +0 0 806 305 24 50 844 46110 0 831 914 847 0 +-.0585 -.031952 -.039197 0
 0 1 1 0 0 50 847 46109 0 807 844 836 0 +-.052 -452116083634373e-32 -.023997 -1
 161182204504233e-30 0 -161182204504233e-30 -1 0 14 807 45970 913 ?734 718 809 6
 847 -0 0 734 718 24 81 1 913 47702 838 807 911 0 918 920 916 14 734 45978 920 ?
735 807 830 6 919 +0 0 735 807 24 14 718 45966 918 ?807 720 743 6 917 -0 0 807 7
20 24 81 1 918 47701 838 718 921 0 716 913 925 50 917 46098 0 718 919 923 0 +-.0
52 -452116083634373e-32 -.023997 -1 161182204504233e-30 0 -161182204504233e-30 -
1 0 50 919 46100 0 734 736 917 0 +0 .03195 -.043547 0 -1 0 1 0 0 50 923 45344 0
 922 917 924 0 +0 -3510250260334385e-33 -.027997 0 1224646799147352e-31 -1 1 0 0
 14 922 45279 926 ?930 928 927 6 923 +0 0 930 928 24 51 924 45342 0 930 923 722
 0 +.05765 .0377 -.027997 0 1224646799147352e-31 -1 .004 0 1 1224646799147352e-3
1 14 930 45274 929 ?931 922 935 6 924 -0 0 931 922 24 50 722 45341 0 720 924 729
 0 +0 -3510250260334385e-33 -.027997 0 1224646799147352e-31 -1 1 0 0 51 729 4533
9 0 721 722 932 0 --.05765 .0377 -.027997 0 1224646799147352e-31 -1 .004 0 1 122
4646799147352e-31 50 932 45338 0 730 729 933 0 +0 -3510250260334385e-33 -.027997
 0 1224646799147352e-31 -1 1 0 0 14 730 45239 934 ?721 931 937 6 932 +0 0 721 93
1 24 51 933 45336 0 931 932 940 0 -.05765 -.0377 -.027997 0 1224646799147352e-31
 -1 .004 0 1 1224646799147352e-31 14 931 45234 939 ?730 930 936 6 933 +0 0 730 9
30 24 50 940 45335 0 938 933 941 0 +0 -3510250260334385e-33 -.027997 0 122464679
9147352e-31 -1 1 0 0 14 938 45317 942 ?928 316 944 6 940 +0 0 928 316 24 51 941
 45333 0 928 940 943 0 +-.05765 -.0377 -.027997 0 1224646799147352e-31 -1 .004 0
 1 1224646799147352e-31 14 928 45312 945 ?922 938 947 6 941 -0 0 922 938 24 50 9
43 44944 0 316 941 950 0 +.053 3297280700687155e-32 -.044197 -1 161182204504233e
-30 197391270825623e-46 161182204504233e-30 1 1224646799147352e-31 14 316 44925
 949 ?938 775 312 6 943 +0 0 938 775 24 50 950 44417 0 775 943 880 0 +-.053 5217
23139124265e-32 -.044197 -1 -161182204504233e-30 -197391270825623e-46 -161182204
504233e-30 1 1224646799147352e-31 14 775 44398 946 ?316 792 769 6 950 -0 0 316 7
92 24 50 880 42805 0 771 950 948 0 +0 -12491397351303e-31 -.026997 0 -1224646799
147352e-31 1 1 0 0 50 948 42797 0 792 880 955 0 +0 -12491397351303e-31 -.026997
 0 -1224646799147352e-31 1 1 0 0 14 792 42526 951 ?775 771 791 6 948 +0 0 775 77
1 24 51 955 25923 0 953 948 952 0 -.05765 -.0377 .0916547863207508 0 12246467991
47352e-31 -1 .00285 1 0 0 14 953 25863 954 ?786 956 960 6 955 +0 0 786 956 24 51
 952 25920 0 956 955 957 0 +.05765 .0377 .0916547863207508 0 1224646799147352e-3
1 -1 .00285 1 0 0 14 956 25803 958 ?953 959 962 6 952 -0 0 953 959 24 51 957 259
17 0 959 952 859 0 +-.05765 -.0377 .0916547863207508 0 1224646799147352e-31 -1 .
00285 1 0 0 14 959 25833 965 ?956 714 964 6 957 -0 0 956 714 24 51 859 25914 0 7
14 957 853 0 --.05765 .0377 .0916547863207508 0 1224646799147352e-31 -1 .00285 1
 0 0 14 714 25893 961 ?959 788 963 6 859 +0 0 959 788 24 81 1 961 47675 838 714
 969 0 855 965 970 15 963 42758 0 664 714 712 17 664 0 963 664 664 0 967 659 0 0
 +17 967 0 968 967 967 0 664 659 0 0 -15 968 42767 0 967 771 0 80 1 838 0 966 80
01 0 0 0 0 3 5 0 0 0 FFFFTFTFFFFFFFFFF2 81 1 969 45389 35 714 0 961 973 975 971
 81 1 855 47674 838 788 974 0 848 961 972 81 1 965 47676 838 959 973 0 961 958 9
76 83 255 3 970 .764705882352941 .545098039215686 .803921568627451 81 1 973 4538
8 35 959 0 965 980 969 978 81 1 958 47677 838 956 977 0 965 954 979 83 3 976 .76
4705882352941 .545098039215686 .803921568627451 81 1 977 45391 35 956 0 958 975
 538 981 81 1 954 47678 838 953 975 0 958 985 983 83 3 979 .764705882352941 .545
098039215686 .803921568627451 81 1 975 45390 35 953 0 954 969 977 982 81 1 985 4
7679 838 786 706 0 954 984 986 83 3 983 .764705882352941 .545098039215686 .80392
1568627451 14 786 38265 985 ?770 953 783 6 853 +770 770 770 953 24 81 1 706 4505
3 35 786 0 985 990 702 987 81 1 984 47680 838 770 990 0 985 858 988 83 3 986 .76
4705882352941 .545098039215686 .803921568627451 14 770 38245 984 ?742 786 764 6
 853 +786 786 742 786 24 81 1 990 45052 35 770 0 984 989 706 992 81 1 858 47681
 838 742 995 0 984 861 994 83 3 988 .764705882352941 .545098039215686 .803921568
627451 81 1 995 46408 35 742 0 858 991 993 996 81 1 861 47682 838 784 991 0 858
 862 997 83 3 994 .764705882352941 .545098039215686 .803921568627451 81 1 991 46
407 35 784 0 861 999 995 998 81 1 862 47683 838 798 1000 0 861 863 1002 83 3 997
 .764705882352941 .545098039215686 .803921568627451 81 1 1000 46405 35 798 0 862
 869 999 1005 81 1 863 47684 838 817 999 0 862 870 1004 83 3 1002 .7647058823529
41 .545098039215686 .803921568627451 81 1 999 46406 35 817 0 863 1000 991 1001 8
1 1 870 47685 838 820 1003 0 863 868 1010 83 3 1004 .764705882352941 .5450980392
15686 .803921568627451 81 1 1003 46402 35 820 0 870 1006 872 1008 81 1 868 47686
 838 800 1006 0 870 867 1007 83 3 1010 .764705882352941 .545098039215686 .803921
568627451 81 1 1006 46401 35 800 0 868 677 1003 1009 83 3 1007 .764705882352941
 .545098039215686 .803921568627451 81 1 677 46400 35 668 0 0 25 1006 1011 82 3 1
009 317 0 2 81 1 25 46399 35 11 0 0 694 677 1015 82 3 1011 317 9 1 81 1 694 4639
8 35 686 0 0 691 25 1012 82 3 1015 317 8 1 81 1 691 46397 35 30 0 0 685 694 1013
 82 3 1012 317 7 1 81 1 685 46396 35 679 0 0 689 691 1014 82 3 1013 317 6 1 81 1
 689 46395 35 687 0 0 693 685 1017 82 3 1014 317 5 1 81 1 693 46394 35 695 0 0 6
84 689 1020 82 3 1017 317 4 1 81 1 684 46393 35 682 0 0 1019 693 1016 82 3 1020
 317 3 1 81 1 1019 46089 35 746 0 898 1018 684 1024 82 3 1016 317 2 1 81 1 898 4
7716 838 746 1019 0 891 0 1025 81 1 1018 46073 35 755 0 907 1022 1019 1023 82 3
 1024 316 23 2 81 1 907 47713 838 755 1018 0 902 896 1021 81 1 1022 46064 35 806
 0 909 1028 1018 1030 82 3 1023 316 27 2 81 1 909 47711 838 806 1022 0 912 902 1
026 81 1 1028 46060 35 803 0 912 911 1022 1029 82 3 1030 316 13 2 81 1 912 47710
 838 803 1028 0 915 909 1027 81 1 911 45972 35 807 0 913 921 1028 1031 82 3 1029
 316 17 2 81 1 921 45968 35 718 0 918 248 911 1035 82 3 1031 316 16 2 81 1 248 4
5945 35 231 0 0 239 921 1033 82 3 1035 316 26 2 81 1 239 45943 35 229 0 0 243 24
8 1032 82 3 1033 316 50 0 81 1 243 45939 35 238 0 0 253 239 1034 82 3 1032 316 9
 0 81 1 253 45937 35 255 0 0 240 243 1036 82 3 1034 316 1 0 81 1 240 45935 35 23
4 0 0 232 253 1040 82 3 1036 316 53 0 81 1 232 45933 35 228 0 0 139 240 1038 82
 3 1040 316 26 0 81 1 139 45931 35 137 0 0 225 232 1037 82 3 1038 316 25 0 81 1
 225 45929 35 212 0 0 201 139 1039 82 3 1037 316 55 0 81 1 201 45927 35 203 0 0
 197 225 1041 82 3 1039 316 45 0 81 1 197 45925 35 199 0 0 145 201 1045 82 3 104
1 316 27 0 81 1 145 45921 35 138 0 0 218 197 1042 82 3 1045 316 47 0 81 1 218 45
913 35 202 0 0 216 145 1043 82 3 1042 316 51 0 81 1 216 45911 35 213 0 0 211 218
 1044 82 3 1043 316 3 0 81 1 211 45909 35 207 0 0 179 216 1047 82 3 1044 316 2 0
 81 1 179 45907 35 177 0 0 210 211 1050 82 3 1047 316 11 0 81 1 210 45905 35 196
 0 0 191 179 1049 82 3 1050 316 4 0 81 1 191 45897 35 195 0 0 173 210 1046 82 3
 1049 316 24 0 81 1 173 45893 35 158 0 0 181 191 1048 82 3 1046 316 41 0 81 1 18
1 45891 35 178 0 0 163 173 1051 82 3 1048 316 6 0 81 1 163 45861 35 165 0 0 171
 181 1052 82 3 1051 316 10 0 81 1 171 45859 35 167 0 0 169 163 1054 82 3 1052 31
6 8 0 81 1 169 45857 35 160 0 0 154 171 1053 82 3 1054 316 7 0 81 1 154 45855 35
 153 0 0 250 169 1055 82 3 1053 316 5 0 81 1 250 45853 35 245 0 0 147 154 1057 8
2 3 1055 316 21 0 81 1 147 45847 35 146 0 0 226 250 1060 82 3 1057 316 0 0 81 1
 226 45843 35 221 0 0 189 147 1059 82 3 1060 316 40 0 81 1 189 45841 35 187 0 0
 186 226 1056 82 3 1059 316 46 0 81 1 186 45839 35 182 0 0 148 189 1058 82 3 105
6 316 23 0 81 1 148 45837 35 143 0 0 256 186 1065 82 3 1058 316 20 0 81 1 256 45
835 35 258 0 0 159 148 1061 82 3 1065 316 44 0 81 1 159 45833 35 155 0 0 133 256
 1063 82 3 1061 316 54 0 81 1 133 45831 35 135 0 0 356 159 1062 82 3 1063 316 22
 0 81 1 356 45829 35 350 0 0 370 133 1064 82 3 1062 316 52 0 81 1 370 45826 35 3
61 0 0 371 356 1066 82 3 1064 316 80 1 81 1 371 45823 35 369 0 0 402 370 1070 82
 3 1066 316 78 1 81 1 402 45811 35 399 0 0 420 371 1067 82 3 1070 316 81 1 81 1
 420 45800 35 389 0 0 414 402 1068 82 3 1067 316 74 1 81 1 414 45797 35 396 0 0
 418 420 1069 82 3 1068 316 87 1 81 1 418 45794 35 413 0 0 391 414 1072 82 3 106
9 316 26 1 81 1 391 45788 35 386 0 0 405 418 1075 82 3 1072 316 86 1 81 1 405 45
785 35 394 0 0 423 391 1074 82 3 1075 316 4 1 81 1 423 45782 35 407 0 0 427 405
 1071 82 3 1074 316 3 1 81 1 427 45779 35 430 0 0 433 423 1073 82 3 1071 316 60
 1 81 1 433 45776 35 431 0 0 459 427 1079 82 3 1073 316 58 1 81 1 459 45773 35 4
48 0 0 377 433 1080 82 3 1079 316 61 1 81 1 377 45739 35 380 0 0 449 459 1077 82
 3 1080 316 27 1 81 1 449 45736 35 309 0 0 444 377 1078 82 3 1077 316 69 1 81 1
 444 45728 35 442 0 0 446 449 1076 82 3 1078 316 75 1 81 1 446 45725 35 439 0 0
 438 444 1083 82 3 1076 316 28 1 81 1 438 45722 35 315 0 0 466 446 1085 82 3 108
3 316 1 1 81 1 466 45710 35 470 0 0 460 438 1081 82 3 1085 316 6 1 81 1 460 4569
3 35 451 0 0 422 466 1084 82 3 1081 316 48 1 81 1 422 45687 35 421 0 0 462 460 1
082 82 3 1084 316 66 1 81 1 462 45684 35 458 0 0 493 422 1086 82 3 1082 316 59 1
 81 1 493 45660 35 495 0 0 505 462 1090 82 3 1086 316 67 1 81 1 505 45649 35 504
 0 0 501 493 1088 82 3 1090 316 55 1 81 1 501 45646 35 496 0 0 500 505 1087 82 3
 1088 316 7 1 81 1 500 45643 35 494 0 0 480 501 1089 82 3 1087 316 0 1 81 1 480
 45640 35 471 0 0 530 500 1091 82 3 1089 316 22 1 81 1 530 45607 35 518 0 0 520
 480 1095 82 3 1091 316 21 1 81 1 520 45604 35 512 0 0 542 530 1093 82 3 1095 31
6 2 1 81 1 542 45598 35 514 0 0 533 520 1092 82 3 1093 316 5 1 81 1 533 45572 35
 521 0 0 525 542 1094 82 3 1092 316 20 1 81 1 525 45563 35 519 0 0 550 533 1096
 82 3 1094 316 54 1 81 1 550 45560 35 523 0 0 362 525 1100 82 3 1096 316 23 1 81
 1 362 45557 35 364 0 0 397 550 1097 82 3 1100 316 84 1 81 1 397 45554 35 393 0
 0 541 362 1098 82 3 1097 316 79 1 81 1 541 45542 35 508 0 0 481 397 1099 82 3 1
098 316 29 1 81 1 481 45539 35 479 0 0 482 541 1102 82 3 1099 316 85 1 81 1 482
 45536 35 485 0 0 409 481 1105 82 3 1102 316 65 1 81 1 409 45528 35 383 0 0 455
 482 1104 82 3 1105 316 64 1 81 1 455 45520 35 434 0 0 490 409 1101 82 3 1104 31
6 9 1 81 1 490 45512 35 484 0 0 538 455 1103 82 3 1101 316 11 1 81 1 538 45504 3
5 531 0 0 977 490 1106 82 3 1103 316 10 1 82 3 1106 316 8 1 81 1 915 47709 838 3
05 1107 0 908 912 1109 83 3 1027 .764705882352941 .545098039215686 .803921568627
451 81 1 1107 47667 35 305 0 915 1108 974 1110 81 1 908 47708 838 326 1112 0 843
 915 1115 83 3 1109 .764705882352941 .545098039215686 .803921568627451 81 1 1112
 47664 35 326 0 908 1114 900 1111 81 1 843 47707 838 831 1113 0 839 908 1120 83
 3 1115 .764705882352941 .545098039215686 .803921568627451 81 1 1113 47047 35 83
1 0 843 1116 1118 1117 83 3 1120 .764705882352941 .545098039215686 .803921568627
451 81 1 1116 47046 35 732 0 841 1119 1113 1121 81 1 1118 47048 35 734 0 920 111
3 845 1125 82 3 1117 319 3 2 81 1 920 47703 838 734 1118 0 913 733 1122 81 1 845
 47049 35 835 0 839 1118 885 1123 82 3 1125 319 4 2 81 1 885 47381 35 331 0 0 84
5 332 1124 82 3 1123 319 5 2 81 1 332 47384 35 328 0 0 885 327 1127 82 3 1124 32
0 7 1 82 3 1127 320 17 1 81 1 733 47704 838 735 1119 0 920 841 1130 83 3 1122 .7
64705882352941 .545098039215686 .803921568627451 81 1 1119 47045 35 735 0 733 11
29 1116 1126 81 1 841 47705 838 732 1116 0 733 839 1128 83 3 1130 .7647058823529
41 .545098039215686 .803921568627451 83 3 1128 .764705882352941 .545098039215686
 .803921568627451 81 1 1129 47044 35 775 0 946 509 1119 1134 82 3 1126 319 1 2 8
1 1 946 47691 838 775 1129 0 951 949 1135 81 1 509 47043 35 507 0 0 513 1129 113
2 82 3 1134 319 0 2 81 1 513 47042 35 515 0 0 472 509 1133 82 3 1132 319 7 1 81
 1 472 47041 35 474 0 0 467 513 1131 82 3 1133 319 6 1 81 1 467 47040 35 456 0 0
 491 472 1138 82 3 1131 319 5 1 81 1 491 47039 35 487 0 0 536 467 1140 82 3 1138
 319 4 1 81 1 536 47038 35 534 0 0 610 491 1136 82 3 1140 319 3 1 81 1 610 47037
 35 55 0 0 604 536 1139 82 3 1136 319 2 1 81 1 604 47036 35 602 0 0 46 610 1137
 82 3 1139 319 1 1 81 1 46 47035 35 262 0 0 45 604 1141 82 3 1137 319 0 1 82 3 1
141 319 1 0 81 1 951 47690 838 792 989 0 874 946 1145 81 1 949 47692 838 316 114
3 0 946 942 1142 83 3 1135 .764705882352941 .545098039215686 .803921568627451 81
 1 1143 47662 35 316 0 949 440 1114 1144 81 1 942 47693 838 938 1146 0 949 945 1
150 83 3 1142 .764705882352941 .545098039215686 .803921568627451 81 1 1146 45381
 35 938 0 942 548 1148 1147 81 1 945 47694 838 928 993 0 942 926 1149 83 3 1150
 .764705882352941 .545098039215686 .803921568627451 81 1 993 46411 35 928 0 945
 995 1151 1155 81 1 926 47695 838 922 980 0 945 929 1152 83 3 1149 .764705882352
941 .545098039215686 .803921568627451 81 1 980 45387 35 922 0 926 1153 973 1154
 81 1 929 47696 838 930 1157 0 926 939 1160 83 3 1152 .764705882352941 .54509803
9215686 .803921568627451 81 1 1157 46414 35 930 0 929 1159 341 1156 81 1 939 476
97 838 931 1151 0 929 934 1158 83 3 1160 .764705882352941 .545098039215686 .8039
21568627451 81 1 1151 46412 35 931 0 939 993 1159 1161 81 1 934 47698 838 730 11
48 0 939 727 1162 83 3 1158 .764705882352941 .545098039215686 .803921568627451 8
1 1 1148 45383 35 730 0 934 1146 1153 1164 81 1 727 47699 838 721 1159 0 934 716
 1163 83 3 1162 .764705882352941 .545098039215686 .803921568627451 81 1 1159 464
13 35 721 0 727 1151 1157 1165 81 1 716 47700 838 720 1153 0 727 918 1167 83 3 1
163 .764705882352941 .545098039215686 .803921568627451 81 1 1153 45385 35 720 0
 716 1148 980 1170 83 3 1167 .764705882352941 .545098039215686 .803921568627451
 82 3 1170 158 5 2 82 3 1165 317 12 2 82 3 1164 158 3 2 82 3 1161 317 11 2 81 1
 341 46762 35 345 0 0 1157 357 1169 82 3 1156 317 13 2 81 1 357 46770 35 346 0 0
 341 352 1166 82 3 1169 318 17 1 81 1 352 46783 35 351 0 0 357 347 1168 82 3 116
6 318 9 1 81 1 347 46794 35 342 0 0 352 338 1175 82 3 1168 318 19 1 81 1 338 468
23 35 323 0 0 347 267 1171 82 3 1175 318 15 1 81 1 267 46863 35 270 0 0 338 272
 1173 82 3 1171 318 7 1 81 1 272 46867 35 271 0 0 267 265 1172 82 3 1173 318 3 0
 81 1 265 46871 35 257 0 0 272 44 1174 82 3 1172 318 11 0 81 1 44 46875 35 274 0
 0 265 45 1176 82 3 1174 318 9 0 82 3 1176 318 1 0 82 3 1154 158 7 2 82 3 1155 3
17 10 2 81 1 548 45379 35 528 0 0 551 1146 1180 82 3 1147 158 1 2 81 1 551 45378
 35 555 0 0 559 548 1177 82 3 1180 158 11 1 81 1 559 45377 35 552 0 0 562 551 11
78 82 3 1177 158 10 1 81 1 562 45376 35 556 0 0 701 559 1179 82 3 1178 158 9 1 8
1 1 701 45371 35 697 0 0 696 562 1182 82 3 1179 158 8 1 81 1 696 45370 35 564 0
 0 710 701 1185 82 3 1182 158 3 1 82 3 1185 158 2 1 81 1 440 47661 35 311 0 0 39
0 1143 1184 81 1 1114 47663 35 758 0 902 1143 1112 1181 82 3 1144 321 0 2 81 1 9
02 47712 838 758 1114 0 909 907 1183 82 3 1181 321 1 2 83 3 1183 .76470588235294
1 .545098039215686 .803921568627451 81 1 390 47660 35 384 0 0 382 440 1189 82 3
 1184 321 7 1 81 1 382 47659 35 381 0 0 374 390 1190 82 3 1189 321 6 1 81 1 374
 47658 35 373 0 0 313 382 1187 82 3 1190 321 5 1 81 1 313 47657 35 299 0 0 410 3
74 1188 82 3 1187 321 4 1 81 1 410 47656 35 404 0 0 588 313 1186 82 3 1188 321 3
 1 81 1 588 47655 35 583 0 0 33 410 1193 82 3 1186 321 2 1 81 1 33 47654 35 37 0
 0 26 588 1195 82 3 1193 321 1 1 82 3 1195 321 0 1 81 1 989 45048 35 792 0 951 6
73 990 1191 81 1 874 47689 838 771 1194 0 871 951 1192 83 3 1145 .76470588235294
1 .545098039215686 .803921568627451 81 1 1194 44520 35 771 0 874 637 571 1196 83
 3 1192 .764705882352941 .545098039215686 .803921568627451 81 1 637 44510 35 639
 0 0 658 1194 1200 81 1 571 44775 35 567 0 0 1194 574 1198 82 3 1196 154 3 2 81
 1 574 44783 35 572 0 0 571 576 1197 82 3 1198 155 19 1 81 1 576 44837 35 580 0
 0 574 129 1199 82 3 1197 155 23 1 81 1 129 44864 35 128 0 0 576 130 1201 82 3 1
199 155 21 1 81 1 130 44868 35 121 0 0 129 58 1205 82 3 1201 155 15 0 81 1 58 45
030 35 57 0 0 130 125 1203 82 3 1205 155 13 0 81 1 125 45031 35 120 0 0 58 63 12
02 82 3 1203 156 0 0 81 1 63 45032 35 62 0 0 125 53 1204 82 3 1202 156 1 0 81 1
 53 45033 35 42 0 0 63 582 1206 82 3 1204 156 2 0 81 1 582 45036 35 584 0 0 53 5
66 1210 82 3 1206 156 3 0 81 1 566 45037 35 563 0 0 582 643 1207 82 3 1210 156 0
 1 81 1 643 45040 35 623 0 0 566 620 1208 82 3 1207 156 1 1 81 1 620 45041 35 61
5 0 0 643 667 1209 82 3 1208 156 4 1 81 1 667 45042 35 663 0 0 620 675 1212 82 3
 1209 156 5 1 81 1 675 45043 35 670 0 0 667 676 1215 82 3 1212 156 6 1 81 1 676
 45044 35 661 0 0 675 673 1214 82 3 1215 156 7 1 81 1 673 45045 35 674 0 0 676 9
89 1211 82 3 1214 156 8 1 82 3 1211 156 9 1 81 1 658 44509 35 660 0 0 601 637 12
13 82 3 1200 154 5 1 81 1 601 44506 35 597 0 0 608 658 1216 82 3 1213 154 4 1 81
 1 608 44505 35 609 0 0 109 601 1217 82 3 1216 154 1 1 81 1 109 44502 35 107 0 0
 106 608 1219 82 3 1217 154 0 1 81 1 106 44501 35 102 0 0 105 109 1218 82 3 1219
 154 3 0 81 1 105 44500 35 99 0 0 69 106 1220 82 3 1218 154 2 0 81 1 69 44499 35
 67 0 0 111 105 1222 82 3 1220 154 1 0 81 1 111 44339 35 115 0 0 119 69 1225 82
 3 1222 154 0 0 81 1 119 44335 35 116 0 0 598 111 1224 82 3 1225 153 15 0 81 1 5
98 44300 35 596 0 0 592 119 1221 82 3 1224 153 13 0 81 1 592 44236 35 595 0 0 58
7 598 1223 82 3 1221 153 19 1 81 1 587 44228 35 586 0 0 642 592 1230 82 3 1223 1
53 23 1 81 1 642 43897 35 641 0 0 633 587 1226 82 3 1230 153 21 1 81 1 633 43896
 35 634 0 0 655 642 1228 82 3 1226 150 53 1 81 1 655 43879 35 628 0 0 625 633 12
27 82 3 1228 150 52 1 81 1 625 43878 35 616 0 0 665 655 1229 82 3 1227 150 35 1
 81 1 665 43877 35 659 0 0 626 625 1231 82 3 1229 150 34 1 81 1 626 43876 35 622
 0 0 632 665 1235 82 3 1231 150 33 1 81 1 632 43875 35 627 0 0 614 626 1232 82 3
 1235 150 32 1 81 1 614 43874 35 611 0 0 647 632 1233 82 3 1232 150 31 1 81 1 64
7 43873 35 650 0 0 654 614 1234 82 3 1233 150 30 1 81 1 654 43872 35 638 0 0 75
 647 1237 82 3 1234 150 29 1 81 1 75 43839 35 66 0 0 72 654 1240 82 3 1237 150 2
8 1 81 1 72 43838 35 71 0 0 78 75 1239 82 3 1240 150 27 0 81 1 78 43837 35 80 0
 0 81 72 1236 82 3 1239 150 26 0 81 1 81 43836 35 85 0 0 93 78 1238 82 3 1236 15
0 25 0 81 1 93 43835 35 82 0 0 87 81 1244 82 3 1238 150 24 0 81 1 87 43834 35 76
 0 0 94 93 1245 82 3 1244 150 23 0 81 1 94 43833 35 89 0 0 98 87 1242 82 3 1245
 150 22 0 81 1 98 43832 35 96 0 0 0 94 1243 82 3 1242 150 21 0 82 3 1243 150 20
 0 82 3 1191 156 0 2 82 3 1121 319 2 2 81 1 900 47665 35 886 0 891 1112 1108 124
1 82 3 1111 321 2 2 81 1 1108 47666 35 884 0 896 900 1107 1248 82 3 1241 321 3 2
 81 1 896 47714 838 884 1108 0 907 891 1250 82 3 1248 321 4 2 83 3 1250 .7647058
82352941 .545098039215686 .803921568627451 81 1 974 47668 35 788 0 855 1107 852
 1246 82 3 1110 321 5 2 81 1 852 47669 35 17 0 848 974 0 1249 82 3 1246 321 6 2
 82 3 1249 321 7 2 83 3 1026 .764705882352941 .545098039215686 .803921568627451
 83 3 1021 .764705882352941 .545098039215686 .803921568627451 83 3 1025 .7647058
82352941 .545098039215686 .803921568627451 81 1 872 46403 35 19 0 871 1003 869 1
247 82 3 1008 317 1 2 81 1 869 46404 35 822 0 867 872 1000 1251 82 3 1247 317 2
 2 82 3 1251 317 3 2 82 3 1001 317 5 2 82 3 1005 317 4 2 82 3 998 317 6 2 82 3 9
96 317 7 2 82 3 992 156 4 2 82 3 987 156 5 2 82 3 982 158 10 2 82 3 981 158 11 2
 82 3 978 158 8 2 83 3 972 .764705882352941 .545098039215686 .803921568627451 82
 3 971 158 9 2 79 15 966 SDL/TYSA_COLOUR15 964 42405 0 1255 959 1253 17 1255 0 9
64 1255 1255 0 630 622 0 0 -15 1253 45137 0 709 959 0 17 709 0 1253 709 709 0 70
4 703 0 0 -17 630 0 773 630 630 0 1255 622 0 0 +15 773 42411 0 630 771 968 15 96
2 42524 0 1252 956 1254 17 1252 0 962 1252 1252 0 653 628 0 0 -15 1254 45130 0 1
256 956 0 17 1256 0 1254 1256 1256 0 705 697 0 0 -17 705 0 1260 705 705 0 1256 6
97 0 0 +15 1260 45268 0 705 922 0 17 653 0 793 653 653 0 1252 628 0 0 +15 793 42
530 0 653 792 1258 15 1258 42648 0 1257 792 0 17 1257 0 1258 1257 1257 0 621 616
 0 0 -17 621 0 960 621 621 0 1257 616 0 0 +15 960 42639 0 621 953 1259 15 1259 4
5122 0 699 953 0 17 699 0 1259 699 699 0 1261 564 0 0 +17 1261 0 937 1261 1261 0
 699 564 0 0 -15 937 45242 0 1261 730 1265 15 1265 45243 0 1262 730 0 17 1262 0
 1265 1262 1262 0 558 552 0 0 -17 558 0 936 558 558 0 1262 552 0 0 +15 936 45237
 0 558 931 1263 15 1263 45959 0 454 931 0 17 454 0 1263 454 454 0 1264 434 0 0 +
17 1264 0 330 1264 1264 0 454 434 0 0 -15 330 46041 0 1264 326 0 15 947 45315 0
 1267 928 1270 17 1267 0 947 1267 1267 0 565 556 0 0 -15 1270 45954 0 488 928 0
 17 488 0 1270 488 488 0 1269 484 0 0 +17 1269 0 846 1269 1269 0 488 484 0 0 -15
 846 46015 0 1269 732 815 17 565 0 944 565 565 0 1267 556 0 0 +15 944 45305 0 56
5 938 707 15 707 45306 0 704 938 0 15 935 45277 0 1266 930 1268 17 1266 0 935 12
66 1266 0 549 528 0 0 -15 1268 45964 0 412 930 0 17 412 0 1268 412 412 0 1271 38
3 0 0 +17 1271 0 757 1271 1271 0 412 383 0 0 -15 757 46070 0 1271 758 0 17 549 0
 927 549 549 0 1266 528 0 0 +15 927 45267 0 549 922 1260 50 736 46101 0 735 850
 919 0 +0 0 -.063097 0 0 -1 1 0 0 50 850 46106 0 732 836 736 0 +0 0 -.063097 0 0
 -1 1 0 0 83 3 925 .764705882352941 .545098039215686 .803921568627451 83 3 916 .
764705882352941 .545098039215686 .803921568627451 83 3 897 .764705882352941 .545
098039215686 .803921568627451 83 3 876 .764705882352941 .545098039215686 .803921
568627451 83 3 875 .764705882352941 .545098039215686 .803921568627451 83 3 854 .
764705882352941 .545098039215686 .803921568627451 83 3 842 .764705882352941 .545
098039215686 .803921568627451 17 52 0 731 340 544 34 47 515 0 827 +17 192 0 809
 227 190 187 476 471 0 808 -17 198 0 802 204 224 199 432 431 0 463 -17 763 0 312
 578 787 121 577 572 0 0 -82 3 715 158 1 1 82 3 708 158 0 1 82 3 334 320 9 1 81
 1 278 47496 35 279 0 0 292 1272 1274 82 3 296 320 3 0 81 1 1272 47651 35 1 0 12
73 278 32 1275 82 3 1274 320 11 0 81 1 1273 47670 1277 1 1272 14 0 0 1280 81 1 3
2 47652 35 287 0 0 1272 26 1279 82 3 1275 6 0 3 82 3 1279 321 0 0 80 1 1277 1276
 1278 8038 0 0 0 0 0 0 0 0 0 TTTTTTTTTTTTTFTFT10 81 1 14 47671 1276 1 1273 2 0 0
 1285 98 255 6 1280 80 97 114 116 32 49 80 1 1276 1281 1283 8017 0 0 0 0 0 0 0 0
 0 TTTTTTTTTTTTTFTFT3 84 255 6 1285 Part 179 13 1283 SDL/TYSA_NAME79 14 1278 SDL
/TYSA_UNAME82 3 50 319 0 0 82 3 31 321 1 0 19 18 259 0 1 0 10 6 0 S0 74 4 CI16 i
ndex_map_offset0 0 1 dCCZ20 16 5 0 0 852 1273 14 2 898 0 0 0 0 0 0 0 0 0 0 0 0 0
 0 0 80 1 13 838 1282 8040 0 0 0 0 3 5 0 0 0 TTTFFFFFFFFFFFFFF2 83 3 15 .7647058
82352941 .545098039215686 .803921568627451 79 17 1282 SDL/TYSA_COLOUR_21 0 
