**ABCDEFGHIJKLMNOPQRSTUVWXYZabcdefghijklmnopqrstuvwxyz**************************
**PARASOLID !"#$%&'()*+,-./:;<=>?@[\]^_`{|}~0123456789**************************
**PART1;
MC=unknown;
MC_MODEL=unknown;
MC_ID=unknown;
OS=unknown;
OS_RELEASE=unknown;
FRU=Parasolid 37.1.212;
APPL=Onshape;
SITE=unknown;
USER=unknown;
FORMAT=text;
GUISE=transmit;
KEY=BTGapi::writeModels_.xmt;
FILE=BTGapi::writeModels_.xmt;
DATE=2026-05-24T03:00:35 (UTC);
**PART2;
SCH=SCH_3701212_37102;
USFLD_SIZE=0;
**PART3;
**END_OF_HEADER*****************************************************************
T51 : TRANSMIT FILE created by modeller version 370121223 SCH_3701212_37102_1300
6239 0 12 36 CCCI7 lattice222 0 CCCI4 mesh1006 0 I8 polyline1008 0 CCCCCCCDI5 ow
ner1040 0 CCCI16 boundary_lattice222 0 CCCI13 boundary_mesh1006 0 I17 boundary_p
olyline1008 0 CCCA16 index_map_offset0 0 1 dA9 index_map82 0 A17 node_id_index_m
ap82 0 A20 schema_embedding_map82 0 A5 child12 0 A14 lowest_node_id0 0 1 dA16 me
sh_offset_data206 0 Z1 34380 2 3 0 0 0 0 0 0 0 1e3 1e-8 0 4 5 1 0 1 2 6 0 7 8 9
 0 0 10 11 12 0 0 0 0 0 0 0 81 255 1 2 34362 13 1 14 0 0 0 15 70 11 CI9 list_typ
e0 0 1 uI10 notransmit0 0 1 lCCCDCCDI12 finger_index0 0 1 dI12 finger_block1012
 0 CZ3 0 4 T1 0 0 5 20 1 16 16 13 255 6 258 0 1 0 17 0 0 18 0 51 255 7 1405 0 19
 20 0 0 +.058 -.03805 .002 0 0 -1 .005 -1 0 0 30 255 8 29347 0 11 21 0 0 +.0225
 0 -.002 0 1 0 29 255 9 34160 0 12 22 0 -.0225 .00705 -.002 19 9 CCCCCCI5 frame2
30 0 CA5 owner12 0 Z10 89 0 1 18 0 23 0 V0 16 255 11 29345 24 ?25 0 27 8 0 0 1 1
8 255 12 34156 30 29 0 26 9 ?1 81 1 30 34347 28 12 0 0 34 35 32 17 255 29 0 33 3
1 38 12 40 27 0 36 +18 26 34151 34 39 12 37 22 ?1 81 1 34 34346 28 26 0 0 41 30
 45 17 39 0 43 42 44 26 46 50 0 25 -18 37 34141 35 31 26 48 47 ?1 29 22 34155 0
 26 47 9 .0225 .00705 -.002 29 47 34145 0 37 49 22 -.0225 .00705 -.0016 29 49 33
826 0 48 51 47 -.0225 -.01905 -.0016 18 48 33824 55 52 37 53 49 ?1 29 51 33070 0
 53 54 49 .058 .04305 -.0016 18 53 33066 57 60 48 59 51 ?1 29 54 28416 0 59 56 5
1 -.058 -.04305 -.002 18 59 28412 58 61 53 62 54 ?1 29 56 28401 0 62 64 54 .063
 -.03805 -.002 18 62 28397 63 65 59 67 56 ?1 29 64 28945 0 67 70 56 -.063 .03805
 -.002 18 67 28742 69 66 62 68 64 ?1 29 70 28946 0 68 75 64 -.058 .04305 -.002 1
8 68 28751 71 73 67 72 70 ?1 29 75 28949 0 72 74 70 .058 .04305 -.002 18 72 2875
2 76 80 68 77 75 ?1 29 74 28950 0 77 78 75 -.063 -.03805 -.002 18 77 28743 79 81
 72 85 74 ?1 29 78 28951 0 85 83 74 .063 .03805 -.002 18 85 28753 82 84 77 89 78
 ?1 29 83 28956 0 89 90 78 .058 -.04305 -.002 18 89 28756 87 88 85 86 83 ?1 29 9
0 33639 0 86 93 83 -.058 .04305 -.0016 18 86 33437 95 91 89 94 90 ?1 29 93 33641
 0 94 92 90 .063 .03805 -.0016 18 94 33461 96 100 86 98 93 ?1 29 92 33642 0 98 9
7 93 .063 -.03805 -.0016 18 98 33457 99 101 94 105 92 ?1 29 97 33643 0 105 103 9
2 .058 -.04305 -.0016 18 105 33453 102 104 98 106 97 ?1 29 103 33644 0 106 110 9
7 -.058 -.04305 -.0016 18 106 33449 107 108 105 109 103 ?1 29 110 33645 0 109 11
2 103 -.063 -.03805 -.0016 18 109 33445 115 114 106 111 110 ?1 29 112 33646 0 11
1 113 110 -.063 .03805 -.0016 18 111 33441 116 117 109 119 112 ?1 29 113 33992 0
 119 118 112 -.0225 -.01905 -.002 18 119 33939 120 40 111 122 113 ?1 29 118 3399
3 0 122 125 113 .0225 -.01905 -.002 18 122 33935 124 42 119 121 118 ?1 29 125 33
994 0 121 123 118 .0225 -.01905 -.0016 18 121 33931 130 126 122 128 125 ?1 29 12
3 34316 0 128 0 125 .0225 .00705 -.0016 18 128 34261 127 44 121 0 123 ?1 81 1 12
7 34349 28 128 0 0 35 129 131 17 44 0 43 39 135 128 126 132 0 46 -15 255 43 3416
2 0 39 133 0 17 135 0 43 44 42 121 134 136 0 140 +17 126 0 138 137 139 121 44 13
2 0 135 +16 132 33225 144 ?126 145 142 143 0 0 1 17 46 0 141 148 150 128 39 50 0
 139 +15 141 34284 0 46 146 0 17 148 0 141 149 46 37 139 147 0 0 -17 150 0 141 4
6 149 26 36 151 0 0 +16 50 34231 129 ?46 147 0 155 0 0 1 17 139 0 138 126 153 12
8 148 147 0 0 +15 138 34340 0 153 152 154 17 153 0 138 139 137 37 52 142 0 148 -
16 147 34203 156 ?139 160 50 158 0 0 1 81 1 156 34205 28 147 0 0 157 159 161 16
 160 34211 165 ?31 151 147 162 0 0 1 30 158 34307 0 147 155 162 0 +-.0435 .00705
 -.0016 1 889601782552209e-31 0 30 155 34308 0 50 0 158 0 +.0225 .00705 -.153890
385118718 0 0 1 30 162 34306 0 160 158 163 0 +-.0225 .00705 -.153890385118718 0
 0 1 30 163 34305 0 151 162 164 0 +-737257477290143e-32 .00705 -.002 1 -72280144
832367e-30 0 16 151 34236 159 ?150 167 160 163 0 0 1 30 164 33986 0 167 163 170
 0 +.0435 -.01905 -.0016 -1 -889601782552209e-31 0 16 167 33909 169 ?137 136 151
 164 0 0 1 30 170 33985 0 136 164 166 0 +.0225 -.01905 -.153890385118718 0 0 1 1
6 136 33919 168 ?135 171 167 170 0 0 1 30 166 33984 0 171 170 172 0 +30357660829
5941e-32 -.01905 -.002 1 -72280144832367e-30 0 16 171 33914 174 ?173 175 136 166
 0 0 1 30 172 33983 0 175 166 177 0 +-.0225 -.01905 -.153890385118718 0 0 1 16 1
75 33901 180 ?179 176 171 172 0 0 1 31 255 177 33622 0 176 172 178 0 --.058 .038
05 -.0016 0 0 1 1 0 0 .005 16 176 33345 185 ?181 183 175 177 0 0 1 30 178 33621
 0 183 177 182 0 +-.063 0 -.0016 0 -1 0 16 183 33245 184 ?114 186 176 178 0 0 1
 31 182 33620 0 186 178 190 0 --.058 -.03805 -.0016 0 0 1 1 0 0 .005 16 186 3337
0 187 ?188 189 183 182 0 0 1 30 190 33619 0 189 182 191 0 +0 -.04305 -.0016 1 0
 0 16 189 33265 195 ?104 193 186 190 0 0 1 31 191 33618 0 193 190 192 0 -.058 -.
03805 -.0016 0 0 1 1 0 0 .005 16 193 33365 194 ?199 200 189 191 0 0 1 30 192 336
17 0 200 191 197 0 +.063 0 -.0016 0 -1 0 16 200 33360 198 ?196 203 193 192 0 0 1
 31 197 33616 0 203 192 205 0 -.058 .03805 -.0016 0 0 1 1 0 0 .005 16 203 33355
 201 ?204 202 200 197 0 0 1 30 205 33615 0 202 197 206 0 +0 .04305 -.0016 1 0 0
 16 202 33350 210 ?208 142 203 205 0 0 1 30 206 33614 0 142 205 143 0 +-.0225 -1
734723475976805e-33 -.0016 0 -1 0 16 142 33375 207 ?52 132 202 206 0 0 1 30 143
 33612 0 132 206 209 0 +.0225 1734723475976805e-33 -.0016 0 -1 0 31 209 33610 0
 145 143 211 0 +-.05765 -.0377 -.0016 0 0 1 1 0 0 .00285 16 145 33380 215 ?213 2
12 132 209 0 0 1 31 211 33609 0 212 209 214 0 -.05765 -.0377 -.0016 0 0 1 1 0 0
 .00285 16 212 33310 216 ?220 217 145 211 0 0 1 31 214 33608 0 217 211 218 0 +.0
5765 .0377 -.0016 0 0 1 1 0 0 .00285 16 217 33385 219 ?222 225 212 214 0 0 1 31
 218 33607 0 225 214 224 0 --.05765 .0377 -.0016 0 0 1 1 0 0 .00285 16 225 33340
 221 ?223 226 217 218 0 0 1 31 224 28917 0 227 218 229 0 -.05765 -.0377 -.002 0
 0 -1 -1 0 0 .00285 16 227 28714 228 ?230 232 226 224 0 0 1 31 229 28916 0 232 2
24 235 0 --.05765 .0377 -.002 0 0 -1 -1 0 0 .00285 16 232 28633 234 ?231 233 227
 229 0 0 1 31 235 28915 0 233 229 240 0 +-.05765 -.0377 -.002 0 0 -1 -1 0 0 .002
85 16 233 28567 236 ?238 237 232 235 0 0 1 31 240 28911 0 237 235 239 0 -.058 -.
03805 -.002 0 0 -1 -1 0 0 .005 16 237 28612 241 ?245 242 233 240 0 0 1 30 239 28
909 0 242 240 243 0 +.063 0 -.002 0 1 0 16 242 28615 244 ?246 250 237 239 0 0 1
 31 243 28908 0 250 239 248 0 --.058 -.03805 -.002 0 0 -1 -1 0 0 .005 16 250 285
73 247 ?249 254 242 243 0 0 1 31 248 28907 0 254 243 255 0 -.058 .03805 -.002 0
 0 -1 -1 0 0 .005 16 254 28618 252 ?253 251 250 248 0 0 1 30 255 28905 0 251 248
 258 0 +-.063 0 -.002 0 1 0 16 251 28603 260 ?256 259 254 255 0 0 1 31 258 28904
 0 259 255 257 0 --.058 .03805 -.002 0 0 -1 -1 0 0 .005 16 259 28570 261 ?265 26
3 251 258 0 0 1 30 257 618 0 263 258 262 0 +0 .04305 -.002 -1 0 0 16 263 437 264
 ?73 266 259 257 0 0 1 30 262 616 0 266 257 270 0 +0 -.04305 -.002 -1 0 0 16 266
 500 268 ?267 269 263 262 0 0 1 30 270 1189 0 269 262 271 0 --.063 -.03805 .002
 0 0 -1 16 269 1187 275 ?272 273 266 270 0 0 1 30 271 1194 0 273 270 274 0 +-.06
3 .03805 .002 0 0 -1 16 273 1192 277 ?66 280 269 271 0 0 1 30 274 1229 0 280 271
 279 0 +.058 .04305 -.0041 0 0 -1 16 280 1227 276 ?80 278 273 274 0 0 1 30 279 1
234 0 278 274 281 0 --.058 .04305 .002 0 0 -1 16 278 1232 282 ?284 283 280 279 0
 0 1 30 281 1297 0 283 279 285 0 +.063 -.03805 .002 0 0 -1 16 283 1295 287 ?65 2
90 278 281 0 0 1 30 285 1302 0 290 281 289 0 -.063 .03805 .002 0 0 -1 16 290 130
0 286 ?288 295 283 285 0 0 1 30 289 1307 0 295 285 291 0 -.058 -.04305 .002 0 0
 -1 16 295 1305 293 ?292 294 290 289 0 0 1 30 291 1312 0 294 289 296 0 +-.058 -.
04305 -.0041 0 0 -1 16 294 1310 300 ?61 27 295 291 0 0 1 31 296 28370 0 226 291
 21 0 +.05765 .0377 -.002 0 0 -1 -1 0 0 .00285 16 226 28621 297 ?298 227 225 296
 0 0 1 30 21 29332 0 27 296 8 0 +-.0225 0 -.002 0 1 0 16 27 29330 299 ?29 11 294
 21 0 0 1 81 1 299 34353 28 27 0 0 24 144 301 80 7 CCCCCDI12 legal_owners0 17 1
 lCZ1 28 305 303 9000 0 0 0 0 3 6 0 0 0 FFTFTFTTFFFFFFFFF1 81 1 24 34352 28 11 0
 0 165 299 302 81 1 144 34354 28 132 0 0 299 207 304 82 255 3 301 127 3 1 81 1 2
07 34355 28 142 0 0 144 309 310 82 3 304 127 4 1 81 1 309 34356 28 17 0 307 207
 308 306 82 3 310 127 5 1 14 255 17 576 307 ?152 0 313 6 315 +0 0 152 0 23 81 1
 307 34363 311 17 309 0 0 314 312 81 1 308 34357 28 152 0 314 309 316 320 82 3 3
06 127 0 2 14 152 33541 314 ?318 17 138 6 317 +0 0 318 17 23 81 1 314 34364 311
 152 308 0 307 319 321 81 1 316 34358 28 133 0 325 308 323 322 82 3 320 127 1 2
 14 133 29628 325 ?324 326 43 6 330 +0 0 324 326 23 81 1 325 34376 311 133 316 0
 327 328 329 81 1 323 34359 28 326 0 327 316 0 332 82 3 322 127 2 2 14 326 29636
 327 ?133 335 33 6 334 -0 0 133 335 23 81 1 327 34375 311 326 323 0 331 325 333
 82 3 332 127 3 2 80 1 311 0 336 8001 0 0 0 0 3 5 0 0 0 FFFFTFTFFFFFFFFFF2 81 1
 331 34374 311 335 337 0 339 327 338 83 255 3 333 .764705882352941 .545098039215
686 .803921568627451 14 335 25863 331 ?326 340 342 6 345 +0 0 326 340 23 81 1 33
7 33719 28 335 0 331 344 341 343 81 1 339 34373 311 340 341 0 350 331 346 83 3 3
38 .764705882352941 .545098039215686 .803921568627451 14 340 25803 339 ?335 348
 347 6 349 -0 0 335 348 23 81 1 341 33720 28 340 0 339 337 351 355 81 1 350 3437
2 311 348 352 0 353 339 354 83 3 346 .764705882352941 .545098039215686 .80392156
8627451 14 348 25833 350 ?340 356 360 6 358 -0 0 340 356 23 81 1 352 33717 28 34
8 0 350 357 344 359 81 1 353 34371 311 356 344 0 364 350 365 83 3 354 .764705882
352941 .545098039215686 .803921568627451 14 356 25893 353 ?348 19 362 6 363 +0 0
 348 19 23 81 1 344 33718 28 356 0 353 352 337 361 81 1 364 34370 311 19 368 0 3
70 353 366 83 3 365 .764705882352941 .545098039215686 .803921568627451 14 19 139
3 364 ?356 369 367 6 7 +0 0 356 369 23 81 1 368 33713 28 19 0 364 371 375 373 81
 1 370 34369 311 369 375 0 372 364 374 83 3 366 .764705882352941 .54509803921568
6 .803921568627451 14 369 1372 370 ?19 376 380 6 20 +0 0 19 376 23 81 1 375 3371
4 28 369 0 370 368 378 377 81 1 372 34368 311 376 379 0 381 370 385 83 3 374 .76
4705882352941 .545098039215686 .803921568627451 14 376 1351 372 ?369 382 383 6 3
84 +0 0 369 382 23 81 1 379 33711 28 376 0 372 275 371 387 81 1 381 34367 311 38
2 371 0 390 372 389 83 3 385 .764705882352941 .545098039215686 .803921568627451
 14 382 1330 381 ?376 386 388 6 391 +0 0 376 386 23 81 1 371 33712 28 382 0 381
 379 368 392 81 1 390 34366 311 386 394 0 319 381 393 83 3 389 .764705882352941
 .545098039215686 .803921568627451 14 386 229 390 ?382 318 395 6 397 -0 0 382 31
8 23 81 1 394 33724 28 386 0 390 351 124 400 81 1 319 34365 311 318 351 0 314 39
0 399 83 3 393 .764705882352941 .545098039215686 .803921568627451 14 318 233 319
 ?386 152 396 6 398 +0 0 386 152 23 81 1 351 33723 28 318 0 319 341 394 405 83 3
 399 .764705882352941 .545098039215686 .803921568627451 82 3 405 123 15 2 15 396
 31710 0 288 318 0 50 255 398 245 0 318 401 391 0 +.063 0 .002 1 0 0 0 0 -1 13 2
3 90 0 0 0 0 0 0 10 17 50 401 244 0 403 397 398 0 +0 .04305 .002 0 -1 0 0 0 -1 5
1 391 1342 0 382 398 384 0 +-.058 .03805 .002 0 0 -1 .005 -1 0 0 51 384 1363 0 3
76 391 20 0 +.058 .03805 .002 0 0 1 .005 1 0 0 51 20 1384 0 369 384 7 0 +-.058 -
.03805 .002 0 0 1 .005 1 0 0 14 403 231 402 ?404 324 406 6 401 -0 0 404 324 23 5
0 397 243 0 386 410 401 0 +-.063 0 .002 1 0 0 0 0 -1 50 410 242 0 324 315 397 0
 +0 -.04305 .002 0 -1 0 0 0 -1 14 324 227 328 ?403 133 407 6 410 +0 0 403 133 23
 50 315 596 0 17 363 410 0 +0 0 -.002 0 0 -1 1 0 0 51 363 25914 0 356 358 315 0
 --.05765 -.0377 -.166048786320751 0 0 1 .00285 1 0 0 51 358 25917 0 348 349 363
 0 +-.05765 .0377 -.166048786320751 0 0 1 .00285 1 0 0 51 349 25920 0 340 345 35
8 0 +.05765 -.0377 -.166048786320751 0 0 1 .00285 1 0 0 51 345 25923 0 335 334 3
49 0 -.05765 .0377 -.166048786320751 0 0 1 .00285 1 0 0 50 334 29651 0 326 330 3
45 0 +-.0225 -1734723475976805e-33 -.153890385118718 -1 0 0 0 0 1 50 330 29653 0
 133 317 334 0 +.0225 1734723475976805e-33 -.153890385118718 -1 0 0 0 0 1 50 317
 33578 0 152 408 330 0 +0 0 -.0016 0 0 1 1 0 0 50 408 33974 0 404 409 317 0 +303
576608295941e-32 -.01905 -.002 -72280144832367e-30 -1 0 1 -72280144832367e-30 0
 14 404 33959 411 ?146 403 415 6 408 -0 0 146 403 23 50 409 34296 0 146 0 408 0
 +-737257477290143e-32 .00705 -.002 -72280144832367e-30 -1 0 1 -72280144832367e-
30 0 14 146 34281 413 ?0 404 141 6 409 +0 0 0 404 23 81 1 413 34380 311 146 412
 0 411 0 414 81 1 412 34283 28 146 0 413 159 41 419 81 1 411 34379 311 404 157 0
 402 413 420 83 3 414 .764705882352941 .545098039215686 .803921568627451 81 1 15
7 34039 28 404 0 411 168 156 417 81 1 402 34378 311 403 378 0 328 411 418 83 3 4
20 .764705882352941 .545098039215686 .803921568627451 81 1 378 33715 28 403 0 40
2 375 357 416 81 1 328 34377 311 324 357 0 325 402 423 83 3 418 .764705882352941
 .545098039215686 .803921568627451 81 1 357 33716 28 324 0 328 378 352 425 83 3
 423 .764705882352941 .545098039215686 .803921568627451 82 3 425 123 8 2 82 3 41
6 123 7 2 81 1 168 34036 28 136 0 0 180 157 421 82 3 417 125 2 2 81 1 180 34035
 28 175 0 0 169 168 424 82 3 421 125 7 1 81 1 169 34034 28 167 0 0 174 180 422 8
2 3 424 125 6 1 81 1 174 34031 28 171 0 0 130 169 426 82 3 422 125 5 1 81 1 130
 34028 28 121 0 0 55 174 430 82 3 426 125 2 1 81 1 55 34027 28 48 0 0 120 130 42
8 82 3 430 125 3 0 81 1 120 34026 28 119 0 0 124 55 427 82 3 428 125 2 0 81 1 12
4 34025 28 122 0 0 394 120 429 82 3 427 125 1 0 82 3 429 125 0 0 81 1 159 34238
 28 151 0 0 156 412 431 81 1 41 34345 28 1 0 435 412 34 433 82 3 419 126 5 2 81
 1 435 34360 432 1 41 14 0 0 434 82 3 433 6 0 3 80 1 432 436 440 8038 0 0 0 0 0
 0 0 0 0 TTTTTTTTTTTTTFTFT10 81 1 14 34361 436 1 435 2 0 0 437 98 255 6 434 80 9
7 114 116 32 49 80 1 436 438 439 8017 0 0 0 0 0 0 0 0 0 TTTTTTTTTTTTTFTFT3 84 25
5 6 437 Part 179 255 13 439 SDL/TYSA_NAME79 14 440 SDL/TYSA_UNAME82 3 431 126 3
 1 15 415 33962 0 140 404 0 17 140 0 415 134 179 121 137 167 0 0 -17 134 0 415 4
42 140 122 135 136 0 173 -17 179 0 415 140 442 48 38 175 0 137 +17 137 0 138 153
 126 48 140 167 0 0 +17 442 0 415 179 134 119 173 171 0 38 -17 38 0 33 29 52 119
 179 175 0 0 -15 33 32991 0 29 326 0 17 52 0 33 38 31 48 153 142 0 179 +17 31 0
 33 52 29 37 149 160 0 153 +17 149 0 141 150 148 12 31 160 0 0 -17 173 0 313 25
 40 122 442 171 0 0 +15 313 34343 0 25 17 445 17 25 0 313 36 173 26 42 11 0 150
 +17 40 0 313 173 36 119 29 27 0 442 -17 36 0 313 40 25 12 150 151 0 149 -17 42
 0 43 135 39 122 25 11 0 134 -15 445 3807 0 267 17 444 17 267 0 445 81 441 59 88
 266 0 249 +15 444 28813 0 230 17 443 17 230 0 444 230 230 0 446 227 0 0 +15 443
 28814 0 447 17 449 17 447 0 443 447 447 0 298 226 0 0 -15 449 28796 0 231 17 44
8 17 231 0 449 231 231 0 450 232 0 0 +15 448 28797 0 452 17 0 17 452 0 448 452 4
52 0 238 233 0 0 -17 238 0 362 238 238 0 452 233 0 0 +15 362 28387 0 238 356 455
 15 455 33030 0 213 356 0 17 213 0 455 213 213 0 454 145 0 0 +17 454 0 451 454 4
54 0 213 145 0 0 -15 451 33546 0 454 152 453 15 453 33547 0 220 152 460 17 220 0
 453 220 220 0 456 212 0 0 +15 460 33548 0 458 152 457 17 458 0 460 458 458 0 22
2 217 0 0 -15 457 33549 0 223 152 0 17 223 0 457 223 223 0 459 225 0 0 +17 459 0
 461 459 459 0 223 225 0 0 -15 461 33024 0 459 348 0 17 222 0 465 222 222 0 458
 217 0 0 +15 465 33009 0 222 335 0 17 456 0 462 456 456 0 220 212 0 0 -15 462 33
017 0 456 340 0 17 450 0 360 450 450 0 231 232 0 0 -15 360 28382 0 450 348 461 1
7 298 0 342 298 298 0 447 226 0 0 +15 342 28368 0 298 335 465 17 446 0 347 446 4
46 0 230 227 0 0 -15 347 28376 0 446 340 462 17 81 0 445 256 267 77 249 250 0 46
3 -17 441 0 445 267 464 89 245 237 0 466 -17 88 0 407 292 61 89 267 266 0 441 -1
7 249 0 380 470 468 59 81 250 0 0 +15 380 2933 0 470 369 0 17 470 0 380 188 249
 106 61 294 0 0 -17 468 0 380 249 188 77 272 269 0 0 -17 188 0 380 468 470 109 1
08 186 0 272 +17 272 0 395 467 463 109 468 269 0 0 +15 395 33102 0 467 386 0 17
 467 0 395 66 272 111 114 183 0 469 -17 463 0 395 272 66 77 256 251 0 468 -17 66
 0 395 463 467 67 469 273 0 256 +17 256 0 445 474 81 67 463 251 0 265 +17 474 0
 445 475 256 68 265 259 0 472 -17 265 0 388 469 472 67 474 259 0 0 +15 388 2963
 0 469 382 0 17 469 0 388 181 265 111 66 273 0 0 -17 472 0 388 265 181 68 284 27
8 0 0 -17 181 0 388 472 469 86 117 176 0 284 +17 284 0 406 208 73 86 472 278 0 0
 +15 406 28454 0 284 403 0 17 208 0 406 80 284 53 91 202 0 473 +17 73 0 406 284
 80 68 475 263 0 474 +17 80 0 406 73 208 72 473 280 0 475 +17 475 0 445 84 474 7
2 73 263 0 253 -17 84 0 445 464 475 85 253 254 0 246 -17 253 0 383 473 471 72 84
 254 0 0 +15 383 2948 0 473 376 0 17 473 0 383 204 253 53 80 280 0 0 -17 471 0 3
83 253 204 85 288 290 0 0 -17 204 0 383 471 473 94 60 203 0 288 +17 288 0 396 19
6 246 94 471 290 0 0 +17 196 0 396 65 288 98 100 200 0 478 +17 246 0 396 288 65
 85 464 242 0 471 +17 65 0 396 246 196 62 478 283 0 464 +17 464 0 445 441 84 62
 246 242 0 245 -17 245 0 367 478 466 62 441 237 0 0 +15 367 2918 0 478 19 0 17 4
78 0 367 199 245 98 65 283 0 0 -17 466 0 367 245 199 89 292 295 0 0 -17 199 0 36
7 466 478 105 101 193 0 292 +17 292 0 407 480 88 105 466 295 0 0 +15 407 33107 0
 480 324 0 17 480 0 407 61 292 106 104 189 0 470 -17 61 0 407 88 480 59 470 294
 0 267 +17 104 0 154 101 108 105 480 189 0 199 +15 154 33544 0 117 152 451 17 10
1 0 154 100 104 98 199 193 0 196 -17 108 0 154 104 114 106 188 186 0 480 -17 114
 0 154 108 117 109 467 183 0 188 +17 117 0 154 114 91 111 181 176 0 467 -17 91 0
 154 117 60 86 208 202 0 181 -17 60 0 154 91 100 53 204 203 0 208 -17 100 0 154
 60 101 94 196 200 0 204 -82 3 400 123 16 2 82 3 392 123 4 2 81 1 275 33707 28 2
69 0 0 300 379 476 82 3 387 123 3 2 81 1 300 33706 28 294 0 0 287 275 479 82 3 4
76 123 27 1 81 1 287 33705 28 283 0 0 293 300 477 82 3 479 123 26 1 81 1 293 337
04 28 295 0 0 277 287 481 82 3 477 123 25 1 81 1 277 33703 28 273 0 0 282 293 48
5 82 3 481 123 24 1 81 1 282 33702 28 278 0 0 286 277 483 82 3 485 123 23 1 81 1
 286 33701 28 290 0 0 276 282 482 82 3 483 123 22 1 81 1 276 33700 28 280 0 0 18
4 286 484 82 3 482 123 21 1 81 1 184 33695 28 183 0 0 198 276 486 82 3 484 123 2
0 1 81 1 198 33694 28 200 0 0 216 184 490 82 3 486 123 15 1 81 1 216 33691 28 21
2 0 0 219 198 488 82 3 490 123 14 1 81 1 219 33690 28 217 0 0 215 216 487 82 3 4
88 123 11 1 81 1 215 33689 28 145 0 0 221 219 489 82 3 487 123 10 1 81 1 221 336
88 28 225 0 0 195 215 491 82 3 489 123 9 1 81 1 195 33687 28 189 0 0 210 221 495
 82 3 491 123 8 1 81 1 210 33686 28 202 0 0 187 195 492 82 3 495 123 7 1 81 1 18
7 33685 28 186 0 0 194 210 493 82 3 492 123 6 1 81 1 194 33684 28 193 0 0 185 18
7 494 82 3 493 123 5 1 81 1 185 33683 28 176 0 0 201 194 497 82 3 494 123 4 1 81
 1 201 33682 28 203 0 0 115 185 500 82 3 497 123 3 1 81 1 115 33675 28 109 0 0 1
07 201 499 82 3 500 123 2 1 81 1 107 33674 28 106 0 0 99 115 496 82 3 499 123 7
 0 81 1 99 33673 28 98 0 0 102 107 498 82 3 496 123 6 0 81 1 102 33672 28 105 0
 0 116 99 501 82 3 498 123 5 0 81 1 116 33671 28 111 0 0 95 102 502 82 3 501 123
 4 0 81 1 95 33670 28 86 0 0 96 116 504 82 3 502 123 3 0 81 1 96 33669 28 94 0 0
 57 95 503 82 3 504 123 2 0 81 1 57 33668 28 53 0 0 260 96 505 82 3 503 123 1 0
 81 1 260 29190 28 251 0 0 244 57 507 82 3 505 123 0 0 81 1 244 29189 28 242 0 0
 228 260 510 82 3 507 107 15 1 81 1 228 29188 28 227 0 0 297 244 509 82 3 510 10
7 14 1 81 1 297 29187 28 226 0 0 236 228 506 82 3 509 107 13 1 81 1 236 29186 28
 233 0 0 234 297 508 82 3 506 107 12 1 81 1 234 29185 28 232 0 0 268 236 515 82
 3 508 107 11 1 81 1 268 29184 28 266 0 0 264 234 511 82 3 515 107 10 1 81 1 264
 29183 28 263 0 0 247 268 513 82 3 511 107 9 1 81 1 247 29182 28 250 0 0 241 264
 512 82 3 513 107 8 1 81 1 241 29181 28 237 0 0 261 247 514 82 3 512 107 7 1 81
 1 261 29180 28 259 0 0 252 241 516 82 3 514 107 6 1 81 1 252 29179 28 254 0 0 7
9 261 520 82 3 516 107 5 1 81 1 79 29174 28 77 0 0 58 252 517 82 3 520 107 4 1 8
1 1 58 29173 28 59 0 0 63 79 518 82 3 517 107 7 0 81 1 63 29172 28 62 0 0 87 58
 519 82 3 518 107 6 0 81 1 87 29171 28 89 0 0 69 63 521 82 3 519 107 5 0 81 1 69
 29170 28 67 0 0 71 87 525 82 3 521 107 4 0 81 1 71 29169 28 68 0 0 82 69 523 82
 3 525 107 3 0 81 1 82 29168 28 85 0 0 76 71 522 82 3 523 107 2 0 81 1 76 29167
 28 72 0 0 0 82 524 82 3 522 107 1 0 82 3 524 107 0 0 82 3 377 123 6 2 82 3 373
 123 5 2 82 3 361 123 10 2 82 3 359 123 9 2 82 3 355 123 12 2 82 3 343 123 11 2
 79 15 336 SDL/TYSA_COLOUR83 3 329 .764705882352941 .545098039215686 .8039215686
27451 83 3 321 .764705882352941 .545098039215686 .803921568627451 83 3 312 .7647
05882352941 .545098039215686 .803921568627451 81 1 165 34351 28 160 0 0 129 24 5
29 82 3 302 127 2 1 81 1 129 34350 28 50 0 0 127 165 530 82 3 529 127 1 1 82 3 5
30 127 0 1 79 9 303 BTI/DetId82 3 161 126 7 1 81 1 35 34348 28 37 0 0 30 127 527
 82 3 131 127 3 0 82 3 527 127 2 0 82 3 45 127 0 0 82 3 32 127 1 0 19 18 259 0 1
 0 10 6 0 S0 74 4 CI16 index_map_offset0 0 1 dCCZ20 16 5 0 0 323 435 14 2 413 0
 0 0 0 0 0 0 0 0 0 0 0 0 0 0 80 1 13 311 528 8040 0 0 0 0 3 5 0 0 0 TTTFFFFFFFFF
FFFFF2 83 3 15 .764705882352941 .545098039215686 .803921568627451 79 17 528 SDL/
TYSA_COLOUR_21 0 
