**ABCDEFGHIJKLMNOPQRSTUVWXYZabcdefghijklmnopqrstuvwxyz**************************
**PARASOLID !"#$%&'()*+,-./:;<=>?@[\]^_`{|}~0123456789**************************
**PART1;
MC=unknown;
MC_MODEL=unknown;
MC_ID=unknown;
OS=unknown;
OS_RELEASE=unknown;
FRU=Parasolid 37.1.212;
APPL=Onshape;
SITE=unknown;
USER=unknown;
FORMAT=text;
GUISE=transmit;
KEY=BTGapi::writeModels_.xmt;
FILE=BTGapi::writeModels_.xmt;
DATE=2026-05-24T02:59:52 (UTC);
**PART2;
SCH=SCH_3701212_37102;
USFLD_SIZE=0;
**PART3;
**END_OF_HEADER*****************************************************************
T51 : TRANSMIT FILE created by modeller version 370121223 SCH_3701212_37102_1300
6239 0 12 36 CCCI7 lattice222 0 CCCI4 mesh1006 0 I8 polyline1008 0 CCCCCCCDI5 ow
ner1040 0 CCCI16 boundary_lattice222 0 CCCI13 boundary_mesh1006 0 I17 boundary_p
olyline1008 0 CCCA16 index_map_offset0 0 1 dA9 index_map82 0 A17 node_id_index_m
ap82 0 A20 schema_embedding_map82 0 A5 child12 0 A14 lowest_node_id0 0 1 dA16 me
sh_offset_data206 0 Z1 2022 2 3 0 0 0 0 0 0 0 1e3 1e-8 0 4 5 1 0 1 2 6 0 7 8 9 0
 0 10 11 12 0 0 0 0 0 0 0 81 255 1 2 2010 13 1 14 0 0 0 15 70 11 CI9 list_type0
 0 1 uI10 notransmit0 0 1 lCCCDCCDI12 finger_index0 0 1 dI12 finger_block1012 0
 CZ3 0 4 T1 0 0 5 20 1 16 16 13 255 6 5 0 1 0 17 0 0 18 0 50 255 7 158 0 19 20 0
 0 +.068015 -.014919 .00903 0 0 1 1 0 0 30 255 8 161 0 21 22 0 0 +.073 -25587171
2706579e-31 3e-4 0 -1 0 29 255 9 928 0 12 23 0 .06625 .001111999999999976 .006 1
9 9 CCCCCCI5 frame230 0 CA5 owner12 0 Z10 3 0 1 18 0 24 0 V0 16 255 11 42 25 ?27
 0 21 22 0 0 1 18 255 12 924 30 29 0 26 9 ?1 81 1 30 1517 28 12 0 0 34 35 32 17
 255 29 0 33 31 38 12 40 36 0 39 +18 26 915 37 41 12 45 23 ?1 81 1 37 1514 28 26
 0 0 43 42 44 17 41 0 46 50 48 26 47 49 0 51 +18 45 356 55 27 26 52 53 ?1 29 23
 916 0 26 53 9 .07075 .001111999999999976 .00903 29 53 457 0 45 54 23 .073 .0051
12 .006 29 54 460 0 52 57 53 .073 .005112 3e-4 18 52 358 60 59 45 56 54 ?1 29 57
 771 0 56 58 54 .073 -.053338 3e-4 18 56 687 61 62 52 64 57 ?1 29 58 772 0 64 63
 57 .073 -.053338 .006 18 64 697 65 66 56 70 58 ?1 29 63 1283 0 68 67 58 .07075
 .001111999999999976 .006 18 68 1175 42 50 70 69 63 ?1 29 67 1284 0 69 75 63 .06
625 .001111999999999976 .00903 18 69 1180 34 31 68 71 67 ?1 29 75 1286 0 70 73 6
7 .06625 -.049338 .006 18 70 1070 72 40 64 68 75 ?1 29 73 1464 0 71 74 75 .07075
 -.049338 .006 18 71 1402 43 76 69 80 73 ?1 29 74 1466 0 80 77 73 .06625 -.04933
8 .00903 18 80 1416 35 78 71 79 74 ?1 29 77 1469 0 79 81 74 .07075 -.049338 .009
03 18 79 1404 85 47 80 83 77 ?1 29 81 1731 0 83 82 77 .06353 -.053338 .00903 18
 83 1675 84 89 79 90 81 ?1 29 82 1732 0 90 87 81 .06353 -.053338 .006 18 90 1671
 88 86 83 93 82 ?1 29 87 1733 0 93 95 82 .06353 .005112 .006 18 93 1679 91 94 90
 92 87 ?1 29 95 1734 0 92 96 87 .06353 .005112 .00903 18 92 1669 100 98 93 97 95
 ?1 29 96 1966 0 97 99 95 .07603 -.053338 3e-4 18 97 1910 101 105 92 103 96 ?1 2
9 99 1967 0 103 102 96 .07603 -.053338 .00903 18 103 1916 104 106 97 110 99 ?1 2
9 102 1968 0 110 107 99 .07603 .005112 .00903 18 110 1914 108 109 103 112 102 ?1
 29 107 1969 0 112 0 102 .07603 .005112 3e-4 18 112 1902 115 114 110 0 107 ?1 81
 1 115 1903 28 112 0 0 111 101 113 17 114 0 116 117 59 112 119 118 0 120 +15 255
 116 119 0 59 121 0 17 117 0 116 125 114 97 123 122 0 124 +17 59 0 116 114 125 5
2 62 21 0 130 -17 119 0 126 128 120 52 114 118 0 0 -16 118 314 127 ?114 129 131
 135 0 0 1 17 120 0 126 119 109 112 132 133 0 123 -15 126 382 0 94 134 0 17 109
 0 126 120 136 110 98 140 0 132 +17 132 0 138 137 123 110 120 133 0 139 +16 133
 1886 144 ?132 145 122 142 0 0 1 17 123 0 138 132 124 112 117 122 0 0 -15 138 19
37 0 123 143 0 17 124 0 138 123 137 97 141 148 0 0 -16 122 1858 150 ?117 133 0 1
46 0 0 1 81 1 150 1860 28 122 0 0 149 147 151 30 146 1961 0 122 0 142 0 +.07603
 -.014919 3e-4 0 -1 0 30 142 1960 0 133 146 155 0 +.07603 .005112 3e-4 0 0 1 30
 155 1959 0 145 142 153 0 +.07603 -.014919 .00903 0 -1 0 16 145 1889 111 ?137 14
8 133 155 0 0 1 30 153 1958 0 148 155 152 0 +.07603 -.053338 3e-4 0 0 1 16 148 1
880 147 ?141 154 145 153 0 0 1 30 152 1726 0 154 153 156 0 +.06353 -281892564846
231e-31 .00903 0 1 0 16 154 1651 160 ?158 157 148 152 0 0 1 30 156 1725 0 157 15
2 159 0 +.06353 .005112 .003 0 0 -1 16 157 1654 161 ?165 162 154 156 0 0 1 30 15
9 1724 0 162 156 163 0 +.06353 -.033338 .006 0 1 0 16 162 1639 164 ?167 170 157
 159 0 0 1 30 163 1723 0 170 159 169 0 +.06353 -.053338 .003 0 0 -1 16 170 1645
 166 ?168 171 162 163 0 0 1 31 255 169 1275 0 172 163 174 0 +.0685 -.049338 .009
03 0 0 -1 1 0 0 .00225 16 172 1063 173 ?175 176 180 169 0 0 1 30 174 1274 0 176
 169 178 0 +.07075 -.049338 .005998 0 0 1 16 176 1058 177 ?48 179 172 174 0 0 1
 30 178 1273 0 179 174 185 0 +.06625 -.049338 .005998 0 0 1 16 179 1042 181 ?183
 182 176 178 0 0 1 31 185 1272 0 182 178 184 0 +.0685 -.049338 .006 0 0 1 1 0 0
 .00225 16 182 1053 186 ?190 187 179 185 0 0 1 30 184 1270 0 171 185 188 0 +.066
25 -.0115005 .00903 0 -1 0 16 171 1117 189 ?78 49 170 184 0 0 1 30 188 1269 0 49
 184 191 0 +.07075 -.0115005 .00903 0 1 0 16 49 1107 195 ?41 36 171 188 0 0 1 30
 191 1268 0 180 188 193 0 +.07075 -.0115005 .006 0 -1 0 16 180 1093 192 ?76 172
 36 191 0 0 1 30 193 1267 0 36 191 194 0 +.06625 -.0115005 .006 0 1 0 16 36 1100
 199 ?29 180 49 193 0 0 1 30 194 1265 0 187 193 200 0 +.07075 .00111199999999997
6 .005998 0 0 1 16 187 1151 197 ?51 198 182 194 0 0 1 30 200 1264 0 198 194 196
 0 +.06625 .001111999999999976 .005998 0 0 1 16 198 1132 203 ?31 205 187 200 0 0
 1 30 196 762 0 205 200 201 0 +0 -.053338 .00903 1 0 0 16 205 613 204 ?106 202 1
98 196 0 0 1 30 201 760 0 202 196 206 0 +.068015 -.053338 .006 1 0 0 16 202 660
 210 ?208 207 205 201 0 0 1 30 206 759 0 207 201 209 0 +.073 -.053338 3e-4 0 0 1
 16 207 635 211 ?215 131 202 206 0 0 1 30 209 758 0 131 206 135 0 +.074 -.053338
 3e-4 1 0 0 16 131 663 213 ?105 118 207 209 0 0 1 30 135 446 0 118 209 212 0 +.0
74 .005112 3e-4 1 0 0 30 212 441 0 129 135 214 0 +.073 .005112 3e-4 0 0 1 16 129
 272 216 ?128 220 118 212 0 0 1 31 214 440 0 220 212 217 0 +.0685 .0011119999999
99976 .00903 0 0 1 1 0 0 .00225 16 220 266 218 ?219 222 129 214 0 0 1 30 217 439
 0 225 214 224 0 +.068015 .005112 .006 -1 0 0 16 225 275 221 ?94 140 222 217 0 0
 1 30 224 438 0 140 217 223 0 +693889390390723e-32 .005112 .00903 1 0 0 16 140 2
69 226 ?109 21 225 224 0 0 1 31 223 436 0 222 224 22 0 +.0685 .00111199999999997
6 .006 0 0 1 1 0 0 .00225 16 222 293 227 ?229 225 220 223 0 0 1 30 22 159 0 11 2
23 8 0 +.073 -.033338 .006 0 1 0 81 1 227 1530 28 222 0 0 181 218 228 17 229 0 2
30 40 231 12 235 222 0 0 +15 230 1315 0 40 17 0 17 40 0 230 190 229 70 29 36 0 3
8 -17 231 0 230 229 190 68 76 180 0 235 -17 235 0 233 51 39 68 229 222 0 0 -15 2
33 931 0 39 232 0 17 51 0 233 219 235 26 50 187 0 234 +17 39 0 233 235 219 12 31
 198 0 229 -17 219 0 233 39 51 69 234 220 0 0 +17 31 0 33 78 29 69 39 198 0 240
 +15 33 1236 0 29 236 0 17 78 0 33 38 31 80 240 171 0 183 +17 240 0 238 234 175
 69 78 171 0 219 -15 238 1321 0 47 19 237 17 234 0 238 47 240 26 219 220 0 0 -17
 175 0 238 240 47 80 239 172 0 0 +17 47 0 238 175 234 79 41 49 0 48 -17 239 0 24
1 245 183 79 175 172 0 0 -15 241 1091 0 183 242 0 17 245 0 241 243 239 71 48 176
 0 190 -17 183 0 241 239 243 80 38 179 0 175 +17 243 0 241 183 245 70 190 182 0
 0 -17 38 0 33 29 78 70 183 179 0 243 -17 190 0 230 231 40 71 243 182 0 0 +17 48
 0 46 41 76 79 245 176 0 239 +15 46 1242 0 76 244 0 17 76 0 46 48 50 71 231 180
 0 245 +17 50 0 46 76 41 68 51 187 0 231 -14 255 244 1237 246 ?236 242 46 6 250
 -0 0 236 242 24 81 1 246 2019 248 244 247 0 249 254 255 14 236 1231 254 ?252 24
4 33 6 253 -0 0 252 244 24 14 242 1088 249 ?244 251 241 6 258 +0 0 244 251 24 50
 250 1255 0 244 258 253 0 +.07075 -.0115005 .005998 1 0 0 0 0 -1 13 24 4 0 0 0 0
 0 0 10 17 14 17 103 260 ?19 0 256 6 259 -0 0 19 0 24 81 1 260 2011 248 17 149 0
 0 257 261 14 19 98 257 ?232 17 238 6 7 +0 0 232 17 24 15 256 107 0 86 17 230 50
 259 154 0 17 265 20 0 +.068015 -.033338 .006 0 0 1 1 0 0 50 265 153 0 263 262 2
59 0 +.073 -255871712706579e-31 3e-4 -1 0 0 0 0 1 50 20 156 0 121 259 7 0 +.0690
15 -.014919 3e-4 0 0 1 1 0 0 14 121 116 264 ?134 263 116 6 20 -0 0 134 263 24 81
 1 264 2015 248 121 266 0 270 268 267 14 134 379 268 ?251 121 126 6 262 +0 0 251
 121 24 14 263 112 270 ?121 232 269 6 265 +0 0 121 232 24 81 1 270 2014 248 263
 271 0 275 264 272 14 232 374 275 ?263 19 233 6 273 -0 0 263 19 24 15 269 115 0
 27 263 0 17 27 0 269 130 215 45 66 11 0 274 +17 130 0 269 62 27 52 128 129 0 11
9 -17 215 0 269 27 62 64 277 207 0 0 +17 66 0 256 86 274 64 27 11 0 208 -17 274
 0 256 66 167 45 94 225 0 128 -17 167 0 256 274 86 93 280 162 0 0 +17 94 0 126 1
36 128 93 274 225 0 165 +17 128 0 126 94 119 45 130 129 0 0 +17 136 0 126 109 94
 92 165 157 0 158 -17 165 0 279 280 158 93 136 157 0 167 +15 279 1702 0 158 252
 0 17 280 0 279 276 165 90 167 162 0 168 -17 158 0 279 165 276 92 278 154 0 0 +1
7 276 0 279 158 280 83 168 170 0 0 -17 278 0 237 106 98 83 158 154 0 276 -15 237
 101 0 106 19 0 17 106 0 237 139 278 103 89 205 0 137 +17 98 0 237 278 139 92 10
9 140 0 136 -17 139 0 237 98 106 110 137 145 0 0 -17 137 0 138 124 132 103 139 1
45 0 141 +17 141 0 281 89 105 103 124 148 0 0 +15 281 730 0 89 251 0 17 89 0 281
 168 141 83 106 205 0 278 -17 105 0 281 141 277 97 125 131 0 117 +17 277 0 281 1
05 208 56 215 207 0 0 -17 125 0 116 59 117 56 105 131 0 277 -17 208 0 281 277 16
8 64 86 202 0 215 +17 168 0 281 208 89 90 276 170 0 0 +17 86 0 256 167 66 90 208
 202 0 280 -14 251 727 282 ?242 134 281 6 284 +0 0 242 134 24 81 1 282 2017 248
 251 283 0 268 249 285 50 284 744 0 251 253 273 0 +.069765 -.053338 .004665 0 -1
 0 1 0 0 50 253 1254 0 236 250 284 0 +.06625 -.0115005 .005998 -1 0 0 0 0 1 51 2
55 273 430 0 232 284 262 0 +.0685 .001111999999999976 -.03297595270975525 0 0 1
 .00225 1 0 0 50 262 429 0 134 273 265 0 +.063985 .005112 .004515 0 1 0 -1 0 0 8
0 7 CCCCCDI12 legal_owners0 17 1 lCZ1 248 0 286 8001 0 0 0 0 3 5 0 0 0 FFFFTFTFF
FFFFFFFF2 81 1 283 2006 28 251 0 282 290 288 287 81 1 268 2016 248 134 290 0 264
 282 289 81 1 249 2018 248 242 295 0 282 246 291 83 255 3 285 .615686274509804 .
811764705882353 .929411764705882 81 1 295 1534 28 242 0 249 293 292 294 83 3 291
 .615686274509804 .811764705882353 .929411764705882 80 1 28 296 300 9000 0 0 0 0
 3 6 0 0 0 FFTFTFTTFFFFFFFFF1 81 1 293 1533 28 236 0 254 247 295 297 81 1 292 15
35 28 232 0 275 295 164 298 82 255 3 294 74 2 2 81 1 275 2013 248 232 292 0 257
 270 299 81 1 164 1641 28 162 0 0 292 166 301 82 3 298 74 3 2 81 1 166 1647 28 1
70 0 0 164 160 305 82 3 301 75 9 1 81 1 160 1653 28 154 0 0 166 161 303 82 3 305
 75 7 1 81 1 161 1656 28 157 0 0 160 100 302 82 3 303 75 11 1 81 1 100 1670 28 9
2 0 0 161 88 304 82 3 302 75 3 1 81 1 88 1672 28 90 0 0 100 84 309 82 3 304 75 1
 0 81 1 84 1676 28 83 0 0 88 91 310 82 3 309 75 7 0 81 1 91 1680 28 93 0 0 84 30
7 308 82 3 310 75 5 0 81 1 307 1701 28 252 0 306 91 221 313 82 3 308 75 3 0 14 2
52 1699 306 ?143 236 279 6 315 +0 0 143 236 24 81 1 306 2021 248 252 307 0 254 3
11 314 81 1 221 1765 28 225 0 0 307 210 312 82 3 313 75 5 2 81 1 210 1767 28 202
 0 0 221 149 316 82 3 312 76 0 1 81 1 149 1771 28 17 0 260 210 150 320 82 3 316
 76 2 1 82 3 320 76 2 2 81 1 254 2020 248 236 293 0 246 306 318 81 1 311 2022 24
8 143 317 0 306 0 319 83 3 314 .615686274509804 .811764705882353 .92941176470588
2 14 143 1934 311 ?0 252 138 6 321 -0 0 0 252 24 81 1 317 1936 28 143 0 311 104
 325 323 83 3 319 .615686274509804 .811764705882353 .929411764705882 81 1 104 19
17 28 103 0 0 108 317 322 81 1 325 1999 28 1 0 324 317 127 326 82 3 323 77 5 2 8
1 1 324 2008 330 1 325 14 0 0 327 81 1 127 2000 28 118 0 0 325 213 328 82 3 326
 63 0 3 81 1 213 2001 28 131 0 0 127 226 329 82 3 328 78 0 1 81 1 226 2002 28 14
0 0 0 213 204 332 82 3 329 78 1 1 81 1 204 2003 28 205 0 0 226 266 335 82 3 332
 78 2 1 81 1 266 2004 28 121 0 264 204 290 334 82 3 335 78 3 1 81 1 290 2005 28
 134 0 268 266 283 331 82 3 334 78 0 2 82 3 331 78 1 2 80 1 330 333 336 8038 0 0
 0 0 0 0 0 0 0 TTTTTTTTTTTTTFTFT10 81 1 14 2009 333 1 324 2 0 0 337 98 255 6 327
 80 97 114 116 32 49 80 1 333 339 338 8017 0 0 0 0 0 0 0 0 0 TTTTTTTTTTTTTFTFT3
 84 255 6 337 Part 179 255 13 338 SDL/TYSA_NAME79 14 336 SDL/TYSA_UNAME81 1 108
 1915 28 110 0 0 101 104 340 82 3 322 77 5 0 81 1 101 1911 28 97 0 0 115 108 341
 82 3 340 77 1 0 82 3 341 77 7 0 50 321 1949 0 143 0 315 0 +.07603 -.014919 3e-4
 -1 0 0 0 0 1 50 315 1714 0 252 321 258 0 +.06353 -281892564846231e-31 .003 -1 0
 0 0 0 1 51 258 1258 0 242 315 250 0 -.0685 -.049338 .005998 0 0 1 .00225 1 0 0
 83 3 318 .615686274509804 .811764705882353 .929411764705882 81 1 257 2012 248 1
9 288 0 260 275 345 83 3 299 .615686274509804 .811764705882353 .929411764705882
 81 1 288 2007 28 19 0 257 283 0 343 83 3 345 .615686274509804 .811764705882353
 .929411764705882 82 3 343 78 3 2 81 1 247 1532 28 244 0 246 218 293 342 82 3 29
7 74 1 2 81 1 218 1531 28 220 0 0 227 247 344 82 3 342 74 0 2 82 3 344 74 11 1 7
9 9 300 BTI/DetId83 3 289 .615686274509804 .811764705882353 .929411764705882 82
 3 287 78 2 2 79 15 286 SDL/TYSA_COLOUR17 62 0 269 215 130 56 59 21 0 125 +16 21
 37 350 ?62 11 140 8 0 0 1 81 1 350 819 28 21 0 0 65 25 346 81 1 65 698 28 64 0
 0 61 350 348 81 1 25 822 28 11 0 0 350 271 347 82 3 346 70 0 1 81 1 271 827 28
 263 0 270 25 85 349 82 3 347 70 3 1 81 1 85 1512 28 79 0 0 271 43 351 82 3 349
 70 2 2 81 1 43 1513 28 71 0 0 85 37 355 82 3 351 74 0 0 82 3 355 74 1 0 81 1 61
 688 28 56 0 0 211 65 352 82 3 348 69 7 0 81 1 211 637 28 207 0 0 60 61 353 82 3
 352 69 1 0 81 1 60 359 28 52 0 0 55 211 354 82 3 353 69 11 1 81 1 55 357 28 45
 0 0 216 60 356 82 3 354 64 0 0 81 1 216 274 28 129 0 0 0 55 360 82 3 356 64 3 0
 82 3 360 64 4 1 83 3 272 .615686274509804 .811764705882353 .929411764705882 83
 3 267 .615686274509804 .811764705882353 .929411764705882 83 3 261 .615686274509
804 .811764705882353 .929411764705882 83 3 255 .615686274509804 .811764705882353
 .929411764705882 81 1 181 1529 28 179 0 0 177 227 358 82 3 228 74 10 1 81 1 177
 1528 28 176 0 0 189 181 357 82 3 358 74 9 1 81 1 189 1527 28 171 0 0 195 177 35
9 82 3 357 74 8 1 81 1 195 1526 28 49 0 0 173 189 364 82 3 359 74 7 1 81 1 173 1
525 28 172 0 0 199 195 365 82 3 364 74 6 1 81 1 199 1524 28 36 0 0 192 173 362 8
2 3 365 74 5 1 81 1 192 1523 28 180 0 0 186 199 363 82 3 362 74 4 1 81 1 186 152
2 28 182 0 0 203 192 361 82 3 363 74 3 1 81 1 203 1521 28 198 0 0 197 186 368 82
 3 361 74 2 1 81 1 197 1520 28 187 0 0 72 203 370 82 3 368 74 1 1 81 1 72 1519 2
8 70 0 0 35 197 366 82 3 370 74 0 1 81 1 35 1518 28 80 0 0 30 72 369 82 3 366 74
 7 0 82 3 369 74 6 0 81 1 147 1882 28 148 0 0 150 144 367 81 1 144 1888 28 133 0
 0 147 111 371 82 3 367 77 7 1 81 1 111 1891 28 145 0 0 144 115 375 82 3 371 77
 3 1 82 3 375 77 9 1 82 3 151 77 11 1 82 3 113 77 3 0 81 1 34 1516 28 69 0 0 42
 30 373 81 1 42 1515 28 68 0 0 37 34 372 82 3 373 74 4 0 82 3 372 74 3 0 82 3 44
 74 2 0 82 3 32 74 5 0 19 18 1 0 1 0 10 6 0 S0 74 4 CI16 index_map_offset0 0 1 d
CCZ20 16 5 0 0 288 324 14 2 311 0 0 0 0 0 0 0 0 0 0 0 0 0 0 0 80 1 13 248 374 80
40 0 0 0 0 3 5 0 0 0 TTTFFFFFFFFFFFFFF2 83 3 15 .615686274509804 .81176470588235
3 .929411764705882 79 17 374 SDL/TYSA_COLOUR_21 0 
