**ABCDEFGHIJKLMNOPQRSTUVWXYZabcdefghijklmnopqrstuvwxyz**************************
**PARASOLID !"#$%&'()*+,-./:;<=>?@[\]^_`{|}~0123456789**************************
**PART1;
MC=unknown;
MC_MODEL=unknown;
MC_ID=unknown;
OS=unknown;
OS_RELEASE=unknown;
FRU=Parasolid 37.1.212;
APPL=Onshape;
SITE=unknown;
USER=unknown;
FORMAT=text;
GUISE=transmit;
KEY=BTGapi::writeModels_.xmt;
FILE=BTGapi::writeModels_.xmt;
DATE=2026-05-24T03:00:12 (UTC);
**PART2;
SCH=SCH_3701212_37102;
USFLD_SIZE=0;
**PART3;
**END_OF_HEADER*****************************************************************
T51 : TRANSMIT FILE created by modeller version 370121223 SCH_3701212_37102_1300
6239 0 12 36 CCCI7 lattice222 0 CCCI4 mesh1006 0 I8 polyline1008 0 CCCCCCCDI5 ow
ner1040 0 CCCI16 boundary_lattice222 0 CCCI13 boundary_mesh1006 0 I17 boundary_p
olyline1008 0 CCCA16 index_map_offset0 0 1 dA9 index_map82 0 A17 node_id_index_m
ap82 0 A20 schema_embedding_map82 0 A5 child12 0 A14 lowest_node_id0 0 1 dA16 me
sh_offset_data206 0 Z1 3456 2 3 0 0 0 0 0 0 0 1e3 1e-8 0 4 5 1 0 1 2 6 0 7 8 9 0
 0 10 11 12 0 0 0 0 0 0 0 81 255 1 2 3440 13 1 14 0 0 0 15 70 11 CI9 list_type0
 0 1 uI10 notransmit0 0 1 lCCCDCCDI12 finger_index0 0 1 dI12 finger_block1012 0
 CZ3 0 4 T1 0 0 5 20 1 16 16 13 255 6 137 0 1 0 17 0 0 18 0 50 255 7 132 0 17 19
 0 0 +0 .00395 .001 0 1 0 0 0 1 30 255 8 576 0 20 21 0 0 +-.06309 -.00395 .003 0
 0 -1 29 255 9 3038 0 12 22 0 .05391 .00395 .0024 19 9 CCCCCCI5 frame230 0 CA5 o
wner12 0 Z10 48 0 1 18 0 23 0 V0 16 255 11 309 24 ?25 0 27 30 0 0 1 18 255 12 30
34 29 26 0 28 9 ?1 81 1 29 3415 34 12 0 0 35 32 33 17 255 26 0 31 38 40 12 36 39
 0 37 -18 28 3014 32 41 12 45 22 ?1 81 1 32 3416 34 28 0 0 29 43 42 17 41 0 44 4
6 50 28 48 47 0 49 +18 45 3009 43 40 28 51 55 ?1 29 22 3018 0 28 55 9 -.05391 -.
00395 .0024 29 55 3013 0 45 52 22 .05391 -.00395 .0024 29 52 3008 0 51 53 55 .06
309 -.00395 .0024 18 51 3004 54 57 45 60 52 ?1 29 53 2633 0 60 59 52 -.073 -.003
95 3e-4 18 60 2629 56 58 51 61 53 ?1 29 59 1172 0 62 64 53 -.06309 -.00395 .006
 18 62 1068 63 65 66 70 59 ?1 29 64 1173 0 70 68 59 -.06309 .00395 .006 18 70 10
78 67 69 62 75 64 ?1 29 68 1180 0 71 73 64 .05391 -.00395 .006 18 71 997 72 74 7
6 80 68 ?1 29 73 1181 0 80 77 68 -.05391 -.00395 .006 18 80 995 78 79 71 81 73 ?
1 29 77 1182 0 81 85 73 -.05391 .00395 .006 18 81 987 83 82 80 66 77 ?1 29 85 11
83 0 66 84 77 .05391 .00395 .006 18 66 983 89 38 81 62 85 ?1 29 84 1188 0 61 90
 85 .06309 -.00395 .006 18 61 898 87 88 60 76 84 ?1 29 90 1191 0 76 86 84 .06309
 .00395 .006 18 76 908 93 95 61 71 90 ?1 29 86 2040 0 75 91 90 .073 -.00395 .006
 18 75 1987 94 92 70 96 86 ?1 29 91 2041 0 96 100 86 .073 .00395 .006 18 96 1979
 98 97 75 99 91 ?1 29 100 2287 0 99 101 91 -.073 .00395 .006 18 99 2226 105 103
 96 102 100 ?1 29 101 2288 0 102 104 100 -.073 -.00395 .006 18 102 2222 106 110
 99 107 101 ?1 29 104 2866 0 107 108 101 -.073 .00395 3e-4 18 107 2782 109 112 1
02 115 104 ?1 29 108 2868 0 115 114 104 .073 -.00395 3e-4 18 115 2790 111 113 10
7 116 108 ?1 29 114 2869 0 116 117 108 .073 .00395 3e-4 18 116 2786 119 118 115
 120 114 ?1 29 117 3344 0 121 125 114 -.05391 .00395 .0024 18 121 3260 35 123 12
0 122 117 ?1 29 125 3345 0 122 124 117 -.06309 .00395 .0024 18 122 3264 130 126
 121 128 125 ?1 29 124 3346 0 128 127 125 -.06309 -.00395 .0024 18 128 3268 129
 48 122 0 124 ?1 29 127 3354 0 120 0 124 .06309 .00395 .0024 18 120 3173 131 135
 116 121 127 ?1 81 1 131 3413 34 120 0 0 54 35 132 17 135 0 133 57 134 120 95 27
 0 136 +15 255 133 3045 0 57 140 0 17 57 0 133 88 135 51 136 138 0 25 -17 134 0
 133 135 88 76 137 139 0 0 +17 95 0 144 97 145 76 135 27 0 142 -16 27 301 143 ?1
35 11 141 148 0 0 1 17 136 0 150 146 149 120 57 138 0 145 +15 150 3198 0 149 147
 0 17 146 0 150 36 136 12 145 151 0 0 -17 149 0 150 136 36 51 155 153 0 0 +16 13
8 3148 152 ?136 151 153 154 0 0 1 17 145 0 144 95 37 120 146 151 0 0 +15 144 266
5 0 156 17 0 17 37 0 144 145 160 12 38 141 0 146 +16 151 3127 158 ?145 39 138 15
7 0 0 1 81 1 158 3129 34 151 0 0 159 161 165 16 39 3153 162 ?36 163 151 164 0 0
 1 30 157 3337 0 151 154 164 0 +0 .00395 .0024 1 0 0 30 154 3338 0 138 167 157 0
 +.06309 -268882138776405e-31 .0024 0 1 0 30 164 3336 0 39 157 170 0 +.05391 0 .
0024 0 -1 0 30 170 3327 0 47 164 169 0 +0 -.00395 .0024 1 0 0 16 47 3242 166 ?41
 168 0 170 0 0 1 30 169 3326 0 168 170 171 0 +-.06309 -268882138776405e-31 .0024
 0 1 0 16 168 3222 172 ?174 173 47 169 0 0 1 30 171 3325 0 173 169 175 0 +0 .003
95 .0024 1 0 0 16 173 3214 176 ?123 180 168 171 0 0 1 30 175 3324 0 180 171 178
 0 +-.05391 0 .0024 0 -1 0 16 180 3204 177 ?49 153 173 175 0 0 1 31 255 178 2861
 0 163 175 179 0 +.0685 137772764904077e-33 3e-4 0 0 1 1 0 0 .00225 16 163 2742
 185 ?181 183 39 178 0 0 1 30 179 2860 0 183 178 182 0 +0 .00395 3e-4 1 0 0 16 1
83 2702 184 ?118 186 163 179 0 0 1 30 182 2859 0 186 179 190 0 +.073 -2428612866
36753e-31 3e-4 0 -1 0 16 186 2712 187 ?113 188 183 182 0 0 1 30 190 2858 0 188 1
82 189 0 +0 -.00395 3e-4 1 0 0 16 188 2757 191 ?195 193 186 190 0 0 1 30 189 285
7 0 193 190 192 0 +-.073 -1561251128379125e-32 3e-4 0 -1 0 16 193 2752 194 ?199
 200 188 189 0 0 1 31 192 2856 0 200 189 197 0 --.0685 -418063801058928e-31 3e-4
 0 0 1 1 0 0 .00225 16 200 2762 198 ?196 203 193 192 0 0 1 31 197 2504 0 205 192
 201 0 +-.0685 -418063801058928e-31 .006 0 0 -1 1 0 0 .00225 16 205 2431 204 ?20
2 206 203 197 0 0 1 31 201 2502 0 203 197 210 0 +.0685 137772764904077e-33 .006
 0 0 1 1 0 0 .00225 16 203 2467 208 ?207 205 200 201 0 0 1 30 210 2280 0 206 201
 209 0 +-.073 -.00395 .001 0 0 -1 16 206 2186 211 ?215 213 205 210 0 0 1 30 209
 2279 0 213 210 212 0 +-.073 -1561251128379125e-32 .006 0 -1 0 16 213 2192 214 ?
216 220 206 209 0 0 1 30 212 2278 0 220 209 217 0 +-.073 .00395 .001 0 0 -1 16 2
20 2209 218 ?219 222 213 212 0 0 1 30 217 2033 0 222 212 225 0 +.073 .00395 .001
 0 0 -1 16 222 1937 224 ?221 223 220 217 0 0 1 30 225 2032 0 223 217 226 0 +.073
 -242861286636753e-31 .006 0 -1 0 16 223 1959 227 ?229 228 222 225 0 0 1 30 226
 2031 0 228 225 230 0 +.073 -.00395 .001 0 0 -1 16 228 1962 231 ?235 233 223 226
 0 0 1 30 230 1167 0 232 226 234 0 +0 .00395 .006 1 0 0 16 232 874 240 ?97 236 2
38 230 0 0 1 30 234 1165 0 236 230 237 0 +0 -.00395 .006 1 0 0 16 236 880 239 ?9
2 139 232 234 0 0 1 30 237 1164 0 139 234 241 0 +.06309 -268882138776405e-31 .00
6 0 1 0 16 139 854 245 ?134 242 236 237 0 0 1 30 241 1155 0 243 237 244 0 +.0539
1 0 .006 0 -1 0 16 243 939 246 ?250 248 247 241 0 0 1 30 244 1154 0 248 241 249
 0 +0 .00395 .006 1 0 0 16 248 945 254 ?160 255 243 244 0 0 1 30 249 1153 0 255
 244 252 0 +-.05391 0 .006 0 -1 0 16 255 967 253 ?251 238 248 249 0 0 1 30 252 1
152 0 238 249 258 0 +0 -.00395 .006 1 0 0 16 238 970 260 ?256 232 255 252 0 0 1
 30 258 1142 0 233 252 259 0 +0 .00395 .006 1 0 0 16 233 1040 257 ?261 265 228 2
58 0 0 1 30 259 1141 0 265 258 263 0 +-.06309 -268882138776405e-31 .006 0 1 0 16
 265 1057 262 ?264 247 233 259 0 0 1 30 263 1140 0 247 259 30 0 +0 -.00395 .006
 1 0 0 16 247 1054 266 ?270 243 265 263 0 0 1 30 30 603 0 11 263 148 0 +.06309 -
.00395 .003 0 0 -1 30 148 600 0 27 30 268 0 +.06309 .00395 .003 0 0 -1 30 268 59
1 0 141 148 267 0 +.05391 .00395 .003 0 0 -1 16 141 392 269 ?37 27 271 268 0 0 1
 30 267 590 0 271 268 275 0 +-.05391 .00395 .003 0 0 -1 16 271 400 272 ?273 141
 274 267 0 0 1 30 275 589 0 274 267 277 0 +-.05391 -.00395 .003 0 0 -1 16 274 40
8 280 ?279 271 276 275 0 0 1 30 277 588 0 276 275 21 0 +.05391 -.00395 .003 0 0
 -1 16 276 386 278 ?40 274 20 277 0 0 1 30 21 577 0 242 277 8 0 +-.06309 .00395
 .003 0 0 -1 16 242 487 281 ?282 20 139 21 0 0 1 81 1 281 3431 34 242 0 0 284 28
3 285 17 282 0 144 123 261 122 69 242 0 0 +16 20 481 284 ?286 276 242 8 0 0 1 81
 1 284 3430 34 20 0 0 278 281 290 17 286 0 288 174 287 128 65 20 0 0 +15 288 535
 0 286 289 0 17 174 0 288 69 286 122 50 168 0 282 +17 287 0 288 286 69 62 264 26
5 0 270 -17 65 0 295 110 48 62 286 20 0 287 -15 295 3401 0 25 291 0 17 110 0 295
 215 65 102 270 247 0 293 -17 48 0 295 65 279 128 41 47 0 50 -17 279 0 295 48 29
2 28 79 274 0 0 +17 50 0 44 41 126 128 174 168 0 286 -15 44 3295 0 46 294 0 17 1
26 0 44 50 46 122 123 173 0 174 -17 46 0 44 126 41 121 49 180 0 273 -17 123 0 14
4 82 282 121 126 173 0 46 +17 82 0 144 160 123 81 273 271 0 296 -17 160 0 144 37
 82 66 300 248 0 0 +17 273 0 297 49 296 121 82 271 0 0 +17 296 0 297 273 79 81 2
51 255 0 300 -15 297 454 0 273 298 0 17 79 0 297 296 49 80 279 274 0 251 -17 251
 0 299 256 300 80 296 255 0 292 +17 300 0 299 251 301 81 160 248 0 0 -15 299 101
8 0 301 305 0 17 301 0 299 300 256 66 250 243 0 160 -17 256 0 299 301 251 71 292
 238 0 250 +17 250 0 31 40 38 71 301 243 0 0 +15 31 3055 0 26 303 0 17 40 0 31 2
6 250 45 74 276 0 36 +17 38 0 31 250 26 66 37 141 0 301 -17 74 0 295 292 155 71
 40 276 0 256 -17 36 0 150 149 146 45 26 39 0 155 +17 155 0 295 74 25 45 149 153
 0 0 -17 25 0 295 155 302 51 88 11 0 149 +16 153 3145 161 ?149 138 180 167 0 0 1
 81 1 161 3147 34 153 0 0 158 304 309 30 167 3339 0 153 0 154 0 +0 -.00395 .0024
 1 0 0 80 7 CCCCCDI12 legal_owners0 17 1 lCZ1 34 310 307 9000 0 0 0 0 3 6 0 0 0
 FFTFTFTTFFFFFFFFF1 81 1 304 3197 34 147 0 308 161 176 306 82 255 3 309 25 5 1 1
4 255 147 3195 308 ?294 313 150 6 315 +0 0 294 313 23 81 1 308 3455 311 147 304
 0 314 312 316 81 1 176 3216 34 173 0 0 304 166 320 82 3 306 25 5 2 81 1 166 324
4 34 47 0 0 176 318 317 82 3 320 25 3 1 81 1 318 3294 34 294 0 312 166 319 321 8
2 3 317 25 7 1 14 294 3292 312 ?0 147 44 6 325 +0 0 0 147 23 81 1 312 3456 311 2
94 318 0 308 0 323 81 1 319 3411 34 1 0 322 318 54 324 82 3 321 25 7 2 81 1 322
 3438 326 1 319 14 0 0 330 81 1 54 3412 34 51 0 0 319 131 327 82 3 324 6 0 3 82
 3 327 26 0 0 80 1 326 328 329 8038 0 0 0 0 0 0 0 0 0 TTTTTTTTTTTTTFTFT10 81 1 1
4 3439 328 1 322 2 0 0 332 98 255 6 330 80 97 114 116 32 49 80 1 328 335 334 801
7 0 0 0 0 0 0 0 0 0 TTTTTTTTTTTTTFTFT3 84 255 6 332 Part 179 255 13 334 SDL/TYSA
_NAME79 14 329 SDL/TYSA_UNAME80 1 311 0 331 8001 0 0 0 0 3 5 0 0 0 FFFFTFTFFFFFF
FFFF2 83 255 3 323 .615686274509804 .811764705882353 .929411764705882 79 15 331
 SDL/TYSA_COLOUR50 325 3309 0 294 315 333 0 +0 -234187669256869e-31 .0024 0 0 1
 1 0 0 13 23 49 0 0 0 0 0 0 10 17 14 17 128 336 ?291 0 144 6 7 +0 0 291 0 23 81
 1 336 3441 311 17 283 0 0 337 339 14 291 124 337 ?289 17 295 6 19 -0 0 289 17 2
3 81 1 337 3442 311 291 338 0 336 340 341 14 289 532 340 ?303 291 288 6 345 -0 0
 303 291 23 50 19 130 0 291 345 7 0 +0 -.00395 .001 0 1 0 0 0 1 50 345 559 0 289
 343 19 0 +-.06309 -268882138776405e-31 .003 -1 0 0 0 0 1 50 343 565 0 298 342 3
45 0 +-.05391 0 .003 1 0 0 0 0 -1 14 298 451 344 ?140 303 297 6 343 -0 0 140 303
 23 50 342 567 0 303 350 343 0 +.05391 0 .003 1 0 0 0 0 -1 14 303 443 346 ?298 2
89 31 6 342 +0 0 298 289 23 50 350 573 0 140 348 342 0 +.06309 -268882138776405e
-31 .003 -1 0 0 0 0 1 14 140 358 347 ?349 298 133 6 350 +0 0 349 298 23 50 348 1
119 0 351 355 350 0 +0 -260208521396521e-31 .006 0 0 1 1 0 0 14 351 1100 352 ?35
3 305 354 6 348 +0 0 353 305 23 50 355 1125 0 305 356 348 0 +0 -260208521396521e
-31 .006 0 0 1 1 0 0 14 305 1015 360 ?351 349 299 6 355 +0 0 351 349 23 50 356 1
131 0 349 358 355 0 +0 -260208521396521e-31 .006 0 0 1 1 0 0 14 349 930 357 ?305
 140 359 6 356 +0 0 305 140 23 50 358 2022 0 353 364 356 0 +.073 -24286128663675
3e-31 .001 1 0 0 0 0 -1 14 353 2007 365 ?362 351 363 6 358 +0 0 362 351 23 50 36
4 2269 0 362 361 358 0 +-.073 -1561251128379125e-32 .001 1 0 0 0 0 -1 14 362 225
4 368 ?370 353 366 6 364 -0 0 370 353 23 51 255 361 2494 0 369 367 364 0 +.0685
 137772764904077e-33 -.019 0 0 1 .00225 1 0 0 14 369 2477 371 ?313 370 375 6 361
 -0 0 313 370 23 51 367 2497 0 370 333 361 0 --.0685 -418063801058928e-31 -.019
 0 0 1 .00225 1 0 0 14 370 2447 373 ?369 362 372 6 367 +0 0 369 362 23 50 333 28
45 0 313 325 367 0 +0 -234187669256869e-31 3e-4 0 0 1 1 0 0 14 313 2824 314 ?147
 369 374 6 333 -0 0 147 369 23 81 1 314 3454 311 313 376 0 371 308 380 15 374 28
27 0 181 313 378 17 181 0 374 181 181 0 377 163 0 0 +15 378 2828 0 118 313 379 1
7 118 0 378 113 112 116 156 183 0 381 +15 379 2829 0 385 313 0 17 385 0 379 385
 385 0 196 200 0 0 -17 196 0 372 196 196 0 385 200 0 0 +15 372 2624 0 196 370 38
2 15 382 2445 0 383 370 0 17 383 0 382 383 383 0 202 205 0 0 -17 202 0 354 202 2
02 0 383 205 0 0 +15 354 2397 0 202 351 384 15 384 1103 0 270 351 0 17 270 0 384
 264 216 62 110 247 0 0 +17 264 0 384 103 270 70 287 265 0 261 +17 216 0 384 270
 103 102 387 213 0 0 +17 103 0 384 216 264 99 261 233 0 390 -17 387 0 366 219 29
3 99 216 213 0 0 -15 366 2257 0 219 362 0 17 219 0 366 199 387 107 390 220 0 0 +
17 293 0 366 387 199 102 215 206 0 216 -17 199 0 366 293 219 60 112 193 0 215 +1
7 215 0 295 195 110 60 293 206 0 0 +17 195 0 295 389 215 115 58 188 0 235 +17 38
9 0 295 302 195 75 235 228 0 0 -17 58 0 378 112 113 60 195 188 0 199 -17 235 0 3
63 381 229 115 389 228 0 0 +15 363 2655 0 381 353 0 17 381 0 363 386 235 116 113
 186 0 221 -17 229 0 363 235 386 75 388 223 0 389 +17 386 0 363 229 381 96 221 2
22 0 0 -17 388 0 391 142 92 96 229 223 0 386 -15 391 933 0 137 349 0 17 142 0 39
1 137 388 76 97 232 0 134 -17 92 0 391 388 137 75 302 236 0 229 +17 137 0 391 92
 142 61 134 139 0 0 -17 302 0 295 25 389 61 92 236 0 137 -17 97 0 144 221 95 96
 142 232 0 388 +17 221 0 144 156 97 116 386 222 0 0 +17 156 0 144 390 221 107 11
8 183 0 219 -17 390 0 144 261 156 99 219 220 0 387 -17 261 0 144 282 390 70 103
 233 0 0 +17 113 0 378 58 118 115 381 186 0 195 +17 112 0 378 118 58 107 199 193
 0 156 -17 377 0 375 377 377 0 181 163 0 0 -15 375 2616 0 377 369 392 15 392 247
5 0 207 369 0 17 207 0 392 207 207 0 394 203 0 0 +17 394 0 359 394 394 0 207 203
 0 0 -15 359 2405 0 394 349 391 81 1 376 2893 34 313 0 314 211 393 395 81 1 371
 3453 311 369 396 0 373 314 400 83 3 380 .615686274509804 .811764705882353 .9294
11764705882 81 1 396 2898 34 369 0 371 398 159 397 81 1 373 3452 311 370 159 0 3
68 371 399 83 3 400 .615686274509804 .811764705882353 .929411764705882 81 1 159
 2899 34 370 0 373 396 158 405 81 1 368 3451 311 362 398 0 365 373 401 83 3 399
 .615686274509804 .811764705882353 .929411764705882 81 1 398 2895 34 362 0 368 3
93 396 403 81 1 365 3450 311 353 393 0 352 368 402 83 3 401 .615686274509804 .81
1764705882353 .929411764705882 81 1 393 2894 34 353 0 365 376 398 404 81 1 352 3
449 311 351 406 0 360 365 410 83 3 402 .615686274509804 .811764705882353 .929411
764705882 81 1 406 2516 34 351 0 352 407 119 408 81 1 360 3448 311 305 409 0 357
 352 411 83 3 410 .615686274509804 .811764705882353 .929411764705882 81 1 409 10
17 34 305 0 360 72 262 415 81 1 357 3447 311 349 407 0 347 360 413 83 3 411 .615
686274509804 .811764705882353 .929411764705882 81 1 407 2515 34 349 0 357 204 40
6 412 81 1 347 3446 311 140 414 0 344 357 419 83 3 413 .615686274509804 .8117647
05882353 .929411764705882 81 1 414 3434 34 140 0 347 338 420 417 81 1 344 3445 3
11 298 418 0 346 347 416 83 3 419 .615686274509804 .811764705882353 .92941176470
5882 81 1 418 3436 34 298 0 344 420 423 425 81 1 346 3444 311 303 420 0 340 344
 421 83 3 416 .615686274509804 .811764705882353 .929411764705882 81 1 420 3435 3
4 303 0 346 414 418 424 81 1 340 3443 311 289 423 0 337 346 422 83 3 421 .615686
274509804 .811764705882353 .929411764705882 81 1 423 3437 34 289 0 340 418 0 426
 83 3 422 .615686274509804 .811764705882353 .929411764705882 82 3 426 26 5 2 82
 3 424 26 3 2 82 3 425 26 4 2 81 1 338 3433 34 291 0 337 283 414 430 82 3 417 26
 2 2 81 1 283 3432 34 17 0 336 281 338 428 82 3 430 26 1 2 82 3 428 26 0 2 81 1
 204 2510 34 205 0 0 208 407 427 82 3 412 22 2 2 81 1 208 2509 34 203 0 0 257 20
4 429 82 3 427 22 1 1 81 1 257 2321 34 233 0 0 266 208 431 82 3 429 22 0 1 81 1
 266 2320 34 247 0 0 105 257 435 82 3 431 18 1 1 81 1 105 2227 34 99 0 0 106 266
 433 82 3 435 18 0 1 81 1 106 2223 34 102 0 0 214 105 432 82 3 433 17 5 0 81 1 2
14 2194 34 213 0 0 240 106 434 82 3 432 17 7 0 81 1 240 2076 34 232 0 0 239 214
 436 82 3 434 17 7 1 81 1 239 2075 34 236 0 0 94 240 440 82 3 436 16 3 1 81 1 94
 1988 34 75 0 0 98 239 437 82 3 440 16 2 1 81 1 98 1980 34 96 0 0 227 94 438 82
 3 437 15 7 0 81 1 227 1961 34 223 0 0 67 98 439 82 3 438 15 5 0 81 1 67 1079 34
 70 0 0 63 227 442 82 3 439 15 7 1 81 1 63 1069 34 62 0 0 262 67 445 82 3 442 11
 23 0 81 1 262 1059 34 265 0 0 409 63 444 82 3 445 11 21 0 82 3 444 11 29 1 81 1
 72 998 34 71 0 0 78 409 441 82 3 415 11 15 2 81 1 78 996 34 80 0 0 83 72 443 82
 3 441 11 19 0 81 1 83 988 34 81 0 0 89 78 446 82 3 443 11 17 0 81 1 89 984 34 6
6 0 0 260 83 447 82 3 446 11 13 0 81 1 260 972 34 238 0 0 253 89 449 82 3 447 11
 15 0 81 1 253 969 34 255 0 0 254 260 448 82 3 449 11 23 1 81 1 254 947 34 248 0
 0 246 253 450 82 3 448 11 27 1 81 1 246 941 34 243 0 0 93 254 451 82 3 450 11 2
1 1 81 1 93 909 34 76 0 0 87 246 455 82 3 451 11 25 1 81 1 87 899 34 61 0 0 245
 93 453 82 3 455 11 11 0 81 1 245 856 34 139 0 0 0 87 452 82 3 453 11 9 0 82 3 4
52 11 19 1 81 1 119 2879 34 116 0 0 406 111 454 82 3 408 22 3 2 81 1 111 2880 34
 115 0 0 119 109 460 82 3 454 24 0 0 81 1 109 2881 34 107 0 0 111 56 456 82 3 46
0 24 1 0 81 1 56 2882 34 60 0 0 109 187 458 82 3 456 24 2 0 81 1 187 2883 34 186
 0 0 56 194 457 82 3 458 24 3 0 81 1 194 2884 34 193 0 0 187 184 459 82 3 457 24
 0 1 81 1 184 2885 34 183 0 0 194 191 461 82 3 459 24 1 1 81 1 191 2886 34 188 0
 0 184 185 465 82 3 461 24 2 1 81 1 185 2887 34 163 0 0 191 198 462 82 3 465 24
 3 1 81 1 198 2888 34 200 0 0 185 224 463 82 3 462 24 4 1 81 1 224 2889 34 222 0
 0 198 231 464 82 3 463 24 5 1 81 1 231 2890 34 228 0 0 224 218 466 82 3 464 24
 6 1 81 1 218 2891 34 220 0 0 231 211 470 82 3 466 24 7 1 81 1 211 2892 34 206 0
 0 218 376 468 82 3 470 24 8 1 82 3 468 24 9 1 82 3 404 24 1 2 82 3 403 24 2 2 8
2 3 405 24 6 2 82 3 397 24 5 2 82 3 395 24 0 2 83 3 341 .615686274509804 .811764
705882353 .929411764705882 83 3 339 .615686274509804 .811764705882353 .929411764
705882 50 315 3315 0 147 0 325 0 +0 -234187669256869e-31 .0024 0 0 1 1 0 0 83 3
 316 .615686274509804 .811764705882353 .929411764705882 79 9 307 BTI/DetId17 88
 0 133 134 57 61 25 11 0 302 -17 292 0 295 279 74 80 256 238 0 0 -17 49 0 297 79
 273 28 46 180 0 279 +17 69 0 288 287 174 70 282 242 0 264 -81 1 278 3429 34 276
 0 0 280 284 467 82 3 290 26 10 1 81 1 280 3428 34 274 0 0 269 278 469 82 3 467
 26 9 1 81 1 269 3427 34 141 0 0 272 280 474 82 3 469 26 8 1 81 1 272 3426 34 27
1 0 0 143 269 475 82 3 474 26 7 1 81 1 143 3425 34 27 0 0 24 272 472 82 3 475 26
 6 1 81 1 24 3424 34 11 0 0 172 143 473 82 3 472 26 5 1 81 1 172 3423 34 168 0 0
 177 24 471 82 3 473 26 4 1 81 1 177 3422 34 180 0 0 162 172 478 82 3 471 26 3 1
 81 1 162 3421 34 39 0 0 152 177 480 82 3 478 26 2 1 81 1 152 3420 34 138 0 0 13
0 162 476 82 3 480 26 1 1 81 1 130 3419 34 122 0 0 129 152 479 82 3 476 26 0 1 8
1 1 129 3418 34 128 0 0 43 130 477 82 3 479 26 7 0 81 1 43 3417 34 45 0 0 32 129
 481 82 3 477 26 6 0 82 3 481 26 5 0 82 3 285 26 11 1 82 3 165 25 1 1 81 1 35 34
14 34 121 0 0 131 29 485 82 3 132 26 1 0 82 3 485 26 2 0 82 3 42 26 4 0 82 3 33
 26 3 0 19 18 138 0 1 0 10 6 0 S0 74 4 CI16 index_map_offset0 0 1 dCCZ20 16 5 0
 0 423 322 14 2 312 0 0 0 0 0 0 0 0 0 0 0 0 0 0 0 80 1 13 311 483 8040 0 0 0 0 3
 5 0 0 0 TTTFFFFFFFFFFFFFF2 83 3 15 .615686274509804 .811764705882353 .929411764
705882 79 17 483 SDL/TYSA_COLOUR_21 0 
